  0
SECTION
  2
HEADER
  9
$ACADVER
  1
AC1009
  9
$INSBASE
 10
0.0
 20
0.0
 30
0.0
  9
$EXTMIN
 10
422698.980000
 20
6436533.120000
 30
1.000000E+020
  9
$EXTMAX
 10
424137.240000
 20
6438294.980000
 30
-1.000000E+020
  9
$LIMMIN
 10
0.0
 20
0.0
  9
$LIMMAX
 10
420.0
 20
297.0
  9
$ORTHOMODE
 70
     0
  9
$REGENMODE
 70
     1
  9
$FILLMODE
 70
     1
  9
$QTEXTMODE
 70
     0
  9
$MIRRTEXT
 70
     1
  9
$DRAGMODE
 70
     2
  9
$LTSCALE
 40
1.0
  9
$OSMODE
 70
     0
  9
$ATTMODE
 70
     1
  9
$TEXTSIZE
 40
2.5
  9
$TRACEWID
 40
1.0
  9
$TEXTSTYLE
  7
STANDARD
  9
$CLAYER
  8
3CIMMTEX
  9
$CELTYPE
  6
BYLAYER
  9
$CECOLOR
 62
   256
  9
$DIMSCALE
 40
1.0
  9
$DIMASZ
 40
2.5
  9
$DIMEXO
 40
0.63
  9
$DIMDLI
 40
3.75
  9
$DIMRND
 40
0.0
  9
$DIMDLE
 40
0.0
  9
$DIMEXE
 40
1.25
  9
$DIMTP
 40
0.0
  9
$DIMTM
 40
0.0
  9
$DIMTXT
 40
2.5
  9
$DIMCEN
 40
2.5
  9
$DIMTSZ
 40
0.0
  9
$DIMTOL
 70
     0
  9
$DIMLIM
 70
     0
  9
$DIMTIH
 70
     0
  9
$DIMTOH
 70
     0
  9
$DIMSE1
 70
     0
  9
$DIMSE2
 70
     0
  9
$DIMTAD
 70
     1
  9
$DIMZIN
 70
     8
  9
$DIMBLK
  1

  9
$DIMASO
 70
     1
  9
$DIMSHO
 70
     1
  9
$DIMPOST
  1

  9
$DIMAPOST
  1

  9
$DIMALT
 70
     0
  9
$DIMALTD
 70
     4
  9
$DIMALTF
 40
0.04
  9
$DIMLFAC
 40
1.0
  9
$DIMTOFL
 70
     1
  9
$DIMTVP
 40
0.0
  9
$DIMTIX
 70
     0
  9
$DIMSOXD
 70
     0
  9
$DIMSAH
 70
     0
  9
$DIMBLK1
  1

  9
$DIMBLK2
  1

  9
$DIMSTYLE
  2
STANDARD
  9
$DIMCLRD
 70
     0
  9
$DIMCLRE
 70
     0
  9
$DIMCLRT
 70
     0
  9
$DIMTFAC
 40
1.0
  9
$DIMGAP
 40
0.63
  9
$LUNITS
 70
     2
  9
$LUPREC
 70
     4
  9
$SKETCHINC
 40
1.0
  9
$FILLETRAD
 40
10.0
  9
$AUNITS
 70
     2
  9
$AUPREC
 70
     4
  9
$MENU
  1
.
  9
$ELEVATION
 40
0.0
  9
$PELEVATION
 40
0.0
  9
$THICKNESS
 40
0.0
  9
$LIMCHECK
 70
     0
  9
$BLIPMODE
 70
     0
  9
$CHAMFERA
 40
10.0
  9
$CHAMFERB
 40
10.0
  9
$SKPOLY
 70
     0
  9
$TDCREATE
 40
2451845.610691
  9
$TDUPDATE
 40
2455594.621247
  9
$TDINDWG
 40
0.005823
  9
$TDUSRTIMER
 40
0.005823
  9
$USRTIMER
 70
     1
  9
$ANGBASE
 50
90.0
  9
$ANGDIR
 70
     1
  9
$PDMODE
 70
     0
  9
$PDSIZE
 40
0.0
  9
$PLINEWID
 40
0.0
  9
$COORDS
 70
     2
  9
$SPLFRAME
 70
     0
  9
$SPLINETYPE
 70
     6
  9
$SPLINESEGS
 70
     8
  9
$ATTDIA
 70
     0
  9
$ATTREQ
 70
     1
  9
$HANDLING
 70
-16383
  9
$HANDSEED
  5
455c
  9
$SURFTAB1
 70
     6
  9
$SURFTAB2
 70
     6
  9
$SURFTYPE
 70
     6
  9
$SURFU
 70
     6
  9
$SURFV
 70
     6
  9
$UCSNAME
  2

  9
$UCSORG
 10
0.0
 20
0.0
 30
0.0
  9
$UCSXDIR
 10
1.0
 20
0.0
 30
0.0
  9
$UCSYDIR
 10
0.0
 20
1.0
 30
0.0
  9
$PUCSNAME
  2

  9
$PUCSORG
 10
0.0
 20
0.0
 30
0.0
  9
$PUCSXDIR
 10
1.0
 20
0.0
 30
0.0
  9
$PUCSYDIR
 10
0.0
 20
1.0
 30
0.0
  9
$USERI1
 70
  1000
  9
$USERI2
 70
     0
  9
$USERI3
 70
     0
  9
$USERI4
 70
     0
  9
$USERI5
 70
     0
  9
$USERR1
 40
1000.0
  9
$USERR2
 40
0.0
  9
$USERR3
 40
0.0
  9
$USERR4
 40
0.0
  9
$USERR5
 40
0.0
  9
$WORLDVIEW
 70
     1
  9
$SHADEDGE
 70
     3
  9
$SHADEDIF
 70
    70
  9
$TILEMODE
 70
     1
  9
$MAXACTVP
 70
    48
  9
$PLIMCHECK
 70
     0
  9
$PEXTMIN
 10
1.000000E+020
 20
1.000000E+020
 30
1.000000E+020
  9
$PEXTMAX
 10
-1.000000E+020
 20
-1.000000E+020
 30
-1.000000E+020
  9
$PLIMMIN
 10
0.0
 20
0.0
  9
$PLIMMAX
 10
420.0
 20
297.0
  9
$UNITMODE
 70
     0
  9
$VISRETAIN
 70
     1
  9
$PLINEGEN
 70
     0
  9
$PSLTSCALE
 70
     1
  0
ENDSEC
  0
SECTION
  2
TABLES
  0
TABLE
  2
VPORT
 70
     3
  0
VPORT
  2
*ACTIVE
 70
     0
 10
0.0
 20
0.0
 11
1.0
 21
1.0
 12
423418.110000
 22
6437414.050000
 13
0.0
 23
0.0
 14
10.0
 24
10.0
 15
10.0
 25
10.0
 16
0.0
 26
0.0
 36
1.0
 17
0.0
 27
0.0
 37
0.0
 40
1761.860000
 41
1.622619
 42
50.0
 43
0.0
 44
0.0
 50
0.0
 51
0.0
 71
     0
 72
   100
 73
     1
 74
     1
 75
     0
 76
     0
 77
     0
 78
     0
  0
ENDTAB
  0
TABLE
  2
LTYPE
 70
     2
  0
LTYPE
  2
CONTINUOUS
 70
     0
  3
Solid line
 72
    65
 73
     0
 40
0.0
  0
LTYPE
  2
CONTINU
 70
     0
  3
Ligne continue
 72
    65
 73
     0
 40
0.0
  0
ENDTAB
  0
TABLE
  2
LAYER
 70
   100
  0
LAYER
  2
0
 70
     0
 62
     7
  6
CONTINU
  0
LAYER
  2
3CIMSTEX
 70
     0
 62
     7
  6
CONTINUOUS
  0
LAYER
  2
3CIME
 70
     0
 62
     7
  6
CONTINU
  0
LAYER
  2
1SUBDSECT
 70
     0
 62
     7
  6
CONTINU
  0
LAYER
  2
1PARCELLE
 70
     0
 62
     7
  6
CONTINU
  0
LAYER
  2
3BOULON
 70
     0
 62
     7
  6
CONTINUOUS
  0
LAYER
  2
3PISCINETEX
 70
     0
 62
     7
  6
CONTINUOUS
  0
LAYER
  2
3TOPOLINETEX
 70
     0
 62
     7
  6
CONTINUOUS
  0
LAYER
  2
3PISCINE
 70
     0
 62
     7
  6
CONTINUOUS
  0
LAYER
  2
3GAZODUCTEX
 70
     0
 62
     7
  6
CONTINU
  0
LAYER
  2
1SECTION
 70
     0
 62
     7
  6
CONTINU
  0
LAYER
  2
3PARCELLETEX
 70
     0
 62
     7
  6
CONTINU
  0
LAYER
  2
3LIMNONPARCTEX
 70
     0
 62
     7
  6
CONTINUOUS
  0
LAYER
  2
3TROUBATI
 70
     0
 62
     7
  6
CONTINU
  0
LAYER
  2
3TELEFERITEX
 70
     0
 62
     7
  6
CONTINU
  0
LAYER
  2
3FLECHEPAR
 70
     0
 62
     7
  6
CONTINU
  0
LAYER
  2
3CHEMINTEX
 70
     0
 62
     7
  6
CONTINU
  0
LAYER
  2
3BATIDUR
 70
     0
 62
     7
  6
CONTINU
  0
LAYER
  2
3BATILEGER
 70
     0
 62
     7
  6
CONTINU
  0
LAYER
  2
1TRONFLUV
 70
     0
 62
     7
  6
CONTINU
  0
LAYER
  2
3EAU
 70
     0
 62
     7
  6
CONTINU
  0
LAYER
  2
3PONT
 70
     0
 62
     7
  6
CONTINU
  0
LAYER
  2
3TUNNEL
 70
     0
 62
     7
  6
CONTINU
  0
LAYER
  2
1ZONCOMM
 70
     0
 62
     7
  6
CONTINU
  0
LAYER
  2
3CHEMIN
 70
     0
 62
     7
  6
CONTINU
  0
LAYER
  2
3SNCF
 70
     0
 62
     7
  6
CONTINU
  0
LAYER
  2
3BORNE
 70
     0
 62
     7
  6
CONTINU
  0
LAYER
  2
3LIEUDITTEX
 70
     0
 62
     7
  6
CONTINU
  0
LAYER
  2
3SUBDFISCTEX
 70
     0
 62
     7
  6
CONTINU
  0
LAYER
  2
3TRONFLUVTEX
 70
     0
 62
     7
  6
CONTINU
  0
LAYER
  2
3TRONROUTEX
 70
     0
 62
     7
  6
CONTINU
  0
LAYER
  2
3ZONCOMMTEX
 70
     0
 62
     7
  6
CONTINU
  0
LAYER
  2
1CHARGE
 70
     0
 62
     7
  6
CONTINU
  0
LAYER
  2
1LIEUDIT
 70
     0
 62
     7
  6
CONTINU
  0
LAYER
  2
1SUBDFISC
 70
     0
 62
     7
  6
CONTINU
  0
LAYER
  2
1TRONROU
 70
     0
 62
     7
  6
CONTINU
  0
LAYER
  2
3CALVAIRETEX
 70
     0
 62
     7
  6
CONTINU
  0
LAYER
  2
3NUMVOIE
 70
     0
 62
     7
  6
CONTINU
  0
LAYER
  2
3IGNNB
 70
     0
 62
     7
  6
CONTINU
  0
LAYER
  2
3EDF
 70
     0
 62
     7
  6
CONTINU
  0
LAYER
  2
3CALVAIRE
 70
     0
 62
     7
  6
CONTINU
  0
LAYER
  2
3ENSIMMO
 70
     0
 62
     7
  6
CONTINU
  0
LAYER
  2
3CIMM
 70
     0
 62
     7
  6
CONTINU
  0
LAYER
  2
3CIMS
 70
     0
 62
     7
  6
CONTINU
  0
LAYER
  2
3IGNB
 70
     0
 62
     7
  6
CONTINU
  0
LAYER
  2
3CADB
 70
     0
 62
     7
  6
CONTINU
  0
LAYER
  2
3CADNB
 70
     0
 62
     7
  6
CONTINU
  0
LAYER
  2
3DIVERS
 70
     0
 62
     7
  6
CONTINU
  0
LAYER
  2
1FLECHEFL
 70
     0
 62
     7
  6
CONTINU
  0
LAYER
  2
1HALTE
 70
     0
 62
     7
  6
CONTINU
  0
LAYER
  2
1ARRET
 70
     0
 62
     7
  6
CONTINU
  0
LAYER
  2
1STATION
 70
     0
 62
     7
  6
CONTINU
  0
LAYER
  2
1PYLONE
 70
     0
 62
     7
  6
CONTINU
  0
LAYER
  2
3MURMI
 70
     0
 62
     7
  6
CONTINU
  0
LAYER
  2
3MURNONMI
 70
     0
 62
     7
  6
CONTINU
  0
LAYER
  2
3FOSSEMI
 70
     0
 62
     7
  6
CONTINU
  0
LAYER
  2
3FOSSENONMI
 70
     0
 62
     7
  6
CONTINU
  0
LAYER
  2
3CLOTMI
 70
     0
 62
     7
  6
CONTINU
  0
LAYER
  2
3CLOTNONMI
 70
     0
 62
     7
  6
CONTINU
  0
LAYER
  2
3HAIEMI
 70
     0
 62
     7
  6
CONTINU
  0
LAYER
  2
3HAIENONMI
 70
     0
 62
     7
  6
CONTINU
  0
LAYER
  2
1COMM
 70
     0
 62
     7
  6
CONTINU
  0
LAYER
  2
1DEPART
 70
     0
 62
     7
  6
CONTINU
  0
LAYER
  2
1ETAT
 70
     0
 62
     7
  6
CONTINU
  0
LAYER
  2
1PARCELLENFP
 70
     0
 62
     7
  6
CONTINU
  0
LAYER
  2
3PARCNFPTEX
 70
     0
 62
     7
  6
CONTINU
  0
LAYER
  2
3AQUEDUC
 70
     0
 62
     7
  6
CONTINU
  0
LAYER
  2
3CHARGETEX
 70
     0
 62
     7
  6
CONTINU
  0
LAYER
  2
3EGLISE
 70
     0
 62
     7
  6
CONTINU
  0
LAYER
  2
3EAUTEX
 70
     0
 62
     7
  6
CONTINU
  0
LAYER
  2
3PONTTEX
 70
     0
 62
     7
  6
CONTINU
  0
LAYER
  2
3SNCFTEX
 70
     0
 62
     7
  6
CONTINU
  0
LAYER
  2
3DPTEX
 70
     0
 62
     7
  6
CONTINU
  0
LAYER
  2
3TUNNELTEX
 70
     0
 62
     7
  6
CONTINU
  0
LAYER
  2
3EDFTEX
 70
     0
 62
     7
  6
CONTINU
  0
LAYER
  2
3EGLISETEX
 70
     0
 62
     7
  6
CONTINU
  0
LAYER
  2
3GAZODUC
 70
     0
 62
     7
  6
CONTINU
  0
LAYER
  2
3LIMNONPARC
 70
     0
 62
     7
  6
CONTINU
  0
LAYER
  2
3SENTIER
 70
     0
 62
     7
  6
CONTINU
  0
LAYER
  2
3SENTIERTEX
 70
     0
 62
     7
  6
CONTINU
  0
LAYER
  2
3MOSQUEE
 70
     0
 62
     7
  6
CONTINU
  0
LAYER
  2
3MOSQUEETEX
 70
     0
 62
     7
  6
CONTINU
  0
LAYER
  2
3SYNAGO
 70
     0
 62
     7
  6
CONTINU
  0
LAYER
  2
3SYNAGOTEX
 70
     0
 62
     7
  6
CONTINU
  0
LAYER
  2
3TELEFERI
 70
     0
 62
     7
  6
CONTINU
  0
LAYER
  2
3TOPOLINE
 70
     0
 62
     7
  6
CONTINU
  0
LAYER
  2
1TROUCHARGE
 70
     0
 62
     7
  6
CONTINU
  0
LAYER
  2
1TROUPARCELLE
 70
     0
 62
     7
  6
CONTINU
  0
LAYER
  2
1TROUSECTION
 70
     0
 62
     7
  6
CONTINU
  0
LAYER
  2
1TROUSUBDFISC
 70
     0
 62
     7
  6
CONTINU
  0
LAYER
  2
1TROUSUBDSECT
 70
     0
 62
     7
  6
CONTINU
  0
LAYER
  2
3AQUEDUCTEX
 70
     0
 62
     7
  6
CONTINUOUS
  0
LAYER
  2
3PARCELLETEX2
 70
     0
 62
     7
  6
CONTINUOUS
  0
LAYER
  2
3PUIT
 70
     0
 62
     7
  6
CONTINUOUS
  0
LAYER
  2
3FISCLINE
 70
     0
 62
     7
  6
CONTINUOUS
  0
LAYER
  2
3PUITTEX
 70
     0
 62
     7
  6
CONTINUOUS
  0
LAYER
  2
3FISCLINETEX
 70
     0
 62
     7
  6
CONTINUOUS
  0
LAYER
  2
3CROIX
 70
     0
 62
     7
  6
CONTINUOUS
  0
LAYER
  2
3CIMETEX
 70
     0
 62
     7
  6
CONTINUOUS
  0
LAYER
  2
3CIMMTEX
 70
     0
 62
     7
  6
CONTINUOUS
  0
LAYER
  2
3BATITEX
 70
     0
 62
     7
  6
CONTINUOUS
  0
LAYER
  5
4003
  2
3PONCTDIVERS
 70
   0
 62
     7
  6
CONTINUOUS
  0
LAYER
  5
4004
  2
3PONCTDIVERSTEX
 70
   0
 62
     7
  6
CONTINUOUS
  0
LAYER
  5
4005
  2
3LINEDIVERS
 70
   0
 62
     7
  6
CONTINUOUS
  0
LAYER
  5
4006
  2
3LINEDIVERS
 70
   0
 62
     7
  6
CONTINUOUS
  0
LAYER
  5
4007
  2
3LINEDIVERSTEX
 70
   0
 62
     7
  6
CONTINUOUS
  0
ENDTAB
  0
TABLE
  2
STYLE
 70
     1
  0
STYLE
  2
STANDARD
 70
     0
 40
0.0
 41
1.0
 50
0.0
 71
     0
 42
2.5
  3
Times New Roman
  4

  0
ENDTAB
  0
TABLE
  2
VIEW
 70
     0
  0
ENDTAB
  0
TABLE
  2
UCS
 70
     0
  0
ENDTAB
  0
TABLE
  2
APPID
 70
    17
  0
APPID
  2
ACAD
 70
     0
  0
APPID
  2
SUPF
 70
     0
  0
APPID
  2
INDP
 70
     0
  0
APPID
  2
COAR
 70
     0
  0
APPID
  2
IDU
 70
     0
  0
APPID
  2
QUPL
 70
     0
  0
APPID
  2
COPL
 70
     0
  0
APPID
  2
EOR
 70
     0
  0
APPID
  2
ICL
 70
     0
  0
APPID
  2
INP
 70
     0
  0
APPID
  2
CAN
 70
     0
  0
APPID
  2
PPLN
 70
     0
  0
APPID
  2
MAP
 70
     0
  0
APPID
  2
PALT
 70
     0
  0
APPID
  2
DEDI
 70
     0
  0
APPID
  2
DIS
 70
     0
  0
APPID
  2
DRED
 70
     0
  0
APPID
  2
ALTI
 70
     0
  0
ENDTAB
  0
TABLE
  2
DIMSTYLE
 70
     1
  0
DIMSTYLE
  2
STANDARD
 70
     0
  3

  4

  5

  6

  7

 40
1.0
 41
0.18
 42
0.06
 43
0.38
 44
0.18
 45
0.0
 46
0.0
 47
0.0
 48
0.0
140
0.18
141
0.09
142
0.0
143
25.4
144
1.0
145
0.0
146
1.0
147
0.09
 71
     0
 72
     0
 73
     1
 74
     1
 75
     0
 76
     0
 77
     0
 78
     0
170
     0
171
     2
172
     0
173
     0
174
     0
175
     0
176
     0
177
     0
178
     0
  0
ENDTAB
  0
ENDSEC
  0
SECTION
  2
BLOCKS
  0
BLOCK
  8
0
  2
$MODEL_SPACE
 70
     0
 10
0.0
 20
0.0
 30
0.0
  3
$MODEL_SPACE
  1

  0
ENDBLK
  5
3A78
  8
0
  0
BLOCK
 67
     1
  8
0
  2
$PAPER_SPACE
 70
     0
 10
0.0
 20
0.0
 30
0.0
  3
$PAPER_SPACE
  1

  0
ENDBLK
  5
3A74
 67
     1
  8
0
  0
BLOCK
  8
0
  2
DEFAUT_SYMBOLE
 70
     0
 10
0.0
 20
0.0
 30
0.0
  3
DEFAUT_SYMBOLE
  1

  0
POLYLINE
  5
3AF9
  8
0
 66
     1
 10
0.0
 20
0.0
 30
0.0
 70
     1
  0
VERTEX
  5
3F1E
  8
0
 10
-0.5
 20
-0.5
 30
0.0
  0
VERTEX
  5
3F1F
  8
0
 10
-0.5
 20
0.5
 30
0.0
  0
VERTEX
  5
3F20
  8
0
 10
0.5
 20
0.5
 30
0.0
  0
VERTEX
  5
3F21
  8
0
 10
0.5
 20
-0.5
 30
0.0
  0
SEQEND
  5
3F22
  8
0
  0
ENDBLK
  5
3AFF
  8
0
  0
BLOCK
  8
0
  2
BORLIPRO
 70
     0
 10
0.0
 20
0.0
 30
0.0
  3
BORLIPRO
  1

  0
POLYLINE
  5
3B02
  8
0
 66
     1
 10
0.0
 20
0.0
 30
0.0
 70
     1
  0
VERTEX
  5
3F23
  8
0
 10
-0.07
 20
0.5
 30
0.0
  0
VERTEX
  5
3F24
  8
0
 10
-0.19
 20
0.47
 30
0.0
  0
VERTEX
  5
3F25
  8
0
 10
-0.31
 20
0.4
 30
0.0
  0
VERTEX
  5
3F26
  8
0
 10
-0.4
 20
0.31
 30
0.0
  0
VERTEX
  5
3F27
  8
0
 10
-0.47
 20
0.19
 30
0.0
  0
VERTEX
  5
3F28
  8
0
 10
-0.5
 20
0.07
 30
0.0
  0
VERTEX
  5
3F29
  8
0
 10
-0.5
 20
-0.07
 30
0.0
  0
VERTEX
  5
3F2A
  8
0
 10
-0.47
 20
-0.19
 30
0.0
  0
VERTEX
  5
3F2B
  8
0
 10
-0.4
 20
-0.31
 30
0.0
  0
VERTEX
  5
3F2C
  8
0
 10
-0.31
 20
-0.4
 30
0.0
  0
VERTEX
  5
3F2D
  8
0
 10
-0.19
 20
-0.47
 30
0.0
  0
VERTEX
  5
3F2E
  8
0
 10
-0.07
 20
-0.5
 30
0.0
  0
VERTEX
  5
3F2F
  8
0
 10
0.07
 20
-0.5
 30
0.0
  0
VERTEX
  5
3F30
  8
0
 10
0.19
 20
-0.47
 30
0.0
  0
VERTEX
  5
3F31
  8
0
 10
0.31
 20
-0.4
 30
0.0
  0
VERTEX
  5
3F32
  8
0
 10
0.4
 20
-0.31
 30
0.0
  0
VERTEX
  5
3F33
  8
0
 10
0.47
 20
-0.19
 30
0.0
  0
VERTEX
  5
3F34
  8
0
 10
0.5
 20
-0.07
 30
0.0
  0
VERTEX
  5
3F35
  8
0
 10
0.5
 20
0.07
 30
0.0
  0
VERTEX
  5
3F36
  8
0
 10
0.47
 20
0.19
 30
0.0
  0
VERTEX
  5
3F37
  8
0
 10
0.4
 20
0.31
 30
0.0
  0
VERTEX
  5
3F38
  8
0
 10
0.31
 20
0.4
 30
0.0
  0
VERTEX
  5
3F39
  8
0
 10
0.19
 20
0.47
 30
0.0
  0
VERTEX
  5
3F3A
  8
0
 10
0.07
 20
0.5
 30
0.0
  0
SEQEND
  5
3F3B
  8
0
  0
ENDBLK
  5
3B1C
  8
0
  0
BLOCK
  8
0
  2
CLOTMI
 70
     0
 10
0.0
 20
0.0
 30
0.0
  3
CLOTMI
  1

  0
POLYLINE
  5
3B1F
  8
0
 66
     1
 10
0.0
 20
0.0
 30
0.0
 70
     1
 40
0.38
 41
0.38
  0
VERTEX
  5
3F3C
  8
0
 10
-0.19
 20
0.0
 30
0.0
 42
1.0
  0
VERTEX
  5
3F3D
  8
0
 10
0.19
 20
0.0
 30
0.0
 42
1.0
  0
SEQEND
  5
3F3E
  8
0
  0
ENDBLK
  5
3B23
  8
0
  0
BLOCK
  8
0
  2
CLOTNOMI
 70
     0
 10
0.0
 20
0.0
 30
0.0
  3
CLOTNOMI
  1

  0
POLYLINE
  5
3B26
  8
0
 66
     1
 10
0.0
 20
0.0
 30
0.0
 70
     1
 40
0.38
 41
0.38
  0
VERTEX
  5
3F3F
  8
0
 10
-0.19
 20
0.37
 30
0.0
 42
1.0
  0
VERTEX
  5
3F40
  8
0
 10
0.19
 20
0.37
 30
0.0
 42
1.0
  0
SEQEND
  5
3F41
  8
0
  0
ENDBLK
  5
3B2A
  8
0
  0
BLOCK
  8
0
  2
FOSSNOMI
 70
     0
 10
0.0
 20
0.0
 30
0.0
  3
FOSSNOMI
  1

  0
LINE
  5
3B2D
  8
0
 10
1.5
 20
0.5
 30
0.0
 11
2.5
 21
0.5
 31
0.0
  0
LINE
  5
3B2E
  8
0
 10
-0.5
 20
0.5
 30
0.0
 11
0.5
 21
0.5
 31
0.0
  0
LINE
  5
3B2F
  8
0
 10
-2.5
 20
0.5
 30
0.0
 11
-1.5
 21
0.5
 31
0.0
  0
ENDBLK
  5
3B30
  8
0
  0
BLOCK
  8
0
  2
FOSSMI
 70
     0
 10
0.0
 20
0.0
 30
0.0
  3
FOSSMI
  1

  0
LINE
  5
3B33
  8
0
 10
1.5
 20
0.5
 30
0.0
 11
2.5
 21
0.5
 31
0.0
  0
LINE
  5
3B34
  8
0
 10
1.5
 20
-0.5
 30
0.0
 11
2.5
 21
-0.5
 31
0.0
  0
LINE
  5
3B35
  8
0
 10
-0.5
 20
-0.5
 30
0.0
 11
0.5
 21
-0.5
 31
0.0
  0
LINE
  5
3B36
  8
0
 10
-0.5
 20
0.5
 30
0.0
 11
0.5
 21
0.5
 31
0.0
  0
LINE
  5
3B37
  8
0
 10
-2.5
 20
0.5
 30
0.0
 11
-1.5
 21
0.5
 31
0.0
  0
LINE
  5
3B38
  8
0
 10
-2.5
 20
-0.5
 30
0.0
 11
-1.5
 21
-0.5
 31
0.0
  0
ENDBLK
  5
3B39
  8
0
  0
BLOCK
  8
0
  2
HAIENOMI
 70
     0
 10
0.0
 20
0.0
 30
0.0
  3
HAIENOMI
  1

  0
POLYLINE
  5
3B3C
  8
0
 66
     1
 10
0.0
 20
0.0
 30
0.0
  0
VERTEX
  5
3F42
  8
0
 10
0.5
 20
1.0
 30
0.0
  0
VERTEX
  5
3F43
  8
0
 10
-0.5
 20
0.0
 30
0.0
  0
SEQEND
  5
3F44
  8
0
  0
POLYLINE
  5
3B40
  8
0
 66
     1
 10
0.0
 20
0.0
 30
0.0
  0
VERTEX
  5
3F45
  8
0
 10
-0.5
 20
1.0
 30
0.0
  0
VERTEX
  5
3F46
  8
0
 10
0.5
 20
0.0
 30
0.0
  0
SEQEND
  5
3F47
  8
0
  0
ENDBLK
  5
3B44
  8
0
  0
BLOCK
  8
0
  2
HAIEMI
 70
     0
 10
0.0
 20
0.0
 30
0.0
  3
HAIEMI
  1

  0
POLYLINE
  5
3B47
  8
0
 66
     1
 10
0.0
 20
0.0
 30
0.0
  0
VERTEX
  5
3F48
  8
0
 10
0.5
 20
0.5
 30
0.0
  0
VERTEX
  5
3F49
  8
0
 10
-0.5
 20
-0.5
 30
0.0
  0
SEQEND
  5
3F4A
  8
0
  0
POLYLINE
  5
3B4B
  8
0
 66
     1
 10
0.0
 20
0.0
 30
0.0
  0
VERTEX
  5
3F4B
  8
0
 10
-0.5
 20
0.5
 30
0.0
  0
VERTEX
  5
3F4C
  8
0
 10
0.5
 20
-0.5
 30
0.0
  0
SEQEND
  5
3F4D
  8
0
  0
ENDBLK
  5
3B4F
  8
0
  0
BLOCK
  8
0
  2
MURMI
 70
     0
 10
0.0
 20
0.0
 30
0.0
  3
MURMI
  1

  0
LINE
  5
3B52
  8
0
 10
-0.75
 20
0.5
 30
0.0
 11
0.75
 21
0.5
 31
0.0
  0
LINE
  5
3B53
  8
0
 10
-0.75
 20
-0.5
 30
0.0
 11
0.75
 21
-0.5
 31
0.0
  0
ENDBLK
  5
3B54
  8
0
  0
BLOCK
  8
0
  2
MURNOMI
 70
     0
 10
0.0
 20
0.0
 30
0.0
  3
MURNOMI
  1

  0
LINE
  5
3B57
  8
0
 10
-0.75
 20
0.5
 30
0.0
 11
0.75
 21
0.5
 31
0.0
  0
ENDBLK
  5
3B58
  8
0
  0
BLOCK
  8
0
  2
DETATOPO
 70
     0
 10
0.0
 20
0.0
 30
0.0
  3
DETATOPO
  1

  0
POLYLINE
  5
3B5B
  8
0
 66
     1
 10
0.0
 20
0.0
 30
0.0
  0
VERTEX
  5
3F4E
  8
0
 10
0.0
 20
-1.5
 30
0.0
  0
VERTEX
  5
3F4F
  8
0
 10
0.0
 20
1.5
 30
0.0
  0
SEQEND
  5
3F50
  8
0
  0
POLYLINE
  5
3B5F
  8
0
 66
     1
 10
0.0
 20
0.0
 30
0.0
  0
VERTEX
  5
3F51
  8
0
 10
-1.5
 20
0.0
 30
0.0
  0
VERTEX
  5
3F52
  8
0
 10
1.5
 20
0.0
 30
0.0
  0
SEQEND
  5
3F53
  8
0
  0
ENDBLK
  5
3B63
  8
0
  0
BLOCK
  8
0
  2
EGLISE
 70
     0
 10
0.0
 20
0.0
 30
0.0
  3
EGLISE
  1

  0
POLYLINE
  5
3B66
  8
0
 66
     1
 10
0.0
 20
0.0
 30
0.0
 40
0.2
 41
0.2
  0
VERTEX
  5
3F54
  8
0
 10
-7.5
 20
0.0
 30
0.0
  0
VERTEX
  5
3F55
  8
0
 10
2.5
 20
0.0
 30
0.0
  0
SEQEND
  5
3F56
  8
0
  0
POLYLINE
  5
3B6A
  8
0
 66
     1
 10
0.0
 20
0.0
 30
0.0
 40
0.2
 41
0.2
  0
VERTEX
  5
3F57
  8
0
 10
0.0
 20
-2.5
 30
0.0
  0
VERTEX
  5
3F58
  8
0
 10
0.0
 20
2.5
 30
0.0
  0
SEQEND
  5
3F59
  8
0
  0
ENDBLK
  5
3B6E
  8
0
  0
BLOCK
  8
0
  2
IGNBORNE
 70
     0
 10
0.0
 20
0.0
 30
0.0
  3
IGNBORNE
  1

  0
CIRCLE
  5
3B71
  8
0
 10
0.0
 20
0.0
 30
0.0
 40
0.87
  0
POLYLINE
  5
3B72
  8
0
 66
     1
 10
0.0
 20
0.0
 30
0.0
 70
     1
  0
VERTEX
  5
3F5A
  8
0
 10
-1.5
 20
-0.87
 30
0.0
  0
VERTEX
  5
3F5B
  8
0
 10
1.5
 20
-0.87
 30
0.0
  0
VERTEX
  5
3F5C
  8
0
 10
0.0
 20
1.73
 30
0.0
  0
SEQEND
  5
3F5D
  8
0
  0
POLYLINE
  5
3B77
  8
0
 66
     1
 10
0.0
 20
0.0
 30
0.0
 70
     1
  0
VERTEX
  5
3F5E
  8
0
 10
0.0
 20
2.32
 30
0.0
  0
VERTEX
  5
3F5F
  8
0
 10
-2.01
 20
-1.16
 30
0.0
  0
VERTEX
  5
3F60
  8
0
 10
2.01
 20
-1.16
 30
0.0
  0
SEQEND
  5
3F61
  8
0
  0
ENDBLK
  5
3B7C
  8
0
  0
BLOCK
  8
0
  2
IGNPOINT
 70
     0
 10
0.0
 20
0.0
 30
0.0
  3
IGNPOINT
  1

  0
POLYLINE
  5
3B7F
  8
0
 66
     1
 10
0.0
 20
0.0
 30
0.0
 70
     1
  0
VERTEX
  5
3F62
  8
0
 10
0.0
 20
2.32
 30
0.0
  0
VERTEX
  5
3F63
  8
0
 10
-2.01
 20
-1.16
 30
0.0
  0
VERTEX
  5
3F64
  8
0
 10
2.01
 20
-1.16
 30
0.0
  0
SEQEND
  5
3F65
  8
0
  0
POLYLINE
  5
3B84
  8
0
 66
     1
 10
0.0
 20
0.0
 30
0.0
 70
     1
  0
VERTEX
  5
3F66
  8
0
 10
-1.5
 20
-0.87
 30
0.0
  0
VERTEX
  5
3F67
  8
0
 10
1.5
 20
-0.87
 30
0.0
  0
VERTEX
  5
3F68
  8
0
 10
0.0
 20
1.73
 30
0.0
  0
SEQEND
  5
3F69
  8
0
  0
ENDBLK
  5
3B89
  8
0
  0
BLOCK
  8
0
  2
CADBORNE
 70
     0
 10
0.0
 20
0.0
 30
0.0
  3
CADBORNE
  1

  0
POLYLINE
  5
3B8C
  8
0
 66
     1
 10
0.0
 20
0.0
 30
0.0
 70
     1
  0
VERTEX
  5
3F6A
  8
0
 10
-1.5
 20
-0.87
 30
0.0
  0
VERTEX
  5
3F6B
  8
0
 10
1.5
 20
-0.87
 30
0.0
  0
VERTEX
  5
3F6C
  8
0
 10
0.0
 20
1.73
 30
0.0
  0
SEQEND
  5
3F6D
  8
0
  0
CIRCLE
  5
3B91
  8
0
 10
0.0
 20
0.0
 30
0.0
 40
0.87
  0
ENDBLK
  5
3B92
  8
0
  0
BLOCK
  8
0
  2
PIQUET
 70
     0
 10
0.0
 20
0.0
 30
0.0
  3
PIQUET
  1

  0
POLYLINE
  5
3B95
  8
0
 66
     1
 10
0.0
 20
0.0
 30
0.0
 70
     1
  0
VERTEX
  5
3F6E
  8
0
 10
-1.5
 20
-0.87
 30
0.0
  0
VERTEX
  5
3F6F
  8
0
 10
1.5
 20
-0.87
 30
0.0
  0
VERTEX
  5
3F70
  8
0
 10
0.0
 20
1.73
 30
0.0
  0
SEQEND
  5
3F71
  8
0
  0
ENDBLK
  5
3B9A
  8
0
  0
BLOCK
  8
0
  2
RNGF
 70
     0
 10
0.0
 20
0.0
 30
0.0
  3
RNGF
  1

  0
POLYLINE
  5
3B9D
  8
0
 66
     1
 10
0.0
 20
0.0
 30
0.0
  0
VERTEX
  5
3F72
  8
0
 10
0.713529
 20
0.0
 30
0.0
  0
VERTEX
  5
3F73
  8
0
 10
1.0
 20
0.0
 30
0.0
  0
VERTEX
  5
3F74
  8
0
 10
1.0
 20
0.131653
 30
0.0
  0
VERTEX
  5
3F75
  8
0
 10
0.931852
 20
0.385986
 30
0.0
  0
VERTEX
  5
3F76
  8
0
 10
0.800199
 20
0.614014
 30
0.0
  0
VERTEX
  5
3F77
  8
0
 10
0.614014
 20
0.800199
 30
0.0
  0
VERTEX
  5
3F78
  8
0
 10
0.385986
 20
0.931852
 30
0.0
  0
VERTEX
  5
3F79
  8
0
 10
0.131653
 20
1.0
 30
0.0
  0
VERTEX
  5
3F7A
  8
0
 10
-0.131653
 20
1.0
 30
0.0
  0
VERTEX
  5
3F7B
  8
0
 10
-0.385986
 20
0.931852
 30
0.0
  0
VERTEX
  5
3F7C
  8
0
 10
-0.614014
 20
0.800199
 30
0.0
  0
VERTEX
  5
3F7D
  8
0
 10
-0.800199
 20
0.614014
 30
0.0
  0
VERTEX
  5
3F7E
  8
0
 10
-0.931852
 20
0.385986
 30
0.0
  0
VERTEX
  5
3F7F
  8
0
 10
-1.0
 20
0.131653
 30
0.0
  0
VERTEX
  5
3F80
  8
0
 10
-1.0
 20
0.0
 30
0.0
  0
VERTEX
  5
3F81
  8
0
 10
-0.713529
 20
0.0
 30
0.0
  0
SEQEND
  5
3F82
  8
0
  0
INSERT
  5
3BB0
  8
0
  2
*X19
 10
0.0
 20
0.0
 30
0.0
 50
180.0
1001
ACAD
1000
HATCH
1002
{
1070
    16
1000
_U
1040
0.01
1040
0.0
1070
     1
1002
}
  0
POLYLINE
  5
3BB1
  8
0
 66
     1
 10
0.0
 20
0.0
 30
0.0
 70
     1
  0
VERTEX
  5
3F83
  8
0
 10
0.713529
 20
0.0
 30
0.0
  0
VERTEX
  5
3F84
  8
0
 10
0.713529
 20
0.093938
 30
0.0
  0
VERTEX
  5
3F85
  8
0
 10
0.664903
 20
0.275412
 30
0.0
  0
VERTEX
  5
3F86
  8
0
 10
0.570966
 20
0.438117
 30
0.0
  0
VERTEX
  5
3F87
  8
0
 10
0.438117
 20
0.570966
 30
0.0
  0
VERTEX
  5
3F88
  8
0
 10
0.275412
 20
0.664903
 30
0.0
  0
VERTEX
  5
3F89
  8
0
 10
0.093938
 20
0.713529
 30
0.0
  0
VERTEX
  5
3F8A
  8
0
 10
-0.093938
 20
0.713529
 30
0.0
  0
VERTEX
  5
3F8B
  8
0
 10
-0.275412
 20
0.664903
 30
0.0
  0
VERTEX
  5
3F8C
  8
0
 10
-0.438117
 20
0.570966
 30
0.0
  0
VERTEX
  5
3F8D
  8
0
 10
-0.570966
 20
0.438117
 30
0.0
  0
VERTEX
  5
3F8E
  8
0
 10
-0.664903
 20
0.275412
 30
0.0
  0
VERTEX
  5
3F8F
  8
0
 10
-0.713529
 20
0.093938
 30
0.0
  0
VERTEX
  5
3F90
  8
0
 10
-0.713529
 20
0.0
 30
0.0
  0
SEQEND
  5
3F91
  8
0
  0
ENDBLK
  5
3BC1
  8
0
  0
BLOCK
  8
0
  2
*X19
 70
     1
 10
0.0
 20
0.0
 30
0.0
  3
*X19
  1

  0
LINE
  5
3D58
  8
0
 62
     0
 10
-0.62184
 20
-0.35
 30
0.0
 11
0.62184
 21
-0.35
 31
0.0
  0
LINE
  5
3D59
  8
0
 62
     0
 10
-0.627614
 20
-0.34
 30
0.0
 11
0.627614
 21
-0.34
 31
0.0
  0
LINE
  5
3D5A
  8
0
 62
     0
 10
-0.633387
 20
-0.33
 30
0.0
 11
0.633387
 21
-0.33
 31
0.0
  0
LINE
  5
3D5B
  8
0
 62
     0
 10
-0.639161
 20
-0.32
 30
0.0
 11
0.639161
 21
-0.32
 31
0.0
  0
LINE
  5
3D5C
  8
0
 62
     0
 10
-0.644934
 20
-0.31
 30
0.0
 11
0.644934
 21
-0.31
 31
0.0
  0
LINE
  5
3D5D
  8
0
 62
     0
 10
-0.650708
 20
-0.3
 30
0.0
 11
0.650708
 21
-0.3
 31
0.0
  0
LINE
  5
3D5E
  8
0
 62
     0
 10
-0.656481
 20
-0.29
 30
0.0
 11
0.656481
 21
-0.29
 31
0.0
  0
LINE
  5
3D5F
  8
0
 62
     0
 10
-0.662255
 20
-0.28
 30
0.0
 11
0.662255
 21
-0.28
 31
0.0
  0
LINE
  5
3D60
  8
0
 62
     0
 10
-0.666354
 20
-0.27
 30
0.0
 11
0.666354
 21
-0.27
 31
0.0
  0
LINE
  5
3D61
  8
0
 62
     0
 10
-0.669033
 20
-0.26
 30
0.0
 11
0.669033
 21
-0.26
 31
0.0
  0
LINE
  5
3D62
  8
0
 62
     0
 10
-0.671713
 20
-0.25
 30
0.0
 11
0.671713
 21
-0.25
 31
0.0
  0
LINE
  5
3D63
  8
0
 62
     0
 10
-0.674392
 20
-0.24
 30
0.0
 11
0.674392
 21
-0.24
 31
0.0
  0
LINE
  5
3D64
  8
0
 62
     0
 10
-0.677072
 20
-0.23
 30
0.0
 11
0.677072
 21
-0.23
 31
0.0
  0
LINE
  5
3D65
  8
0
 62
     0
 10
-0.679751
 20
-0.22
 30
0.0
 11
0.679751
 21
-0.22
 31
0.0
  0
LINE
  5
3D66
  8
0
 62
     0
 10
-0.682431
 20
-0.21
 30
0.0
 11
0.682431
 21
-0.21
 31
0.0
  0
LINE
  5
3D67
  8
0
 62
     0
 10
-0.68511
 20
-0.2
 30
0.0
 11
0.68511
 21
-0.2
 31
0.0
  0
LINE
  5
3D68
  8
0
 62
     0
 10
-0.68779
 20
-0.19
 30
0.0
 11
0.68779
 21
-0.19
 31
0.0
  0
LINE
  5
3D69
  8
0
 62
     0
 10
-0.690469
 20
-0.18
 30
0.0
 11
0.690469
 21
-0.18
 31
0.0
  0
LINE
  5
3D6A
  8
0
 62
     0
 10
-0.693149
 20
-0.17
 30
0.0
 11
0.693149
 21
-0.17
 31
0.0
  0
LINE
  5
3D6B
  8
0
 62
     0
 10
-0.695828
 20
-0.16
 30
0.0
 11
0.695828
 21
-0.16
 31
0.0
  0
LINE
  5
3D6C
  8
0
 62
     0
 10
-0.698508
 20
-0.15
 30
0.0
 11
0.698508
 21
-0.15
 31
0.0
  0
LINE
  5
3D6D
  8
0
 62
     0
 10
-0.701187
 20
-0.14
 30
0.0
 11
0.701187
 21
-0.14
 31
0.0
  0
LINE
  5
3D6E
  8
0
 62
     0
 10
-0.703866
 20
-0.13
 30
0.0
 11
0.703866
 21
-0.13
 31
0.0
  0
LINE
  5
3D6F
  8
0
 62
     0
 10
-0.706546
 20
-0.12
 30
0.0
 11
0.706546
 21
-0.12
 31
0.0
  0
LINE
  5
3D70
  8
0
 62
     0
 10
-0.709225
 20
-0.11
 30
0.0
 11
0.709225
 21
-0.11
 31
0.0
  0
LINE
  5
3D71
  8
0
 62
     0
 10
-0.711905
 20
-0.1
 30
0.0
 11
0.711905
 21
-0.1
 31
0.0
  0
LINE
  5
3D72
  8
0
 62
     0
 10
-0.713529
 20
-0.09
 30
0.0
 11
0.713529
 21
-0.09
 31
0.0
  0
LINE
  5
3D73
  8
0
 62
     0
 10
-0.713529
 20
-0.08
 30
0.0
 11
0.713529
 21
-0.08
 31
0.0
  0
LINE
  5
3D74
  8
0
 62
     0
 10
-0.713529
 20
-0.07
 30
0.0
 11
0.713529
 21
-0.07
 31
0.0
  0
LINE
  5
3D75
  8
0
 62
     0
 10
-0.713529
 20
-0.06
 30
0.0
 11
0.713529
 21
-0.06
 31
0.0
  0
LINE
  5
3D76
  8
0
 62
     0
 10
-0.713529
 20
-0.05
 30
0.0
 11
0.713529
 21
-0.05
 31
0.0
  0
LINE
  5
3D77
  8
0
 62
     0
 10
-0.713529
 20
-0.04
 30
0.0
 11
0.713529
 21
-0.04
 31
0.0
  0
LINE
  5
3D78
  8
0
 62
     0
 10
-0.713529
 20
-0.03
 30
0.0
 11
0.713529
 21
-0.03
 31
0.0
  0
LINE
  5
3D79
  8
0
 62
     0
 10
-0.713529
 20
-0.02
 30
0.0
 11
0.713529
 21
-0.02
 31
0.0
  0
LINE
  5
3D7A
  8
0
 62
     0
 10
-0.713529
 20
-0.01
 30
0.0
 11
0.713529
 21
-0.01
 31
0.0
  0
LINE
  5
3D7B
  8
0
 62
     0
 10
-0.616067
 20
-0.36
 30
0.0
 11
0.616067
 21
-0.36
 31
0.0
  0
LINE
  5
3D7C
  8
0
 62
     0
 10
-0.610293
 20
-0.37
 30
0.0
 11
0.610293
 21
-0.37
 31
0.0
  0
LINE
  5
3D7D
  8
0
 62
     0
 10
-0.60452
 20
-0.38
 30
0.0
 11
0.60452
 21
-0.38
 31
0.0
  0
LINE
  5
3D7E
  8
0
 62
     0
 10
-0.598746
 20
-0.39
 30
0.0
 11
0.598746
 21
-0.39
 31
0.0
  0
LINE
  5
3D7F
  8
0
 62
     0
 10
-0.592973
 20
-0.4
 30
0.0
 11
0.592973
 21
-0.4
 31
0.0
  0
LINE
  5
3D80
  8
0
 62
     0
 10
-0.587199
 20
-0.41
 30
0.0
 11
0.587199
 21
-0.41
 31
0.0
  0
LINE
  5
3D81
  8
0
 62
     0
 10
-0.581426
 20
-0.42
 30
0.0
 11
0.581426
 21
-0.42
 31
0.0
  0
LINE
  5
3D82
  8
0
 62
     0
 10
-0.575652
 20
-0.43
 30
0.0
 11
0.575652
 21
-0.43
 31
0.0
  0
LINE
  5
3D83
  8
0
 62
     0
 10
-0.569083
 20
-0.44
 30
0.0
 11
0.569083
 21
-0.44
 31
0.0
  0
LINE
  5
3D84
  8
0
 62
     0
 10
-0.559083
 20
-0.45
 30
0.0
 11
0.559083
 21
-0.45
 31
0.0
  0
LINE
  5
3D85
  8
0
 62
     0
 10
-0.549083
 20
-0.46
 30
0.0
 11
0.549083
 21
-0.46
 31
0.0
  0
LINE
  5
3D86
  8
0
 62
     0
 10
-0.539083
 20
-0.47
 30
0.0
 11
0.539083
 21
-0.47
 31
0.0
  0
LINE
  5
3D87
  8
0
 62
     0
 10
-0.529083
 20
-0.48
 30
0.0
 11
0.529083
 21
-0.48
 31
0.0
  0
LINE
  5
3D88
  8
0
 62
     0
 10
-0.519083
 20
-0.49
 30
0.0
 11
0.519083
 21
-0.49
 31
0.0
  0
LINE
  5
3D89
  8
0
 62
     0
 10
-0.509083
 20
-0.5
 30
0.0
 11
0.509083
 21
-0.5
 31
0.0
  0
LINE
  5
3D8A
  8
0
 62
     0
 10
-0.499083
 20
-0.51
 30
0.0
 11
0.499083
 21
-0.51
 31
0.0
  0
LINE
  5
3D8B
  8
0
 62
     0
 10
-0.489083
 20
-0.52
 30
0.0
 11
0.489083
 21
-0.52
 31
0.0
  0
LINE
  5
3D8C
  8
0
 62
     0
 10
-0.479083
 20
-0.53
 30
0.0
 11
0.479083
 21
-0.53
 31
0.0
  0
LINE
  5
3D8D
  8
0
 62
     0
 10
-0.469083
 20
-0.54
 30
0.0
 11
0.469083
 21
-0.54
 31
0.0
  0
LINE
  5
3D8E
  8
0
 62
     0
 10
-0.459083
 20
-0.55
 30
0.0
 11
0.459083
 21
-0.55
 31
0.0
  0
LINE
  5
3D8F
  8
0
 62
     0
 10
-0.449083
 20
-0.56
 30
0.0
 11
0.449083
 21
-0.56
 31
0.0
  0
LINE
  5
3D90
  8
0
 62
     0
 10
-0.439083
 20
-0.57
 30
0.0
 11
0.439083
 21
-0.57
 31
0.0
  0
LINE
  5
3D91
  8
0
 62
     0
 10
-0.422469
 20
-0.58
 30
0.0
 11
0.422469
 21
-0.58
 31
0.0
  0
LINE
  5
3D92
  8
0
 62
     0
 10
-0.405149
 20
-0.59
 30
0.0
 11
0.405149
 21
-0.59
 31
0.0
  0
LINE
  5
3D93
  8
0
 62
     0
 10
-0.387828
 20
-0.6
 30
0.0
 11
0.387828
 21
-0.6
 31
0.0
  0
LINE
  5
3D94
  8
0
 62
     0
 10
-0.370508
 20
-0.61
 30
0.0
 11
0.370508
 21
-0.61
 31
0.0
  0
LINE
  5
3D95
  8
0
 62
     0
 10
-0.353187
 20
-0.62
 30
0.0
 11
0.353187
 21
-0.62
 31
0.0
  0
LINE
  5
3D96
  8
0
 62
     0
 10
-0.335867
 20
-0.63
 30
0.0
 11
0.335867
 21
-0.63
 31
0.0
  0
LINE
  5
3D97
  8
0
 62
     0
 10
-0.318546
 20
-0.64
 30
0.0
 11
0.318546
 21
-0.64
 31
0.0
  0
LINE
  5
3D98
  8
0
 62
     0
 10
-0.301226
 20
-0.65
 30
0.0
 11
0.301226
 21
-0.65
 31
0.0
  0
LINE
  5
3D99
  8
0
 62
     0
 10
-0.283905
 20
-0.66
 30
0.0
 11
0.283905
 21
-0.66
 31
0.0
  0
LINE
  5
3D9A
  8
0
 62
     0
 10
-0.256391
 20
-0.67
 30
0.0
 11
0.256391
 21
-0.67
 31
0.0
  0
LINE
  5
3D9B
  8
0
 62
     0
 10
-0.219071
 20
-0.68
 30
0.0
 11
0.219071
 21
-0.68
 31
0.0
  0
LINE
  5
3D9C
  8
0
 62
     0
 10
-0.18175
 20
-0.69
 30
0.0
 11
0.18175
 21
-0.69
 31
0.0
  0
LINE
  5
3D9D
  8
0
 62
     0
 10
-0.14443
 20
-0.7
 30
0.0
 11
0.14443
 21
-0.7
 31
0.0
  0
LINE
  5
3D9E
  8
0
 62
     0
 10
-0.107109
 20
-0.71
 30
0.0
 11
0.107109
 21
-0.71
 31
0.0
  0
LINE
  5
3D9F
  8
0
 62
     0
 10
0.0
 20
-0.713529
 30
0.0
 11
0.0
 21
0.0
 31
0.0
  0
LINE
  5
3DA0
  8
0
 62
     0
 10
-0.01
 20
-0.713529
 30
0.0
 11
-0.01
 21
0.0
 31
0.0
  0
LINE
  5
3DA1
  8
0
 62
     0
 10
-0.02
 20
-0.713529
 30
0.0
 11
-0.02
 21
0.0
 31
0.0
  0
LINE
  5
3DA2
  8
0
 62
     0
 10
-0.03
 20
-0.713529
 30
0.0
 11
-0.03
 21
0.0
 31
0.0
  0
LINE
  5
3DA3
  8
0
 62
     0
 10
-0.04
 20
-0.713529
 30
0.0
 11
-0.04
 21
0.0
 31
0.0
  0
LINE
  5
3DA4
  8
0
 62
     0
 10
-0.05
 20
-0.713529
 30
0.0
 11
-0.05
 21
0.0
 31
0.0
  0
LINE
  5
3DA5
  8
0
 62
     0
 10
-0.06
 20
-0.713529
 30
0.0
 11
-0.06
 21
0.0
 31
0.0
  0
LINE
  5
3DA6
  8
0
 62
     0
 10
-0.07
 20
-0.713529
 30
0.0
 11
-0.07
 21
0.0
 31
0.0
  0
LINE
  5
3DA7
  8
0
 62
     0
 10
-0.08
 20
-0.713529
 30
0.0
 11
-0.08
 21
0.0
 31
0.0
  0
LINE
  5
3DA8
  8
0
 62
     0
 10
-0.09
 20
-0.713529
 30
0.0
 11
-0.09
 21
0.0
 31
0.0
  0
LINE
  5
3DA9
  8
0
 62
     0
 10
-0.1
 20
-0.711905
 30
0.0
 11
-0.1
 21
0.0
 31
0.0
  0
LINE
  5
3DAA
  8
0
 62
     0
 10
-0.11
 20
-0.709225
 30
0.0
 11
-0.11
 21
0.0
 31
0.0
  0
LINE
  5
3DAB
  8
0
 62
     0
 10
-0.12
 20
-0.706546
 30
0.0
 11
-0.12
 21
0.0
 31
0.0
  0
LINE
  5
3DAC
  8
0
 62
     0
 10
-0.13
 20
-0.703866
 30
0.0
 11
-0.13
 21
0.0
 31
0.0
  0
LINE
  5
3DAD
  8
0
 62
     0
 10
-0.14
 20
-0.701187
 30
0.0
 11
-0.14
 21
0.0
 31
0.0
  0
LINE
  5
3DAE
  8
0
 62
     0
 10
-0.15
 20
-0.698508
 30
0.0
 11
-0.15
 21
0.0
 31
0.0
  0
LINE
  5
3DAF
  8
0
 62
     0
 10
-0.16
 20
-0.695828
 30
0.0
 11
-0.16
 21
0.0
 31
0.0
  0
LINE
  5
3DB0
  8
0
 62
     0
 10
-0.17
 20
-0.693149
 30
0.0
 11
-0.17
 21
0.0
 31
0.0
  0
LINE
  5
3DB1
  8
0
 62
     0
 10
-0.18
 20
-0.690469
 30
0.0
 11
-0.18
 21
0.0
 31
0.0
  0
LINE
  5
3DB2
  8
0
 62
     0
 10
-0.19
 20
-0.68779
 30
0.0
 11
-0.19
 21
0.0
 31
0.0
  0
LINE
  5
3DB3
  8
0
 62
     0
 10
-0.2
 20
-0.68511
 30
0.0
 11
-0.2
 21
0.0
 31
0.0
  0
LINE
  5
3DB4
  8
0
 62
     0
 10
-0.21
 20
-0.682431
 30
0.0
 11
-0.21
 21
0.0
 31
0.0
  0
LINE
  5
3DB5
  8
0
 62
     0
 10
-0.22
 20
-0.679751
 30
0.0
 11
-0.22
 21
0.0
 31
0.0
  0
LINE
  5
3DB6
  8
0
 62
     0
 10
-0.23
 20
-0.677072
 30
0.0
 11
-0.23
 21
0.0
 31
0.0
  0
LINE
  5
3DB7
  8
0
 62
     0
 10
-0.24
 20
-0.674392
 30
0.0
 11
-0.24
 21
0.0
 31
0.0
  0
LINE
  5
3DB8
  8
0
 62
     0
 10
-0.25
 20
-0.671713
 30
0.0
 11
-0.25
 21
0.0
 31
0.0
  0
LINE
  5
3DB9
  8
0
 62
     0
 10
-0.26
 20
-0.669033
 30
0.0
 11
-0.26
 21
0.0
 31
0.0
  0
LINE
  5
3DBA
  8
0
 62
     0
 10
-0.27
 20
-0.666354
 30
0.0
 11
-0.27
 21
0.0
 31
0.0
  0
LINE
  5
3DBB
  8
0
 62
     0
 10
-0.28
 20
-0.662255
 30
0.0
 11
-0.28
 21
0.0
 31
0.0
  0
LINE
  5
3DBC
  8
0
 62
     0
 10
-0.29
 20
-0.656481
 30
0.0
 11
-0.29
 21
0.0
 31
0.0
  0
LINE
  5
3DBD
  8
0
 62
     0
 10
-0.3
 20
-0.650708
 30
0.0
 11
-0.3
 21
0.0
 31
0.0
  0
LINE
  5
3DBE
  8
0
 62
     0
 10
-0.31
 20
-0.644934
 30
0.0
 11
-0.31
 21
0.0
 31
0.0
  0
LINE
  5
3DBF
  8
0
 62
     0
 10
-0.32
 20
-0.639161
 30
0.0
 11
-0.32
 21
0.0
 31
0.0
  0
LINE
  5
3DC0
  8
0
 62
     0
 10
-0.33
 20
-0.633387
 30
0.0
 11
-0.33
 21
0.0
 31
0.0
  0
LINE
  5
3DC1
  8
0
 62
     0
 10
-0.34
 20
-0.627614
 30
0.0
 11
-0.34
 21
0.0
 31
0.0
  0
LINE
  5
3DC2
  8
0
 62
     0
 10
-0.35
 20
-0.62184
 30
0.0
 11
-0.35
 21
0.0
 31
0.0
  0
LINE
  5
3DC3
  8
0
 62
     0
 10
-0.36
 20
-0.616067
 30
0.0
 11
-0.36
 21
0.0
 31
0.0
  0
LINE
  5
3DC4
  8
0
 62
     0
 10
-0.37
 20
-0.610293
 30
0.0
 11
-0.37
 21
0.0
 31
0.0
  0
LINE
  5
3DC5
  8
0
 62
     0
 10
-0.38
 20
-0.60452
 30
0.0
 11
-0.38
 21
0.0
 31
0.0
  0
LINE
  5
3DC6
  8
0
 62
     0
 10
-0.39
 20
-0.598746
 30
0.0
 11
-0.39
 21
0.0
 31
0.0
  0
LINE
  5
3DC7
  8
0
 62
     0
 10
-0.4
 20
-0.592973
 30
0.0
 11
-0.4
 21
0.0
 31
0.0
  0
LINE
  5
3DC8
  8
0
 62
     0
 10
-0.41
 20
-0.587199
 30
0.0
 11
-0.41
 21
0.0
 31
0.0
  0
LINE
  5
3DC9
  8
0
 62
     0
 10
-0.42
 20
-0.581426
 30
0.0
 11
-0.42
 21
0.0
 31
0.0
  0
LINE
  5
3DCA
  8
0
 62
     0
 10
-0.43
 20
-0.575652
 30
0.0
 11
-0.43
 21
0.0
 31
0.0
  0
LINE
  5
3DCB
  8
0
 62
     0
 10
-0.44
 20
-0.569083
 30
0.0
 11
-0.44
 21
0.0
 31
0.0
  0
LINE
  5
3DCC
  8
0
 62
     0
 10
-0.45
 20
-0.559083
 30
0.0
 11
-0.45
 21
0.0
 31
0.0
  0
LINE
  5
3DCD
  8
0
 62
     0
 10
-0.46
 20
-0.549083
 30
0.0
 11
-0.46
 21
0.0
 31
0.0
  0
LINE
  5
3DCE
  8
0
 62
     0
 10
-0.47
 20
-0.539083
 30
0.0
 11
-0.47
 21
0.0
 31
0.0
  0
LINE
  5
3DCF
  8
0
 62
     0
 10
-0.48
 20
-0.529083
 30
0.0
 11
-0.48
 21
0.0
 31
0.0
  0
LINE
  5
3DD0
  8
0
 62
     0
 10
-0.49
 20
-0.519083
 30
0.0
 11
-0.49
 21
0.0
 31
0.0
  0
LINE
  5
3DD1
  8
0
 62
     0
 10
-0.5
 20
-0.509083
 30
0.0
 11
-0.5
 21
0.0
 31
0.0
  0
LINE
  5
3DD2
  8
0
 62
     0
 10
-0.51
 20
-0.499083
 30
0.0
 11
-0.51
 21
0.0
 31
0.0
  0
LINE
  5
3DD3
  8
0
 62
     0
 10
-0.52
 20
-0.489083
 30
0.0
 11
-0.52
 21
0.0
 31
0.0
  0
LINE
  5
3DD4
  8
0
 62
     0
 10
-0.53
 20
-0.479083
 30
0.0
 11
-0.53
 21
0.0
 31
0.0
  0
LINE
  5
3DD5
  8
0
 62
     0
 10
-0.54
 20
-0.469083
 30
0.0
 11
-0.54
 21
0.0
 31
0.0
  0
LINE
  5
3DD6
  8
0
 62
     0
 10
-0.55
 20
-0.459083
 30
0.0
 11
-0.55
 21
0.0
 31
0.0
  0
LINE
  5
3DD7
  8
0
 62
     0
 10
-0.56
 20
-0.449083
 30
0.0
 11
-0.56
 21
0.0
 31
0.0
  0
LINE
  5
3DD8
  8
0
 62
     0
 10
-0.57
 20
-0.439083
 30
0.0
 11
-0.57
 21
0.0
 31
0.0
  0
LINE
  5
3DD9
  8
0
 62
     0
 10
-0.58
 20
-0.422469
 30
0.0
 11
-0.58
 21
0.0
 31
0.0
  0
LINE
  5
3DDA
  8
0
 62
     0
 10
-0.59
 20
-0.405149
 30
0.0
 11
-0.59
 21
0.0
 31
0.0
  0
LINE
  5
3DDB
  8
0
 62
     0
 10
-0.6
 20
-0.387828
 30
0.0
 11
-0.6
 21
0.0
 31
0.0
  0
LINE
  5
3DDC
  8
0
 62
     0
 10
-0.61
 20
-0.370508
 30
0.0
 11
-0.61
 21
0.0
 31
0.0
  0
LINE
  5
3DDD
  8
0
 62
     0
 10
-0.62
 20
-0.353187
 30
0.0
 11
-0.62
 21
0.0
 31
0.0
  0
LINE
  5
3DDE
  8
0
 62
     0
 10
-0.63
 20
-0.335867
 30
0.0
 11
-0.63
 21
0.0
 31
0.0
  0
LINE
  5
3DDF
  8
0
 62
     0
 10
-0.64
 20
-0.318546
 30
0.0
 11
-0.64
 21
0.0
 31
0.0
  0
LINE
  5
3DE0
  8
0
 62
     0
 10
-0.65
 20
-0.301226
 30
0.0
 11
-0.65
 21
0.0
 31
0.0
  0
LINE
  5
3DE1
  8
0
 62
     0
 10
-0.66
 20
-0.283905
 30
0.0
 11
-0.66
 21
0.0
 31
0.0
  0
LINE
  5
3DE2
  8
0
 62
     0
 10
-0.67
 20
-0.256391
 30
0.0
 11
-0.67
 21
0.0
 31
0.0
  0
LINE
  5
3DE3
  8
0
 62
     0
 10
-0.68
 20
-0.219071
 30
0.0
 11
-0.68
 21
0.0
 31
0.0
  0
LINE
  5
3DE4
  8
0
 62
     0
 10
-0.69
 20
-0.18175
 30
0.0
 11
-0.69
 21
0.0
 31
0.0
  0
LINE
  5
3DE5
  8
0
 62
     0
 10
-0.7
 20
-0.14443
 30
0.0
 11
-0.7
 21
0.0
 31
0.0
  0
LINE
  5
3DE6
  8
0
 62
     0
 10
-0.71
 20
-0.107109
 30
0.0
 11
-0.71
 21
0.0
 31
0.0
  0
LINE
  5
3DE7
  8
0
 62
     0
 10
0.01
 20
-0.713529
 30
0.0
 11
0.01
 21
0.0
 31
0.0
  0
LINE
  5
3DE8
  8
0
 62
     0
 10
0.02
 20
-0.713529
 30
0.0
 11
0.02
 21
0.0
 31
0.0
  0
LINE
  5
3DE9
  8
0
 62
     0
 10
0.03
 20
-0.713529
 30
0.0
 11
0.03
 21
0.0
 31
0.0
  0
LINE
  5
3DEA
  8
0
 62
     0
 10
0.04
 20
-0.713529
 30
0.0
 11
0.04
 21
0.0
 31
0.0
  0
LINE
  5
3DEB
  8
0
 62
     0
 10
0.05
 20
-0.713529
 30
0.0
 11
0.05
 21
0.0
 31
0.0
  0
LINE
  5
3DEC
  8
0
 62
     0
 10
0.06
 20
-0.713529
 30
0.0
 11
0.06
 21
0.0
 31
0.0
  0
LINE
  5
3DED
  8
0
 62
     0
 10
0.07
 20
-0.713529
 30
0.0
 11
0.07
 21
0.0
 31
0.0
  0
LINE
  5
3DEE
  8
0
 62
     0
 10
0.08
 20
-0.713529
 30
0.0
 11
0.08
 21
0.0
 31
0.0
  0
LINE
  5
3DEF
  8
0
 62
     0
 10
0.09
 20
-0.713529
 30
0.0
 11
0.09
 21
0.0
 31
0.0
  0
LINE
  5
3DF0
  8
0
 62
     0
 10
0.1
 20
-0.711905
 30
0.0
 11
0.1
 21
0.0
 31
0.0
  0
LINE
  5
3DF1
  8
0
 62
     0
 10
0.11
 20
-0.709225
 30
0.0
 11
0.11
 21
0.0
 31
0.0
  0
LINE
  5
3DF2
  8
0
 62
     0
 10
0.12
 20
-0.706546
 30
0.0
 11
0.12
 21
0.0
 31
0.0
  0
LINE
  5
3DF3
  8
0
 62
     0
 10
0.13
 20
-0.703866
 30
0.0
 11
0.13
 21
0.0
 31
0.0
  0
LINE
  5
3DF4
  8
0
 62
     0
 10
0.14
 20
-0.701187
 30
0.0
 11
0.14
 21
0.0
 31
0.0
  0
LINE
  5
3DF5
  8
0
 62
     0
 10
0.15
 20
-0.698508
 30
0.0
 11
0.15
 21
0.0
 31
0.0
  0
LINE
  5
3DF6
  8
0
 62
     0
 10
0.16
 20
-0.695828
 30
0.0
 11
0.16
 21
0.0
 31
0.0
  0
LINE
  5
3DF7
  8
0
 62
     0
 10
0.17
 20
-0.693149
 30
0.0
 11
0.17
 21
0.0
 31
0.0
  0
LINE
  5
3DF8
  8
0
 62
     0
 10
0.18
 20
-0.690469
 30
0.0
 11
0.18
 21
0.0
 31
0.0
  0
LINE
  5
3DF9
  8
0
 62
     0
 10
0.19
 20
-0.68779
 30
0.0
 11
0.19
 21
0.0
 31
0.0
  0
LINE
  5
3DFA
  8
0
 62
     0
 10
0.2
 20
-0.68511
 30
0.0
 11
0.2
 21
0.0
 31
0.0
  0
LINE
  5
3DFB
  8
0
 62
     0
 10
0.21
 20
-0.682431
 30
0.0
 11
0.21
 21
0.0
 31
0.0
  0
LINE
  5
3DFC
  8
0
 62
     0
 10
0.22
 20
-0.679751
 30
0.0
 11
0.22
 21
0.0
 31
0.0
  0
LINE
  5
3DFD
  8
0
 62
     0
 10
0.23
 20
-0.677072
 30
0.0
 11
0.23
 21
0.0
 31
0.0
  0
LINE
  5
3DFE
  8
0
 62
     0
 10
0.24
 20
-0.674392
 30
0.0
 11
0.24
 21
0.0
 31
0.0
  0
LINE
  5
3DFF
  8
0
 62
     0
 10
0.25
 20
-0.671713
 30
0.0
 11
0.25
 21
0.0
 31
0.0
  0
LINE
  5
3E00
  8
0
 62
     0
 10
0.26
 20
-0.669033
 30
0.0
 11
0.26
 21
0.0
 31
0.0
  0
LINE
  5
3E01
  8
0
 62
     0
 10
0.27
 20
-0.666354
 30
0.0
 11
0.27
 21
0.0
 31
0.0
  0
LINE
  5
3E02
  8
0
 62
     0
 10
0.28
 20
-0.662255
 30
0.0
 11
0.28
 21
0.0
 31
0.0
  0
LINE
  5
3E03
  8
0
 62
     0
 10
0.29
 20
-0.656481
 30
0.0
 11
0.29
 21
0.0
 31
0.0
  0
LINE
  5
3E04
  8
0
 62
     0
 10
0.3
 20
-0.650708
 30
0.0
 11
0.3
 21
0.0
 31
0.0
  0
LINE
  5
3E05
  8
0
 62
     0
 10
0.31
 20
-0.644934
 30
0.0
 11
0.31
 21
0.0
 31
0.0
  0
LINE
  5
3E06
  8
0
 62
     0
 10
0.32
 20
-0.639161
 30
0.0
 11
0.32
 21
0.0
 31
0.0
  0
LINE
  5
3E07
  8
0
 62
     0
 10
0.33
 20
-0.633387
 30
0.0
 11
0.33
 21
0.0
 31
0.0
  0
LINE
  5
3E08
  8
0
 62
     0
 10
0.34
 20
-0.627614
 30
0.0
 11
0.34
 21
0.0
 31
0.0
  0
LINE
  5
3E09
  8
0
 62
     0
 10
0.35
 20
-0.62184
 30
0.0
 11
0.35
 21
0.0
 31
0.0
  0
LINE
  5
3E0A
  8
0
 62
     0
 10
0.36
 20
-0.616067
 30
0.0
 11
0.36
 21
0.0
 31
0.0
  0
LINE
  5
3E0B
  8
0
 62
     0
 10
0.37
 20
-0.610293
 30
0.0
 11
0.37
 21
0.0
 31
0.0
  0
LINE
  5
3E0C
  8
0
 62
     0
 10
0.38
 20
-0.60452
 30
0.0
 11
0.38
 21
0.0
 31
0.0
  0
LINE
  5
3E0D
  8
0
 62
     0
 10
0.39
 20
-0.598746
 30
0.0
 11
0.39
 21
0.0
 31
0.0
  0
LINE
  5
3E0E
  8
0
 62
     0
 10
0.4
 20
-0.592973
 30
0.0
 11
0.4
 21
0.0
 31
0.0
  0
LINE
  5
3E0F
  8
0
 62
     0
 10
0.41
 20
-0.587199
 30
0.0
 11
0.41
 21
0.0
 31
0.0
  0
LINE
  5
3E10
  8
0
 62
     0
 10
0.42
 20
-0.581426
 30
0.0
 11
0.42
 21
0.0
 31
0.0
  0
LINE
  5
3E11
  8
0
 62
     0
 10
0.43
 20
-0.575652
 30
0.0
 11
0.43
 21
0.0
 31
0.0
  0
LINE
  5
3E12
  8
0
 62
     0
 10
0.44
 20
-0.569083
 30
0.0
 11
0.44
 21
0.0
 31
0.0
  0
LINE
  5
3E13
  8
0
 62
     0
 10
0.45
 20
-0.559083
 30
0.0
 11
0.45
 21
0.0
 31
0.0
  0
LINE
  5
3E14
  8
0
 62
     0
 10
0.46
 20
-0.549083
 30
0.0
 11
0.46
 21
0.0
 31
0.0
  0
LINE
  5
3E15
  8
0
 62
     0
 10
0.47
 20
-0.539083
 30
0.0
 11
0.47
 21
0.0
 31
0.0
  0
LINE
  5
3E16
  8
0
 62
     0
 10
0.48
 20
-0.529083
 30
0.0
 11
0.48
 21
0.0
 31
0.0
  0
LINE
  5
3E17
  8
0
 62
     0
 10
0.49
 20
-0.519083
 30
0.0
 11
0.49
 21
0.0
 31
0.0
  0
LINE
  5
3E18
  8
0
 62
     0
 10
0.5
 20
-0.509083
 30
0.0
 11
0.5
 21
0.0
 31
0.0
  0
LINE
  5
3E19
  8
0
 62
     0
 10
0.51
 20
-0.499083
 30
0.0
 11
0.51
 21
0.0
 31
0.0
  0
LINE
  5
3E1A
  8
0
 62
     0
 10
0.52
 20
-0.489083
 30
0.0
 11
0.52
 21
0.0
 31
0.0
  0
LINE
  5
3E1B
  8
0
 62
     0
 10
0.53
 20
-0.479083
 30
0.0
 11
0.53
 21
0.0
 31
0.0
  0
LINE
  5
3E1C
  8
0
 62
     0
 10
0.54
 20
-0.469083
 30
0.0
 11
0.54
 21
0.0
 31
0.0
  0
LINE
  5
3E1D
  8
0
 62
     0
 10
0.55
 20
-0.459083
 30
0.0
 11
0.55
 21
0.0
 31
0.0
  0
LINE
  5
3E1E
  8
0
 62
     0
 10
0.56
 20
-0.449083
 30
0.0
 11
0.56
 21
0.0
 31
0.0
  0
LINE
  5
3E1F
  8
0
 62
     0
 10
0.57
 20
-0.439083
 30
0.0
 11
0.57
 21
0.0
 31
0.0
  0
LINE
  5
3E20
  8
0
 62
     0
 10
0.58
 20
-0.422469
 30
0.0
 11
0.58
 21
0.0
 31
0.0
  0
LINE
  5
3E21
  8
0
 62
     0
 10
0.59
 20
-0.405149
 30
0.0
 11
0.59
 21
0.0
 31
0.0
  0
LINE
  5
3E22
  8
0
 62
     0
 10
0.6
 20
-0.387828
 30
0.0
 11
0.6
 21
0.0
 31
0.0
  0
LINE
  5
3E23
  8
0
 62
     0
 10
0.61
 20
-0.370508
 30
0.0
 11
0.61
 21
0.0
 31
0.0
  0
LINE
  5
3E24
  8
0
 62
     0
 10
0.62
 20
-0.353187
 30
0.0
 11
0.62
 21
0.0
 31
0.0
  0
LINE
  5
3E25
  8
0
 62
     0
 10
0.63
 20
-0.335867
 30
0.0
 11
0.63
 21
0.0
 31
0.0
  0
LINE
  5
3E26
  8
0
 62
     0
 10
0.64
 20
-0.318546
 30
0.0
 11
0.64
 21
0.0
 31
0.0
  0
LINE
  5
3E27
  8
0
 62
     0
 10
0.65
 20
-0.301226
 30
0.0
 11
0.65
 21
0.0
 31
0.0
  0
LINE
  5
3E28
  8
0
 62
     0
 10
0.66
 20
-0.283905
 30
0.0
 11
0.66
 21
0.0
 31
0.0
  0
LINE
  5
3E29
  8
0
 62
     0
 10
0.67
 20
-0.256391
 30
0.0
 11
0.67
 21
0.0
 31
0.0
  0
LINE
  5
3E2A
  8
0
 62
     0
 10
0.68
 20
-0.219071
 30
0.0
 11
0.68
 21
0.0
 31
0.0
  0
LINE
  5
3E2B
  8
0
 62
     0
 10
0.69
 20
-0.18175
 30
0.0
 11
0.69
 21
0.0
 31
0.0
  0
LINE
  5
3E2C
  8
0
 62
     0
 10
0.7
 20
-0.14443
 30
0.0
 11
0.7
 21
0.0
 31
0.0
  0
LINE
  5
3E2D
  8
0
 62
     0
 10
0.71
 20
-0.107109
 30
0.0
 11
0.71
 21
0.0
 31
0.0
  0
ENDBLK
  5
3E2E
  8
0
  0
BLOCK
  8
0
  2
BORLICOM
 70
     0
 10
0.0
 20
0.0
 30
0.0
  3
BORLICOM
  1

  0
POLYLINE
  5
3C9D
  8
0
 66
     1
 10
0.0
 20
0.0
 30
0.0
 70
     1
  0
VERTEX
  5
3F92
  8
0
 10
-0.1
 20
0.75
 30
0.0
  0
VERTEX
  5
3F93
  8
0
 10
-0.29
 20
0.7
 30
0.0
  0
VERTEX
  5
3F94
  8
0
 10
-0.46
 20
0.6
 30
0.0
  0
VERTEX
  5
3F95
  8
0
 10
-0.6
 20
0.46
 30
0.0
  0
VERTEX
  5
3F96
  8
0
 10
-0.7
 20
0.29
 30
0.0
  0
VERTEX
  5
3F97
  8
0
 10
-0.75
 20
0.1
 30
0.0
  0
VERTEX
  5
3F98
  8
0
 10
-0.75
 20
-0.1
 30
0.0
  0
VERTEX
  5
3F99
  8
0
 10
-0.7
 20
-0.29
 30
0.0
  0
VERTEX
  5
3F9A
  8
0
 10
-0.6
 20
-0.46
 30
0.0
  0
VERTEX
  5
3F9B
  8
0
 10
-0.46
 20
-0.6
 30
0.0
  0
VERTEX
  5
3F9C
  8
0
 10
-0.29
 20
-0.7
 30
0.0
  0
VERTEX
  5
3F9D
  8
0
 10
-0.1
 20
-0.75
 30
0.0
  0
VERTEX
  5
3F9E
  8
0
 10
0.1
 20
-0.75
 30
0.0
  0
VERTEX
  5
3F9F
  8
0
 10
0.29
 20
-0.7
 30
0.0
  0
VERTEX
  5
3FA0
  8
0
 10
0.46
 20
-0.6
 30
0.0
  0
VERTEX
  5
3FA1
  8
0
 10
0.6
 20
-0.46
 30
0.0
  0
VERTEX
  5
3FA2
  8
0
 10
0.7
 20
-0.29
 30
0.0
  0
VERTEX
  5
3FA3
  8
0
 10
0.75
 20
-0.1
 30
0.0
  0
VERTEX
  5
3FA4
  8
0
 10
0.75
 20
0.1
 30
0.0
  0
VERTEX
  5
3FA5
  8
0
 10
0.7
 20
0.29
 30
0.0
  0
VERTEX
  5
3FA6
  8
0
 10
0.6
 20
0.46
 30
0.0
  0
VERTEX
  5
3FA7
  8
0
 10
0.46
 20
0.6
 30
0.0
  0
VERTEX
  5
3FA8
  8
0
 10
0.29
 20
0.7
 30
0.0
  0
VERTEX
  5
3FA9
  8
0
 10
0.1
 20
0.75
 30
0.0
  0
SEQEND
  5
3FAA
  8
0
  0
ENDBLK
  5
3CB7
  8
0
  0
BLOCK
  8
0
  2
FLECHRU1
 70
     0
 10
0.0
 20
0.0
 30
0.0
  3
FLECHRU1
  1

  0
POINT
  5
3CBA
  8
0
 10
0.0
 20
0.0
 30
0.0
  0
ENDBLK
  5
3CBB
  8
0
  0
BLOCK
  8
0
  2
ARRET1
 70
     0
 10
0.0
 20
0.0
 30
0.0
  3
ARRET1
  1

  0
POINT
  5
3CBE
  8
0
 10
0.0
 20
0.0
 30
0.0
  0
ENDBLK
  5
3CBF
  8
0
  0
BLOCK
  8
0
  2
PYLONE1
 70
     0
 10
0.0
 20
0.0
 30
0.0
  3
PYLONE1
  1

  0
POINT
  5
3CC2
  8
0
 10
0.0
 20
0.0
 30
0.0
  0
ENDBLK
  5
3CC3
  8
0
  0
BLOCK
  8
0
  2
HALTE1
 70
     0
 10
0.0
 20
0.0
 30
0.0
  3
HALTE1
  1

  0
POINT
  5
3CC6
  8
0
 10
0.0
 20
0.0
 30
0.0
  0
ENDBLK
  5
3CC7
  8
0
  0
BLOCK
  8
0
  2
STATION1
 70
     0
 10
0.0
 20
0.0
 30
0.0
  3
STATION1
  1

  0
POINT
  5
3CCA
  8
0
 10
0.0
 20
0.0
 30
0.0
  0
ENDBLK
  5
3CCB
  8
0
  0
BLOCK
  8
0
  2
MOSQUEE
 70
     0
 10
0.0
 20
0.0
 30
0.0
  3
MOSQUEE
  1

  0
POLYLINE
  5
3CCE
  8
0
 66
     1
 10
0.0
 20
0.0
 30
0.0
 40
0.2
 41
0.2
  0
VERTEX
  5
3FAB
  8
0
 10
2.5
 20
2.5
 30
0.0
 42
1.0
  0
VERTEX
  5
3FAC
  8
0
 10
2.5
 20
-2.5
 30
0.0
 42
1.0
  0
SEQEND
  5
3FAD
  8
0
  0
POLYLINE
  5
3CD2
  8
0
 66
     1
 10
0.0
 20
0.0
 30
0.0
 40
0.2
 41
0.2
  0
VERTEX
  5
3FAE
  8
0
 10
-7.12
 20
0.0
 30
0.0
  0
VERTEX
  5
3FAF
  8
0
 10
0.0
 20
0.0
 30
0.0
  0
SEQEND
  5
3FB0
  8
0
  0
POLYLINE
  5
3CD6
  8
0
 66
     1
 10
0.0
 20
0.0
 30
0.0
 70
     1
 40
0.2
 41
0.2
  0
VERTEX
  5
3FB1
  8
0
 10
-7.42
 20
0.0
 30
0.0
 42
1.0
  0
VERTEX
  5
3FB2
  8
0
 10
-7.12
 20
0.0
 30
0.0
 42
1.0
  0
SEQEND
  5
3FB3
  8
0
  0
ENDBLK
  5
3CDA
  8
0
  0
BLOCK
  8
0
  2
SYNAGOG
 70
     0
 10
0.0
 20
0.0
 30
0.0
  3
SYNAGOG
  1

  0
POLYLINE
  5
3CDD
  8
0
 66
     1
 10
0.0
 20
0.0
 30
0.0
 70
     1
 40
0.2
 41
0.2
  0
VERTEX
  5
3FB4
  8
0
 10
0.01
 20
1.26
 30
0.0
  0
VERTEX
  5
3FB5
  8
0
 10
-1.1
 20
-0.62
 30
0.0
  0
VERTEX
  5
3FB6
  8
0
 10
1.09
 20
-0.64
 30
0.0
  0
SEQEND
  5
3FB7
  8
0
  0
POLYLINE
  5
3CE2
  8
0
 66
     1
 10
0.0
 20
0.0
 30
0.0
 70
     1
 40
0.2
 41
0.2
  0
VERTEX
  5
3FB8
  8
0
 10
-1.09
 20
0.64
 30
0.0
  0
VERTEX
  5
3FB9
  8
0
 10
1.1
 20
0.62
 30
0.0
  0
VERTEX
  5
3FBA
  8
0
 10
-0.01
 20
-1.26
 30
0.0
  0
SEQEND
  5
3FBB
  8
0
  0
ENDBLK
  5
3CE7
  8
0
  0
BLOCK
  8
0
  2
POLYGOBO
 70
     0
 10
0.0
 20
0.0
 30
0.0
  3
POLYGOBO
  1

  0
POLYLINE
  5
3CEA
  8
0
 66
     1
 10
0.0
 20
0.0
 30
0.0
 70
     1
  0
VERTEX
  5
3FBC
  8
0
 10
-0.131652
 20
1.0
 30
0.0
  0
VERTEX
  5
3FBD
  8
0
 10
-0.385986
 20
0.931852
 30
0.0
  0
VERTEX
  5
3FBE
  8
0
 10
-0.614014
 20
0.800199
 30
0.0
  0
VERTEX
  5
3FBF
  8
0
 10
-0.800199
 20
0.614014
 30
0.0
  0
VERTEX
  5
3FC0
  8
0
 10
-0.931852
 20
0.385986
 30
0.0
  0
VERTEX
  5
3FC1
  8
0
 10
-1.0
 20
0.131652
 30
0.0
  0
VERTEX
  5
3FC2
  8
0
 10
-1.0
 20
-0.131652
 30
0.0
  0
VERTEX
  5
3FC3
  8
0
 10
-0.931852
 20
-0.385986
 30
0.0
  0
VERTEX
  5
3FC4
  8
0
 10
-0.800199
 20
-0.614014
 30
0.0
  0
VERTEX
  5
3FC5
  8
0
 10
-0.614014
 20
-0.800199
 30
0.0
  0
VERTEX
  5
3FC6
  8
0
 10
-0.385986
 20
-0.931852
 30
0.0
  0
VERTEX
  5
3FC7
  8
0
 10
-0.131652
 20
-1.0
 30
0.0
  0
VERTEX
  5
3FC8
  8
0
 10
0.131652
 20
-1.0
 30
0.0
  0
VERTEX
  5
3FC9
  8
0
 10
0.385986
 20
-0.931852
 30
0.0
  0
VERTEX
  5
3FCA
  8
0
 10
0.614014
 20
-0.800199
 30
0.0
  0
VERTEX
  5
3FCB
  8
0
 10
0.800199
 20
-0.614014
 30
0.0
  0
VERTEX
  5
3FCC
  8
0
 10
0.931852
 20
-0.385986
 30
0.0
  0
VERTEX
  5
3FCD
  8
0
 10
1.0
 20
-0.131652
 30
0.0
  0
VERTEX
  5
3FCE
  8
0
 10
1.0
 20
0.131652
 30
0.0
  0
VERTEX
  5
3FCF
  8
0
 10
0.931852
 20
0.385986
 30
0.0
  0
VERTEX
  5
3FD0
  8
0
 10
0.800199
 20
0.614014
 30
0.0
  0
VERTEX
  5
3FD1
  8
0
 10
0.614014
 20
0.800199
 30
0.0
  0
VERTEX
  5
3FD2
  8
0
 10
0.385986
 20
0.931852
 30
0.0
  0
VERTEX
  5
3FD3
  8
0
 10
0.131652
 20
1.0
 30
0.0
  0
SEQEND
  5
3FD4
  8
0
  0
POLYLINE
  5
3D04
  8
0
 66
     1
 10
0.0
 20
0.0
 30
0.0
 70
     1
  0
VERTEX
  5
3FD5
  8
0
 10
-0.065826
 20
0.500025
 30
0.0
  0
VERTEX
  5
3FD6
  8
0
 10
-0.192993
 20
0.465951
 30
0.0
  0
VERTEX
  5
3FD7
  8
0
 10
-0.307007
 20
0.400125
 30
0.0
  0
VERTEX
  5
3FD8
  8
0
 10
-0.4001
 20
0.307033
 30
0.0
  0
VERTEX
  5
3FD9
  8
0
 10
-0.465926
 20
0.193018
 30
0.0
  0
VERTEX
  5
3FDA
  8
0
 10
-0.5
 20
0.065852
 30
0.0
  0
VERTEX
  5
3FDB
  8
0
 10
-0.5
 20
-0.065801
 30
0.0
  0
VERTEX
  5
3FDC
  8
0
 10
-0.465926
 20
-0.192967
 30
0.0
  0
VERTEX
  5
3FDD
  8
0
 10
-0.4001
 20
-0.306982
 30
0.0
  0
VERTEX
  5
3FDE
  8
0
 10
-0.307007
 20
-0.400074
 30
0.0
  0
VERTEX
  5
3FDF
  8
0
 10
-0.192993
 20
-0.4659
 30
0.0
  0
VERTEX
  5
3FE0
  8
0
 10
-0.065826
 20
-0.499975
 30
0.0
  0
VERTEX
  5
3FE1
  8
0
 10
0.065826
 20
-0.499975
 30
0.0
  0
VERTEX
  5
3FE2
  8
0
 10
0.192993
 20
-0.4659
 30
0.0
  0
VERTEX
  5
3FE3
  8
0
 10
0.307007
 20
-0.400074
 30
0.0
  0
VERTEX
  5
3FE4
  8
0
 10
0.4001
 20
-0.306982
 30
0.0
  0
VERTEX
  5
3FE5
  8
0
 10
0.465926
 20
-0.192967
 30
0.0
  0
VERTEX
  5
3FE6
  8
0
 10
0.5
 20
-0.065801
 30
0.0
  0
VERTEX
  5
3FE7
  8
0
 10
0.5
 20
0.065852
 30
0.0
  0
VERTEX
  5
3FE8
  8
0
 10
0.465926
 20
0.193018
 30
0.0
  0
VERTEX
  5
3FE9
  8
0
 10
0.4001
 20
0.307033
 30
0.0
  0
VERTEX
  5
3FEA
  8
0
 10
0.307007
 20
0.400125
 30
0.0
  0
VERTEX
  5
3FEB
  8
0
 10
0.192993
 20
0.465951
 30
0.0
  0
VERTEX
  5
3FEC
  8
0
 10
0.065826
 20
0.500025
 30
0.0
  0
SEQEND
  5
3FED
  8
0
  0
ENDBLK
  5
3D1E
  8
0
  0
BLOCK
  8
0
  2
POLYGOPT
 70
     0
 10
0.0
 20
0.0
 30
0.0
  3
POLYGOPT
  1

  0
POLYLINE
  5
3D21
  8
0
 66
     1
 10
0.0
 20
0.0
 30
0.0
  0
VERTEX
  5
3FEE
  8
0
 10
0.0
 20
0.5
 30
0.0
  0
VERTEX
  5
3FEF
  8
0
 10
0.0
 20
1.5
 30
0.0
  0
SEQEND
  5
3FF0
  8
0
  0
POLYLINE
  5
3D25
  8
0
 66
     1
 10
0.0
 20
0.0
 30
0.0
  0
VERTEX
  5
3FF1
  8
0
 10
0.0
 20
-1.5
 30
0.0
  0
VERTEX
  5
3FF2
  8
0
 10
0.0
 20
-0.5
 30
0.0
  0
SEQEND
  5
3FF3
  8
0
  0
POLYLINE
  5
3D29
  8
0
 66
     1
 10
0.0
 20
0.0
 30
0.0
  0
VERTEX
  5
3FF4
  8
0
 10
0.5
 20
0.0
 30
0.0
  0
VERTEX
  5
3FF5
  8
0
 10
1.5
 20
0.0
 30
0.0
  0
SEQEND
  5
3FF6
  8
0
  0
POLYLINE
  5
3D2D
  8
0
 66
     1
 10
0.0
 20
0.0
 30
0.0
  0
VERTEX
  5
3FF7
  8
0
 10
-1.5
 20
0.0
 30
0.0
  0
VERTEX
  5
3FF8
  8
0
 10
-0.5
 20
0.0
 30
0.0
  0
SEQEND
  5
3FF9
  8
0
  0
POLYLINE
  5
3D31
  8
0
 66
     1
 10
0.0
 20
0.0
 30
0.0
 70
     1
 40
0.1
 41
0.1
  0
VERTEX
  5
3FFA
  8
0
 10
-0.05
 20
0.0
 30
0.0
 42
1.0
  0
VERTEX
  5
3FFB
  8
0
 10
0.05
 20
0.0
 30
0.0
 42
1.0
  0
SEQEND
  5
3FFC
  8
0
  0
ENDBLK
  5
3D35
  8
0
  0
BLOCK
  8
0
  2
PUITS
 70
     0
 10
0.0
 20
0.0
 30
0.0
  3
PUITS
  1

  0
LINE
  5
3D38
  8
0
 10
0.6
 20
0.0
 30
0.0
 11
0.6
 21
0.0
 31
0.0
  0
CIRCLE
  5
3D39
  8
0
 10
0.0
 20
0.0
 30
0.0
 40
1.0
  0
CIRCLE
  5
3D3A
  8
0
 10
0.0
 20
0.0
 30
0.0
 40
0.8
  0
POLYLINE
  5
3D3B
  8
0
 66
     1
 10
0.0
 20
0.0
 30
0.0
  0
VERTEX
  5
3FFD
  8
0
 10
-1.0
 20
0.0
 30
0.0
  0
VERTEX
  5
3FFE
  8
0
 10
1.2
 20
0.0
 30
0.0
  0
VERTEX
  5
3FFF
  8
0
 10
1.2
 20
-0.8
 30
0.0
  0
VERTEX
  5
4000
  8
0
 10
1.4
 20
-0.8
 30
0.0
  0
SEQEND
  5
4001
  8
0
  0
ENDBLK
  5
3D41
  8
0
  0
BLOCK
  8
0
  2
CROIX
 70
     0
 10
0.0
 20
0.0
 30
0.0
  3
CROIX
  1

  0
CIRCLE
  5
3D44
  8
0
 10
0.0
 20
0.0
 30
0.0
 40
0.5
  0
LINE
  5
3D45
  8
0
 10
-0.353553
 20
-0.353553
 30
0.0
 11
0.353553
 21
0.353553
 31
0.0
  0
LINE
  5
3D46
  8
0
 10
-0.353553
 20
0.353553
 30
0.0
 11
0.353553
 21
-0.353553
 31
0.0
  0
ENDBLK
  5
3D47
  8
0
  0
BLOCK
  8
0
  2
BOULON
 70
     0
 10
0.0
 20
0.0
 30
0.0
  3
BOULON
  1

  0
CIRCLE
  5
3D4A
  8
0
 10
0.0
 20
0.0
 30
0.0
 40
0.01
  0
CIRCLE
  5
3D4B
  8
0
 10
0.0
 20
0.0
 30
0.0
 40
0.009
  0
CIRCLE
  5
3D4C
  8
0
 10
0.0
 20
0.0
 30
0.0
 40
0.008
  0
CIRCLE
  5
3D4D
  8
0
 10
0.0
 20
0.0
 30
0.0
 40
0.007
  0
CIRCLE
  5
3D4E
  8
0
 10
0.0
 20
0.0
 30
0.0
 40
0.006
  0
CIRCLE
  5
3D4F
  8
0
 10
0.0
 20
0.0
 30
0.0
 40
0.005
  0
CIRCLE
  5
3D50
  8
0
 10
0.0
 20
0.0
 30
0.0
 40
0.004
  0
CIRCLE
  5
3D51
  8
0
 10
0.0
 20
0.0
 30
0.0
 40
0.003
  0
CIRCLE
  5
3D52
  8
0
 10
0.0
 20
0.0
 30
0.0
 40
0.002
  0
CIRCLE
  5
3D53
  8
0
 10
0.0
 20
0.0
 30
0.0
 40
0.001
  0
LINE
  5
3D54
  8
0
 10
0.0
 20
0.2
 30
0.0
 11
0.5
 21
0.0
 31
0.0
  0
LINE
  5
3D55
  8
0
 10
0.0
 20
-0.2
 30
0.0
 11
0.5
 21
0.0
 31
0.0
  0
ENDBLK
  5
3D56
  8
0
  0
BLOCK
  5
4008
   8
0
   2
TEXT
  70
     66
  10
0.0
  20
0.0
  30
0.0
   0
POINT
  5
4009
   8
0
  10
0.0
  20
0.0
  30
0.0
   0
ENDBLK
  5
400a
   8
0
   0
BLOCK
  5
400b
   8
0
   2
CADORDB
  70
     66
  10
0.0
  20
0.0
  30
0.0
   0
POINT
  5
400c
   8
0
  10
0.0
  20
0.0
  30
0.0
   0
ENDBLK
  5
400d
   8
0
   0
BLOCK
  5
400e
   8
0
   2
CADPEREN
  70
     66
  10
0.0
  20
0.0
  30
0.0
   0
POINT
  5
400f
   8
0
  10
0.0
  20
0.0
  30
0.0
   0
ENDBLK
  5
4010
   8
0
   0
BLOCK
  5
4011
   8
0
   2
CADAPPDV
  70
     66
  10
0.0
  20
0.0
  30
0.0
   0
POINT
  5
4012
   8
0
  10
0.0
  20
0.0
  30
0.0
   0
ENDBLK
  5
4013
   8
0
   0
BLOCK
  5
4014
   8
0
   2
CADAPGEO
  70
     66
  10
0.0
  20
0.0
  30
0.0
   0
POINT
  5
4015
   8
0
  10
0.0
  20
0.0
  30
0.0
   0
ENDBLK
  5
4016
   8
0
   0
BLOCK
  5
4017
   8
0
   2
PONCTDIVERS
  70
     66
  10
0.0
  20
0.0
  30
0.0
   0
POINT
  5
4018
   8
0
  10
0.0
  20
0.0
  30
0.0
   0
ENDBLK
  5
4019
   8
0
   0
ENDSEC
  0
SECTION
  2
ENTITIES
  0
POLYLINE
  5
401a
  8
1SUBDSECT
 66
    1
 10
0.0
 20
0.0
 30
0.0
 70
     1
1001
QUPL
1000
05
1001
COPL
1000
05
1001
EOR
1000
2000
1001
ICL
1000
+0.00
1001
INP
1000
01
1001
DIS
1000
05/03/2002
1001
DEDI
1000
01/01/1985
1001
DRED
1000
01/01/1985
1001
IDU
1000
003000AA01
  0
VERTEX
  8
1SUBDSECT
  5
401b
 10
423576.420000
 20
6438181.910000
 30
0.000000
  0
VERTEX
  8
1SUBDSECT
  5
401c
 10
423576.300000
 20
6438184.290000
 30
0.000000
  0
VERTEX
  8
1SUBDSECT
  5
401d
 10
423433.730000
 20
6438204.660000
 30
0.000000
  0
VERTEX
  8
1SUBDSECT
  5
401e
 10
423353.210000
 20
6438215.240000
 30
0.000000
  0
VERTEX
  8
1SUBDSECT
  5
401f
 10
423275.400000
 20
6438226.300000
 30
0.000000
  0
VERTEX
  8
1SUBDSECT
  5
4020
 10
423215.900000
 20
6438233.650000
 30
0.000000
  0
VERTEX
  8
1SUBDSECT
  5
4021
 10
423141.330000
 20
6438244.000000
 30
0.000000
  0
VERTEX
  8
1SUBDSECT
  5
4022
 10
423052.730000
 20
6438256.150000
 30
0.000000
  0
VERTEX
  8
1SUBDSECT
  5
4023
 10
423013.230000
 20
6438261.560000
 30
0.000000
  0
VERTEX
  8
1SUBDSECT
  5
4024
 10
422871.530000
 20
6438279.430000
 30
0.000000
  0
VERTEX
  8
1SUBDSECT
  5
4025
 10
422864.740000
 20
6438277.800000
 30
0.000000
  0
VERTEX
  8
1SUBDSECT
  5
4026
 10
422866.080000
 20
6438272.120000
 30
0.000000
  0
VERTEX
  8
1SUBDSECT
  5
4027
 10
422877.190000
 20
6438224.760000
 30
0.000000
  0
VERTEX
  8
1SUBDSECT
  5
4028
 10
422939.760000
 20
6437958.020000
 30
0.000000
  0
VERTEX
  8
1SUBDSECT
  5
4029
 10
422786.710000
 20
6438001.260000
 30
0.000000
  0
VERTEX
  8
1SUBDSECT
  5
402a
 10
422737.360000
 20
6438015.060000
 30
0.000000
  0
VERTEX
  8
1SUBDSECT
  5
402b
 10
422717.370000
 20
6438020.920000
 30
0.000000
  0
VERTEX
  8
1SUBDSECT
  5
402c
 10
422717.890000
 20
6438010.980000
 30
0.000000
  0
VERTEX
  8
1SUBDSECT
  5
402d
 10
422712.790000
 20
6437636.640000
 30
0.000000
  0
VERTEX
  8
1SUBDSECT
  5
402e
 10
422712.300000
 20
6437610.150000
 30
0.000000
  0
VERTEX
  8
1SUBDSECT
  5
402f
 10
422720.250000
 20
6437610.550000
 30
0.000000
  0
VERTEX
  8
1SUBDSECT
  5
4030
 10
422732.430000
 20
6437627.520000
 30
0.000000
  0
VERTEX
  8
1SUBDSECT
  5
4031
 10
422746.880000
 20
6437647.990000
 30
0.000000
  0
VERTEX
  8
1SUBDSECT
  5
4032
 10
422886.400000
 20
6437665.970000
 30
0.000000
  0
VERTEX
  8
1SUBDSECT
  5
4033
 10
422970.540000
 20
6437676.850000
 30
0.000000
  0
VERTEX
  8
1SUBDSECT
  5
4034
 10
422981.640000
 20
6437678.300000
 30
0.000000
  0
VERTEX
  8
1SUBDSECT
  5
4035
 10
422999.320000
 20
6437680.730000
 30
0.000000
  0
VERTEX
  8
1SUBDSECT
  5
4036
 10
423111.060000
 20
6437695.960000
 30
0.000000
  0
VERTEX
  8
1SUBDSECT
  5
4037
 10
423171.680000
 20
6437703.890000
 30
0.000000
  0
VERTEX
  8
1SUBDSECT
  5
4038
 10
423175.460000
 20
6437610.200000
 30
0.000000
  0
VERTEX
  8
1SUBDSECT
  5
4039
 10
423180.040000
 20
6437508.260000
 30
0.000000
  0
VERTEX
  8
1SUBDSECT
  5
403a
 10
423182.150000
 20
6437455.610000
 30
0.000000
  0
VERTEX
  8
1SUBDSECT
  5
403b
 10
423198.830000
 20
6437457.530000
 30
0.000000
  0
VERTEX
  8
1SUBDSECT
  5
403c
 10
423252.780000
 20
6437463.940000
 30
0.000000
  0
VERTEX
  8
1SUBDSECT
  5
403d
 10
423348.330000
 20
6437475.580000
 30
0.000000
  0
VERTEX
  8
1SUBDSECT
  5
403e
 10
423476.200000
 20
6437491.010000
 30
0.000000
  0
VERTEX
  8
1SUBDSECT
  5
403f
 10
423556.780000
 20
6437500.660000
 30
0.000000
  0
VERTEX
  8
1SUBDSECT
  5
4040
 10
423590.260000
 20
6437504.630000
 30
0.000000
  0
VERTEX
  8
1SUBDSECT
  5
4041
 10
423614.750000
 20
6437507.690000
 30
0.000000
  0
VERTEX
  8
1SUBDSECT
  5
4042
 10
423699.800000
 20
6437518.810000
 30
0.000000
  0
VERTEX
  8
1SUBDSECT
  5
4043
 10
423798.380000
 20
6437530.770000
 30
0.000000
  0
VERTEX
  8
1SUBDSECT
  5
4044
 10
423824.760000
 20
6437534.010000
 30
0.000000
  0
VERTEX
  8
1SUBDSECT
  5
4045
 10
423927.930000
 20
6437546.800000
 30
0.000000
  0
VERTEX
  8
1SUBDSECT
  5
4046
 10
424090.160000
 20
6437566.630000
 30
0.000000
  0
VERTEX
  8
1SUBDSECT
  5
4047
 10
424117.620000
 20
6437570.840000
 30
0.000000
  0
VERTEX
  8
1SUBDSECT
  5
4048
 10
424068.880000
 20
6437840.300000
 30
0.000000
  0
VERTEX
  8
1SUBDSECT
  5
4049
 10
423632.220000
 20
6437921.580000
 30
0.000000
  0
VERTEX
  8
1SUBDSECT
  5
404a
 10
423627.840000
 20
6437928.680000
 30
0.000000
  0
VERTEX
  8
1SUBDSECT
  5
404b
 10
423627.890000
 20
6437929.140000
 30
0.000000
  0
VERTEX
  8
1SUBDSECT
  5
404c
 10
423627.910000
 20
6437929.590000
 30
0.000000
  0
VERTEX
  8
1SUBDSECT
  5
404d
 10
423627.890000
 20
6437930.050000
 30
0.000000
  0
VERTEX
  8
1SUBDSECT
  5
404e
 10
423627.810000
 20
6437930.510000
 30
0.000000
  0
VERTEX
  8
1SUBDSECT
  5
404f
 10
423602.600000
 20
6438114.620000
 30
0.000000
  0
VERTEX
  8
1SUBDSECT
  5
4050
 10
423601.160000
 20
6438127.140000
 30
0.000000
  0
VERTEX
  8
1SUBDSECT
  5
4051
 10
423585.810000
 20
6438124.990000
 30
0.000000
  0
VERTEX
  8
1SUBDSECT
  5
4052
 10
423584.390000
 20
6438124.990000
 30
0.000000
  0
VERTEX
  8
1SUBDSECT
  5
4053
 10
423582.340000
 20
6438124.970000
 30
0.000000
  0
VERTEX
  8
1SUBDSECT
  5
4054
 10
423581.720000
 20
6438125.200000
 30
0.000000
  0
VERTEX
  8
1SUBDSECT
  5
4055
 10
423581.460000
 20
6438125.330000
 30
0.000000
  0
VERTEX
  8
1SUBDSECT
  5
4056
 10
423581.210000
 20
6438125.480000
 30
0.000000
  0
VERTEX
  8
1SUBDSECT
  5
4057
 10
423580.970000
 20
6438125.640000
 30
0.000000
  0
VERTEX
  8
1SUBDSECT
  5
4058
 10
423580.740000
 20
6438125.810000
 30
0.000000
  0
VERTEX
  8
1SUBDSECT
  5
4059
 10
423580.520000
 20
6438126.000000
 30
0.000000
  0
VERTEX
  8
1SUBDSECT
  5
405a
 10
423580.310000
 20
6438126.200000
 30
0.000000
  0
VERTEX
  8
1SUBDSECT
  5
405b
 10
423580.100000
 20
6438126.400000
 30
0.000000
  0
VERTEX
  8
1SUBDSECT
  5
405c
 10
423579.910000
 20
6438126.620000
 30
0.000000
  0
VERTEX
  8
1SUBDSECT
  5
405d
 10
423579.720000
 20
6438126.840000
 30
0.000000
  0
VERTEX
  8
1SUBDSECT
  5
405e
 10
423579.560000
 20
6438127.070000
 30
0.000000
  0
VERTEX
  8
1SUBDSECT
  5
405f
 10
423579.400000
 20
6438127.330000
 30
0.000000
  0
VERTEX
  8
1SUBDSECT
  5
4060
 10
423579.250000
 20
6438127.580000
 30
0.000000
  0
VERTEX
  8
1SUBDSECT
  5
4061
 10
423579.120000
 20
6438127.830000
 30
0.000000
  0
VERTEX
  8
1SUBDSECT
  5
4062
 10
423579.000000
 20
6438128.100000
 30
0.000000
  0
VERTEX
  8
1SUBDSECT
  5
4063
 10
423578.900000
 20
6438128.360000
 30
0.000000
  0
VERTEX
  8
1SUBDSECT
  5
4064
 10
423578.820000
 20
6438128.640000
 30
0.000000
  0
VERTEX
  8
1SUBDSECT
  5
4065
 10
423578.740000
 20
6438128.920000
 30
0.000000
  0
VERTEX
  8
1SUBDSECT
  5
4066
 10
423578.670000
 20
6438129.200000
 30
0.000000
  0
VERTEX
  8
1SUBDSECT
  5
4067
 10
423578.730000
 20
6438136.470000
 30
0.000000
  0
VERTEX
  8
1SUBDSECT
  5
4068
 10
423577.190000
 20
6438176.820000
 30
0.000000
  0
VERTEX
  8
1SUBDSECT
  5
4069
 10
423576.420000
 20
6438181.910000
 30
0.000000
  0
SEQEND
  8
1SUBDSECT
  5
406a
  0
POLYLINE
  5
406b
  8
1SECTION
 66
    1
 10
0.0
 20
0.0
 30
0.0
 70
     1
1001
IDU
1000
003000AA
  0
VERTEX
  8
1SECTION
  5
406c
 10
423576.420000
 20
6438181.910000
 30
0.000000
  0
VERTEX
  8
1SECTION
  5
406d
 10
423576.300000
 20
6438184.290000
 30
0.000000
  0
VERTEX
  8
1SECTION
  5
406e
 10
423433.730000
 20
6438204.660000
 30
0.000000
  0
VERTEX
  8
1SECTION
  5
406f
 10
423353.210000
 20
6438215.240000
 30
0.000000
  0
VERTEX
  8
1SECTION
  5
4070
 10
423275.400000
 20
6438226.300000
 30
0.000000
  0
VERTEX
  8
1SECTION
  5
4071
 10
423215.900000
 20
6438233.650000
 30
0.000000
  0
VERTEX
  8
1SECTION
  5
4072
 10
423141.330000
 20
6438244.000000
 30
0.000000
  0
VERTEX
  8
1SECTION
  5
4073
 10
423052.730000
 20
6438256.150000
 30
0.000000
  0
VERTEX
  8
1SECTION
  5
4074
 10
423013.230000
 20
6438261.560000
 30
0.000000
  0
VERTEX
  8
1SECTION
  5
4075
 10
422871.530000
 20
6438279.430000
 30
0.000000
  0
VERTEX
  8
1SECTION
  5
4076
 10
422864.740000
 20
6438277.800000
 30
0.000000
  0
VERTEX
  8
1SECTION
  5
4077
 10
422866.080000
 20
6438272.120000
 30
0.000000
  0
VERTEX
  8
1SECTION
  5
4078
 10
422877.190000
 20
6438224.760000
 30
0.000000
  0
VERTEX
  8
1SECTION
  5
4079
 10
422939.760000
 20
6437958.020000
 30
0.000000
  0
VERTEX
  8
1SECTION
  5
407a
 10
422786.710000
 20
6438001.260000
 30
0.000000
  0
VERTEX
  8
1SECTION
  5
407b
 10
422737.360000
 20
6438015.060000
 30
0.000000
  0
VERTEX
  8
1SECTION
  5
407c
 10
422717.370000
 20
6438020.920000
 30
0.000000
  0
VERTEX
  8
1SECTION
  5
407d
 10
422717.890000
 20
6438010.980000
 30
0.000000
  0
VERTEX
  8
1SECTION
  5
407e
 10
422712.790000
 20
6437636.640000
 30
0.000000
  0
VERTEX
  8
1SECTION
  5
407f
 10
422712.300000
 20
6437610.150000
 30
0.000000
  0
VERTEX
  8
1SECTION
  5
4080
 10
422720.250000
 20
6437610.550000
 30
0.000000
  0
VERTEX
  8
1SECTION
  5
4081
 10
422732.430000
 20
6437627.520000
 30
0.000000
  0
VERTEX
  8
1SECTION
  5
4082
 10
422746.880000
 20
6437647.990000
 30
0.000000
  0
VERTEX
  8
1SECTION
  5
4083
 10
422886.400000
 20
6437665.970000
 30
0.000000
  0
VERTEX
  8
1SECTION
  5
4084
 10
422970.540000
 20
6437676.850000
 30
0.000000
  0
VERTEX
  8
1SECTION
  5
4085
 10
422981.640000
 20
6437678.300000
 30
0.000000
  0
VERTEX
  8
1SECTION
  5
4086
 10
422999.320000
 20
6437680.730000
 30
0.000000
  0
VERTEX
  8
1SECTION
  5
4087
 10
423111.060000
 20
6437695.960000
 30
0.000000
  0
VERTEX
  8
1SECTION
  5
4088
 10
423171.680000
 20
6437703.890000
 30
0.000000
  0
VERTEX
  8
1SECTION
  5
4089
 10
423175.460000
 20
6437610.200000
 30
0.000000
  0
VERTEX
  8
1SECTION
  5
408a
 10
423180.040000
 20
6437508.260000
 30
0.000000
  0
VERTEX
  8
1SECTION
  5
408b
 10
423182.150000
 20
6437455.610000
 30
0.000000
  0
VERTEX
  8
1SECTION
  5
408c
 10
423198.830000
 20
6437457.530000
 30
0.000000
  0
VERTEX
  8
1SECTION
  5
408d
 10
423252.780000
 20
6437463.940000
 30
0.000000
  0
VERTEX
  8
1SECTION
  5
408e
 10
423348.330000
 20
6437475.580000
 30
0.000000
  0
VERTEX
  8
1SECTION
  5
408f
 10
423476.200000
 20
6437491.010000
 30
0.000000
  0
VERTEX
  8
1SECTION
  5
4090
 10
423556.780000
 20
6437500.660000
 30
0.000000
  0
VERTEX
  8
1SECTION
  5
4091
 10
423590.260000
 20
6437504.630000
 30
0.000000
  0
VERTEX
  8
1SECTION
  5
4092
 10
423614.750000
 20
6437507.690000
 30
0.000000
  0
VERTEX
  8
1SECTION
  5
4093
 10
423699.800000
 20
6437518.810000
 30
0.000000
  0
VERTEX
  8
1SECTION
  5
4094
 10
423798.380000
 20
6437530.770000
 30
0.000000
  0
VERTEX
  8
1SECTION
  5
4095
 10
423824.760000
 20
6437534.010000
 30
0.000000
  0
VERTEX
  8
1SECTION
  5
4096
 10
423927.930000
 20
6437546.800000
 30
0.000000
  0
VERTEX
  8
1SECTION
  5
4097
 10
424090.160000
 20
6437566.630000
 30
0.000000
  0
VERTEX
  8
1SECTION
  5
4098
 10
424117.620000
 20
6437570.840000
 30
0.000000
  0
VERTEX
  8
1SECTION
  5
4099
 10
424068.880000
 20
6437840.300000
 30
0.000000
  0
VERTEX
  8
1SECTION
  5
409a
 10
423632.220000
 20
6437921.580000
 30
0.000000
  0
VERTEX
  8
1SECTION
  5
409b
 10
423627.840000
 20
6437928.680000
 30
0.000000
  0
VERTEX
  8
1SECTION
  5
409c
 10
423627.890000
 20
6437929.140000
 30
0.000000
  0
VERTEX
  8
1SECTION
  5
409d
 10
423627.910000
 20
6437929.590000
 30
0.000000
  0
VERTEX
  8
1SECTION
  5
409e
 10
423627.890000
 20
6437930.050000
 30
0.000000
  0
VERTEX
  8
1SECTION
  5
409f
 10
423627.810000
 20
6437930.510000
 30
0.000000
  0
VERTEX
  8
1SECTION
  5
40a0
 10
423602.600000
 20
6438114.620000
 30
0.000000
  0
VERTEX
  8
1SECTION
  5
40a1
 10
423601.160000
 20
6438127.140000
 30
0.000000
  0
VERTEX
  8
1SECTION
  5
40a2
 10
423585.810000
 20
6438124.990000
 30
0.000000
  0
VERTEX
  8
1SECTION
  5
40a3
 10
423584.390000
 20
6438124.990000
 30
0.000000
  0
VERTEX
  8
1SECTION
  5
40a4
 10
423582.340000
 20
6438124.970000
 30
0.000000
  0
VERTEX
  8
1SECTION
  5
40a5
 10
423581.720000
 20
6438125.200000
 30
0.000000
  0
VERTEX
  8
1SECTION
  5
40a6
 10
423581.460000
 20
6438125.330000
 30
0.000000
  0
VERTEX
  8
1SECTION
  5
40a7
 10
423581.210000
 20
6438125.480000
 30
0.000000
  0
VERTEX
  8
1SECTION
  5
40a8
 10
423580.970000
 20
6438125.640000
 30
0.000000
  0
VERTEX
  8
1SECTION
  5
40a9
 10
423580.740000
 20
6438125.810000
 30
0.000000
  0
VERTEX
  8
1SECTION
  5
40aa
 10
423580.520000
 20
6438126.000000
 30
0.000000
  0
VERTEX
  8
1SECTION
  5
40ab
 10
423580.310000
 20
6438126.200000
 30
0.000000
  0
VERTEX
  8
1SECTION
  5
40ac
 10
423580.100000
 20
6438126.400000
 30
0.000000
  0
VERTEX
  8
1SECTION
  5
40ad
 10
423579.910000
 20
6438126.620000
 30
0.000000
  0
VERTEX
  8
1SECTION
  5
40ae
 10
423579.720000
 20
6438126.840000
 30
0.000000
  0
VERTEX
  8
1SECTION
  5
40af
 10
423579.560000
 20
6438127.070000
 30
0.000000
  0
VERTEX
  8
1SECTION
  5
40b0
 10
423579.400000
 20
6438127.330000
 30
0.000000
  0
VERTEX
  8
1SECTION
  5
40b1
 10
423579.250000
 20
6438127.580000
 30
0.000000
  0
VERTEX
  8
1SECTION
  5
40b2
 10
423579.120000
 20
6438127.830000
 30
0.000000
  0
VERTEX
  8
1SECTION
  5
40b3
 10
423579.000000
 20
6438128.100000
 30
0.000000
  0
VERTEX
  8
1SECTION
  5
40b4
 10
423578.900000
 20
6438128.360000
 30
0.000000
  0
VERTEX
  8
1SECTION
  5
40b5
 10
423578.820000
 20
6438128.640000
 30
0.000000
  0
VERTEX
  8
1SECTION
  5
40b6
 10
423578.740000
 20
6438128.920000
 30
0.000000
  0
VERTEX
  8
1SECTION
  5
40b7
 10
423578.670000
 20
6438129.200000
 30
0.000000
  0
VERTEX
  8
1SECTION
  5
40b8
 10
423578.730000
 20
6438136.470000
 30
0.000000
  0
VERTEX
  8
1SECTION
  5
40b9
 10
423577.190000
 20
6438176.820000
 30
0.000000
  0
VERTEX
  8
1SECTION
  5
40ba
 10
423576.420000
 20
6438181.910000
 30
0.000000
  0
SEQEND
  8
1SECTION
  5
40bb
  0
TEXT
  5
40bc
  8
3SECTIONTEX
  10
423210.590000
  20
6437879.300000
  30
0.000000
  40
1.500000
   1
AA
  50
0.000000
   7
STANDARD
  0
POLYLINE
  5
40bd
  8
1COMM
 66
    1
 10
0.0
 20
0.0
 30
0.0
 70
     0
  0
VERTEX
  8
1COMM
  5
40be
 10
422713.810000
 20
6437705.090000
 30
0.000000
  0
VERTEX
  8
1COMM
  5
40bf
 10
422712.300000
 20
6437610.150000
 30
0.000000
  0
VERTEX
  8
1COMM
  5
40c0
 10
422711.990000
 20
6437593.990000
 30
0.000000
  0
VERTEX
  8
1COMM
  5
40c1
 10
422712.310000
 20
6437451.570000
 30
0.000000
  0
VERTEX
  8
1COMM
  5
40c2
 10
422712.460000
 20
6437433.600000
 30
0.000000
  0
VERTEX
  8
1COMM
  5
40c3
 10
422713.330000
 20
6437379.170000
 30
0.000000
  0
VERTEX
  8
1COMM
  5
40c4
 10
422715.310000
 20
6437288.120000
 30
0.000000
  0
VERTEX
  8
1COMM
  5
40c5
 10
422718.830000
 20
6437201.400000
 30
0.000000
  0
VERTEX
  8
1COMM
  5
40c6
 10
422725.920000
 20
6437026.600000
 30
0.000000
  0
VERTEX
  8
1COMM
  5
40c7
 10
422726.170000
 20
6437024.110000
 30
0.000000
  0
VERTEX
  8
1COMM
  5
40c8
 10
422726.570000
 20
6437019.140000
 30
0.000000
  0
VERTEX
  8
1COMM
  5
40c9
 10
422727.240000
 20
6437013.650000
 30
0.000000
  0
VERTEX
  8
1COMM
  5
40ca
 10
422727.890000
 20
6437008.370000
 30
0.000000
  0
VERTEX
  8
1COMM
  5
40cb
 10
422728.670000
 20
6437003.480000
 30
0.000000
  0
VERTEX
  8
1COMM
  5
40cc
 10
422729.620000
 20
6436998.170000
 30
0.000000
  0
VERTEX
  8
1COMM
  5
40cd
 10
422738.760000
 20
6436950.720000
 30
0.000000
  0
VERTEX
  8
1COMM
  5
40ce
 10
422741.100000
 20
6436938.470000
 30
0.000000
  0
VERTEX
  8
1COMM
  5
40cf
 10
422754.290000
 20
6436870.030000
 30
0.000000
  0
VERTEX
  8
1COMM
  5
40d0
 10
422755.140000
 20
6436864.990000
 30
0.000000
  0
VERTEX
  8
1COMM
  5
40d1
 10
422755.310000
 20
6436860.740000
 30
0.000000
  0
VERTEX
  8
1COMM
  5
40d2
 10
422755.140000
 20
6436856.480000
 30
0.000000
  0
VERTEX
  8
1COMM
  5
40d3
 10
422754.670000
 20
6436852.490000
 30
0.000000
  0
VERTEX
  8
1COMM
  5
40d4
 10
422754.080000
 20
6436848.120000
 30
0.000000
  0
VERTEX
  8
1COMM
  5
40d5
 10
422753.250000
 20
6436843.970000
 30
0.000000
  0
VERTEX
  8
1COMM
  5
40d6
 10
422752.130000
 20
6436839.470000
 30
0.000000
  0
VERTEX
  8
1COMM
  5
40d7
 10
422750.670000
 20
6436834.060000
 30
0.000000
  0
VERTEX
  8
1COMM
  5
40d8
 10
422749.100000
 20
6436828.830000
 30
0.000000
  0
VERTEX
  8
1COMM
  5
40d9
 10
422747.510000
 20
6436824.290000
 30
0.000000
  0
VERTEX
  8
1COMM
  5
40da
 10
422744.780000
 20
6436816.970000
 30
0.000000
  0
VERTEX
  8
1COMM
  5
40db
 10
422741.980000
 20
6436810.060000
 30
0.000000
  0
VERTEX
  8
1COMM
  5
40dc
 10
422704.500000
 20
6436721.270000
 30
0.000000
  0
VERTEX
  8
1COMM
  5
40dd
 10
422703.830000
 20
6436719.330000
 30
0.000000
  0
VERTEX
  8
1COMM
  5
40de
 10
422703.330000
 20
6436717.660000
 30
0.000000
  0
VERTEX
  8
1COMM
  5
40df
 10
422702.880000
 20
6436713.890000
 30
0.000000
  0
VERTEX
  8
1COMM
  5
40e0
 10
422702.560000
 20
6436710.480000
 30
0.000000
  0
VERTEX
  8
1COMM
  5
40e1
 10
422700.270000
 20
6436591.570000
 30
0.000000
  0
VERTEX
  8
1COMM
  5
40e2
 10
422699.480000
 20
6436561.940000
 30
0.000000
  0
VERTEX
  8
1COMM
  5
40e3
 10
422698.980000
 20
6436533.120000
 30
0.000000
  0
SEQEND
  8
1COMM
  5
40e4
  0
POLYLINE
  5
40e5
  8
1LIEUDIT
 66
    1
 10
0.0
 20
0.0
 30
0.0
 70
     1
  0
VERTEX
  8
1LIEUDIT
  5
40e6
 10
423576.420000
 20
6438181.910000
 30
0.000000
  0
VERTEX
  8
1LIEUDIT
  5
40e7
 10
423576.300000
 20
6438184.290000
 30
0.000000
  0
VERTEX
  8
1LIEUDIT
  5
40e8
 10
423433.730000
 20
6438204.660000
 30
0.000000
  0
VERTEX
  8
1LIEUDIT
  5
40e9
 10
423353.210000
 20
6438215.240000
 30
0.000000
  0
VERTEX
  8
1LIEUDIT
  5
40ea
 10
423275.400000
 20
6438226.300000
 30
0.000000
  0
VERTEX
  8
1LIEUDIT
  5
40eb
 10
423215.900000
 20
6438233.650000
 30
0.000000
  0
VERTEX
  8
1LIEUDIT
  5
40ec
 10
423141.330000
 20
6438244.000000
 30
0.000000
  0
VERTEX
  8
1LIEUDIT
  5
40ed
 10
423052.730000
 20
6438256.150000
 30
0.000000
  0
VERTEX
  8
1LIEUDIT
  5
40ee
 10
423013.230000
 20
6438261.560000
 30
0.000000
  0
VERTEX
  8
1LIEUDIT
  5
40ef
 10
422871.530000
 20
6438279.430000
 30
0.000000
  0
VERTEX
  8
1LIEUDIT
  5
40f0
 10
422864.740000
 20
6438277.800000
 30
0.000000
  0
VERTEX
  8
1LIEUDIT
  5
40f1
 10
422866.080000
 20
6438272.120000
 30
0.000000
  0
VERTEX
  8
1LIEUDIT
  5
40f2
 10
422877.190000
 20
6438224.760000
 30
0.000000
  0
VERTEX
  8
1LIEUDIT
  5
40f3
 10
422939.760000
 20
6437958.020000
 30
0.000000
  0
VERTEX
  8
1LIEUDIT
  5
40f4
 10
422786.710000
 20
6438001.260000
 30
0.000000
  0
VERTEX
  8
1LIEUDIT
  5
40f5
 10
422737.360000
 20
6438015.060000
 30
0.000000
  0
VERTEX
  8
1LIEUDIT
  5
40f6
 10
422717.370000
 20
6438020.920000
 30
0.000000
  0
VERTEX
  8
1LIEUDIT
  5
40f7
 10
422717.890000
 20
6438010.980000
 30
0.000000
  0
VERTEX
  8
1LIEUDIT
  5
40f8
 10
422712.790000
 20
6437636.640000
 30
0.000000
  0
VERTEX
  8
1LIEUDIT
  5
40f9
 10
422712.300000
 20
6437610.150000
 30
0.000000
  0
VERTEX
  8
1LIEUDIT
  5
40fa
 10
422720.250000
 20
6437610.550000
 30
0.000000
  0
VERTEX
  8
1LIEUDIT
  5
40fb
 10
422732.430000
 20
6437627.520000
 30
0.000000
  0
VERTEX
  8
1LIEUDIT
  5
40fc
 10
422746.880000
 20
6437647.990000
 30
0.000000
  0
VERTEX
  8
1LIEUDIT
  5
40fd
 10
422886.400000
 20
6437665.970000
 30
0.000000
  0
VERTEX
  8
1LIEUDIT
  5
40fe
 10
422970.540000
 20
6437676.850000
 30
0.000000
  0
VERTEX
  8
1LIEUDIT
  5
40ff
 10
422981.640000
 20
6437678.300000
 30
0.000000
  0
VERTEX
  8
1LIEUDIT
  5
4100
 10
422999.320000
 20
6437680.730000
 30
0.000000
  0
VERTEX
  8
1LIEUDIT
  5
4101
 10
423111.060000
 20
6437695.960000
 30
0.000000
  0
VERTEX
  8
1LIEUDIT
  5
4102
 10
423171.680000
 20
6437703.890000
 30
0.000000
  0
VERTEX
  8
1LIEUDIT
  5
4103
 10
423175.460000
 20
6437610.200000
 30
0.000000
  0
VERTEX
  8
1LIEUDIT
  5
4104
 10
423180.040000
 20
6437508.260000
 30
0.000000
  0
VERTEX
  8
1LIEUDIT
  5
4105
 10
423182.150000
 20
6437455.610000
 30
0.000000
  0
VERTEX
  8
1LIEUDIT
  5
4106
 10
423198.830000
 20
6437457.530000
 30
0.000000
  0
VERTEX
  8
1LIEUDIT
  5
4107
 10
423252.780000
 20
6437463.940000
 30
0.000000
  0
VERTEX
  8
1LIEUDIT
  5
4108
 10
423348.330000
 20
6437475.580000
 30
0.000000
  0
VERTEX
  8
1LIEUDIT
  5
4109
 10
423476.200000
 20
6437491.010000
 30
0.000000
  0
VERTEX
  8
1LIEUDIT
  5
410a
 10
423556.780000
 20
6437500.660000
 30
0.000000
  0
VERTEX
  8
1LIEUDIT
  5
410b
 10
423590.260000
 20
6437504.630000
 30
0.000000
  0
VERTEX
  8
1LIEUDIT
  5
410c
 10
423614.750000
 20
6437507.690000
 30
0.000000
  0
VERTEX
  8
1LIEUDIT
  5
410d
 10
423699.800000
 20
6437518.810000
 30
0.000000
  0
VERTEX
  8
1LIEUDIT
  5
410e
 10
423798.380000
 20
6437530.770000
 30
0.000000
  0
VERTEX
  8
1LIEUDIT
  5
410f
 10
423824.760000
 20
6437534.010000
 30
0.000000
  0
VERTEX
  8
1LIEUDIT
  5
4110
 10
423927.930000
 20
6437546.800000
 30
0.000000
  0
VERTEX
  8
1LIEUDIT
  5
4111
 10
424090.160000
 20
6437566.630000
 30
0.000000
  0
VERTEX
  8
1LIEUDIT
  5
4112
 10
424117.620000
 20
6437570.840000
 30
0.000000
  0
VERTEX
  8
1LIEUDIT
  5
4113
 10
424068.880000
 20
6437840.300000
 30
0.000000
  0
VERTEX
  8
1LIEUDIT
  5
4114
 10
423632.220000
 20
6437921.580000
 30
0.000000
  0
VERTEX
  8
1LIEUDIT
  5
4115
 10
423627.840000
 20
6437928.680000
 30
0.000000
  0
VERTEX
  8
1LIEUDIT
  5
4116
 10
423627.890000
 20
6437929.140000
 30
0.000000
  0
VERTEX
  8
1LIEUDIT
  5
4117
 10
423627.910000
 20
6437929.590000
 30
0.000000
  0
VERTEX
  8
1LIEUDIT
  5
4118
 10
423627.890000
 20
6437930.050000
 30
0.000000
  0
VERTEX
  8
1LIEUDIT
  5
4119
 10
423627.810000
 20
6437930.510000
 30
0.000000
  0
VERTEX
  8
1LIEUDIT
  5
411a
 10
423602.600000
 20
6438114.620000
 30
0.000000
  0
VERTEX
  8
1LIEUDIT
  5
411b
 10
423601.160000
 20
6438127.140000
 30
0.000000
  0
VERTEX
  8
1LIEUDIT
  5
411c
 10
423585.810000
 20
6438124.990000
 30
0.000000
  0
VERTEX
  8
1LIEUDIT
  5
411d
 10
423584.390000
 20
6438124.990000
 30
0.000000
  0
VERTEX
  8
1LIEUDIT
  5
411e
 10
423582.340000
 20
6438124.970000
 30
0.000000
  0
VERTEX
  8
1LIEUDIT
  5
411f
 10
423581.720000
 20
6438125.200000
 30
0.000000
  0
VERTEX
  8
1LIEUDIT
  5
4120
 10
423581.460000
 20
6438125.330000
 30
0.000000
  0
VERTEX
  8
1LIEUDIT
  5
4121
 10
423581.210000
 20
6438125.480000
 30
0.000000
  0
VERTEX
  8
1LIEUDIT
  5
4122
 10
423580.970000
 20
6438125.640000
 30
0.000000
  0
VERTEX
  8
1LIEUDIT
  5
4123
 10
423580.740000
 20
6438125.810000
 30
0.000000
  0
VERTEX
  8
1LIEUDIT
  5
4124
 10
423580.520000
 20
6438126.000000
 30
0.000000
  0
VERTEX
  8
1LIEUDIT
  5
4125
 10
423580.310000
 20
6438126.200000
 30
0.000000
  0
VERTEX
  8
1LIEUDIT
  5
4126
 10
423580.100000
 20
6438126.400000
 30
0.000000
  0
VERTEX
  8
1LIEUDIT
  5
4127
 10
423579.910000
 20
6438126.620000
 30
0.000000
  0
VERTEX
  8
1LIEUDIT
  5
4128
 10
423579.720000
 20
6438126.840000
 30
0.000000
  0
VERTEX
  8
1LIEUDIT
  5
4129
 10
423579.560000
 20
6438127.070000
 30
0.000000
  0
VERTEX
  8
1LIEUDIT
  5
412a
 10
423579.400000
 20
6438127.330000
 30
0.000000
  0
VERTEX
  8
1LIEUDIT
  5
412b
 10
423579.250000
 20
6438127.580000
 30
0.000000
  0
VERTEX
  8
1LIEUDIT
  5
412c
 10
423579.120000
 20
6438127.830000
 30
0.000000
  0
VERTEX
  8
1LIEUDIT
  5
412d
 10
423579.000000
 20
6438128.100000
 30
0.000000
  0
VERTEX
  8
1LIEUDIT
  5
412e
 10
423578.900000
 20
6438128.360000
 30
0.000000
  0
VERTEX
  8
1LIEUDIT
  5
412f
 10
423578.820000
 20
6438128.640000
 30
0.000000
  0
VERTEX
  8
1LIEUDIT
  5
4130
 10
423578.740000
 20
6438128.920000
 30
0.000000
  0
VERTEX
  8
1LIEUDIT
  5
4131
 10
423578.670000
 20
6438129.200000
 30
0.000000
  0
VERTEX
  8
1LIEUDIT
  5
4132
 10
423578.730000
 20
6438136.470000
 30
0.000000
  0
VERTEX
  8
1LIEUDIT
  5
4133
 10
423577.190000
 20
6438176.820000
 30
0.000000
  0
VERTEX
  8
1LIEUDIT
  5
4134
 10
423576.420000
 20
6438181.910000
 30
0.000000
  0
SEQEND
  8
1LIEUDIT
  5
4135
  0
TEXT
  5
4136
  8
3LIEUDITTEX
  10
423280.990000
  20
6437840.340000
  30
0.000000
  40
4.000000
   1
GRAND - MARAIS
  50
0.000000
   7
STANDARD
  0
POLYLINE
  5
4137
  8
3EDF
 66
    1
 10
0.0
 20
0.0
 30
0.0
 70
     0
  0
VERTEX
  8
3EDF
  5
4138
 10
423214.780000
 20
6438230.810000
 30
0.000000
  0
VERTEX
  8
3EDF
  5
4139
 10
423384.140000
 20
6437749.800000
 30
0.000000
  0
VERTEX
  8
3EDF
  5
413a
 10
423474.820000
 20
6437491.590000
 30
0.000000
  0
SEQEND
  8
3EDF
  5
413b
  0
POLYLINE
  5
413c
  8
1ZONCOMM
 66
    1
 10
0.0
 20
0.0
 30
0.0
 70
     0
  0
VERTEX
  8
1ZONCOMM
  5
413d
 10
422866.600000
 20
6438278.520000
 30
0.000000
  0
VERTEX
  8
1ZONCOMM
  5
413e
 10
422883.200000
 20
6438212.040000
 30
0.000000
  0
VERTEX
  8
1ZONCOMM
  5
413f
 10
422921.190000
 20
6438042.430000
 30
0.000000
  0
VERTEX
  8
1ZONCOMM
  5
4140
 10
422943.330000
 20
6437955.020000
 30
0.000000
  0
VERTEX
  8
1ZONCOMM
  5
4141
 10
422721.100000
 20
6438015.350000
 30
0.000000
  0
VERTEX
  8
1ZONCOMM
  5
4142
 10
422719.900000
 20
6437923.610000
 30
0.000000
  0
VERTEX
  8
1ZONCOMM
  5
4143
 10
422715.010000
 20
6437613.050000
 30
0.000000
  0
SEQEND
  8
1ZONCOMM
  5
4144
  0
TEXT
  5
4145
  8
3ZONCOMMTEX
  10
422884.440000
  20
6438199.560000
  30
0.000000
  40
2.500000
   1
Chemin
  50
283.800000
   7
STANDARD
  0
TEXT
  5
4146
  8
3ZONCOMMTEX
  10
422922.380000
  20
6438036.180000
  30
0.000000
  40
2.500000
   1
du
  50
283.100000
   7
STANDARD
  0
TEXT
  5
4147
  8
3ZONCOMMTEX
  10
422717.630000
  20
6437756.960000
  30
0.000000
  40
2.500000
   1
Roy
  50
269.100000
   7
STANDARD
  0
POLYLINE
  5
4148
  8
1TRONFLUV
 66
    1
 10
0.0
 20
0.0
 30
0.0
 70
     1
  0
VERTEX
  8
1TRONFLUV
  5
4149
 10
423627.840000
 20
6437928.680000
 30
0.000000
  0
VERTEX
  8
1TRONFLUV
  5
414a
 10
423627.750000
 20
6437928.230000
 30
0.000000
  0
VERTEX
  8
1TRONFLUV
  5
414b
 10
423627.610000
 20
6437927.800000
 30
0.000000
  0
VERTEX
  8
1TRONFLUV
  5
414c
 10
423627.440000
 20
6437927.370000
 30
0.000000
  0
VERTEX
  8
1TRONFLUV
  5
414d
 10
423627.230000
 20
6437926.970000
 30
0.000000
  0
VERTEX
  8
1TRONFLUV
  5
414e
 10
423626.990000
 20
6437926.580000
 30
0.000000
  0
VERTEX
  8
1TRONFLUV
  5
414f
 10
423626.720000
 20
6437926.210000
 30
0.000000
  0
VERTEX
  8
1TRONFLUV
  5
4150
 10
423626.410000
 20
6437925.870000
 30
0.000000
  0
VERTEX
  8
1TRONFLUV
  5
4151
 10
423626.080000
 20
6437925.570000
 30
0.000000
  0
VERTEX
  8
1TRONFLUV
  5
4152
 10
423625.720000
 20
6437925.290000
 30
0.000000
  0
VERTEX
  8
1TRONFLUV
  5
4153
 10
423625.340000
 20
6437925.040000
 30
0.000000
  0
VERTEX
  8
1TRONFLUV
  5
4154
 10
423624.940000
 20
6437924.830000
 30
0.000000
  0
VERTEX
  8
1TRONFLUV
  5
4155
 10
423624.510000
 20
6437924.650000
 30
0.000000
  0
VERTEX
  8
1TRONFLUV
  5
4156
 10
423624.080000
 20
6437924.500000
 30
0.000000
  0
VERTEX
  8
1TRONFLUV
  5
4157
 10
423623.640000
 20
6437924.400000
 30
0.000000
  0
VERTEX
  8
1TRONFLUV
  5
4158
 10
423623.190000
 20
6437924.330000
 30
0.000000
  0
VERTEX
  8
1TRONFLUV
  5
4159
 10
423622.730000
 20
6437924.300000
 30
0.000000
  0
VERTEX
  8
1TRONFLUV
  5
415a
 10
423480.350000
 20
6437909.200000
 30
0.000000
  0
VERTEX
  8
1TRONFLUV
  5
415b
 10
423477.340000
 20
6437909.000000
 30
0.000000
  0
VERTEX
  8
1TRONFLUV
  5
415c
 10
423473.540000
 20
6437908.900000
 30
0.000000
  0
VERTEX
  8
1TRONFLUV
  5
415d
 10
423469.810000
 20
6437909.020000
 30
0.000000
  0
VERTEX
  8
1TRONFLUV
  5
415e
 10
423466.150000
 20
6437909.150000
 30
0.000000
  0
VERTEX
  8
1TRONFLUV
  5
415f
 10
423461.240000
 20
6437909.500000
 30
0.000000
  0
VERTEX
  8
1TRONFLUV
  5
4160
 10
423438.110000
 20
6437911.010000
 30
0.000000
  0
VERTEX
  8
1TRONFLUV
  5
4161
 10
423428.250000
 20
6437911.830000
 30
0.000000
  0
VERTEX
  8
1TRONFLUV
  5
4162
 10
423371.500000
 20
6437917.030000
 30
0.000000
  0
VERTEX
  8
1TRONFLUV
  5
4163
 10
423323.550000
 20
6437920.730000
 30
0.000000
  0
VERTEX
  8
1TRONFLUV
  5
4164
 10
423271.460000
 20
6437925.150000
 30
0.000000
  0
VERTEX
  8
1TRONFLUV
  5
4165
 10
423208.920000
 20
6437930.050000
 30
0.000000
  0
VERTEX
  8
1TRONFLUV
  5
4166
 10
423192.980000
 20
6437931.440000
 30
0.000000
  0
VERTEX
  8
1TRONFLUV
  5
4167
 10
423176.450000
 20
6437932.550000
 30
0.000000
  0
VERTEX
  8
1TRONFLUV
  5
4168
 10
423166.740000
 20
6437933.150000
 30
0.000000
  0
VERTEX
  8
1TRONFLUV
  5
4169
 10
423103.380000
 20
6437936.800000
 30
0.000000
  0
VERTEX
  8
1TRONFLUV
  5
416a
 10
423076.670000
 20
6437938.640000
 30
0.000000
  0
VERTEX
  8
1TRONFLUV
  5
416b
 10
422991.210000
 20
6437947.190000
 30
0.000000
  0
VERTEX
  8
1TRONFLUV
  5
416c
 10
422960.480000
 20
6437950.300000
 30
0.000000
  0
VERTEX
  8
1TRONFLUV
  5
416d
 10
422947.830000
 20
6437952.190000
 30
0.000000
  0
VERTEX
  8
1TRONFLUV
  5
416e
 10
422945.550000
 20
6437946.570000
 30
0.000000
  0
VERTEX
  8
1TRONFLUV
  5
416f
 10
422948.750000
 20
6437946.030000
 30
0.000000
  0
VERTEX
  8
1TRONFLUV
  5
4170
 10
422978.050000
 20
6437943.540000
 30
0.000000
  0
VERTEX
  8
1TRONFLUV
  5
4171
 10
423070.550000
 20
6437934.740000
 30
0.000000
  0
VERTEX
  8
1TRONFLUV
  5
4172
 10
423082.160000
 20
6437933.910000
 30
0.000000
  0
VERTEX
  8
1TRONFLUV
  5
4173
 10
423175.090000
 20
6437928.040000
 30
0.000000
  0
VERTEX
  8
1TRONFLUV
  5
4174
 10
423467.710000
 20
6437904.810000
 30
0.000000
  0
VERTEX
  8
1TRONFLUV
  5
4175
 10
423474.730000
 20
6437905.220000
 30
0.000000
  0
VERTEX
  8
1TRONFLUV
  5
4176
 10
423512.230000
 20
6437908.360000
 30
0.000000
  0
VERTEX
  8
1TRONFLUV
  5
4177
 10
423546.100000
 20
6437911.420000
 30
0.000000
  0
VERTEX
  8
1TRONFLUV
  5
4178
 10
423562.450000
 20
6437913.260000
 30
0.000000
  0
VERTEX
  8
1TRONFLUV
  5
4179
 10
423629.270000
 20
6437921.340000
 30
0.000000
  0
VERTEX
  8
1TRONFLUV
  5
417a
 10
423632.220000
 20
6437921.580000
 30
0.000000
  0
VERTEX
  8
1TRONFLUV
  5
417b
 10
423627.840000
 20
6437928.680000
 30
0.000000
  0
SEQEND
  8
1TRONFLUV
  5
417c
  0
TEXT
  5
417d
  8
3TRONFLUVTEX
  10
423591.610000
  20
6437922.250000
  30
0.000000
  40
3.000000
   1
Fosse
  50
7.000000
   7
STANDARD
  0
POLYLINE
  5
417e
  8
1TRONFLUV
 66
    1
 10
0.0
 20
0.0
 30
0.0
 70
     1
  0
VERTEX
  8
1TRONFLUV
  5
417f
 10
423576.420000
 20
6438181.910000
 30
0.000000
  0
VERTEX
  8
1TRONFLUV
  5
4180
 10
423576.300000
 20
6438184.290000
 30
0.000000
  0
VERTEX
  8
1TRONFLUV
  5
4181
 10
423433.730000
 20
6438204.660000
 30
0.000000
  0
VERTEX
  8
1TRONFLUV
  5
4182
 10
423353.210000
 20
6438215.240000
 30
0.000000
  0
VERTEX
  8
1TRONFLUV
  5
4183
 10
423275.400000
 20
6438226.300000
 30
0.000000
  0
VERTEX
  8
1TRONFLUV
  5
4184
 10
423215.900000
 20
6438233.650000
 30
0.000000
  0
VERTEX
  8
1TRONFLUV
  5
4185
 10
423141.330000
 20
6438244.000000
 30
0.000000
  0
VERTEX
  8
1TRONFLUV
  5
4186
 10
423052.730000
 20
6438256.150000
 30
0.000000
  0
VERTEX
  8
1TRONFLUV
  5
4187
 10
423013.230000
 20
6438261.560000
 30
0.000000
  0
VERTEX
  8
1TRONFLUV
  5
4188
 10
422871.530000
 20
6438279.430000
 30
0.000000
  0
VERTEX
  8
1TRONFLUV
  5
4189
 10
422871.520000
 20
6438275.940000
 30
0.000000
  0
VERTEX
  8
1TRONFLUV
  5
418a
 10
422968.730000
 20
6438265.110000
 30
0.000000
  0
VERTEX
  8
1TRONFLUV
  5
418b
 10
423218.520000
 20
6438230.290000
 30
0.000000
  0
VERTEX
  8
1TRONFLUV
  5
418c
 10
423279.890000
 20
6438222.140000
 30
0.000000
  0
VERTEX
  8
1TRONFLUV
  5
418d
 10
423576.420000
 20
6438181.910000
 30
0.000000
  0
SEQEND
  8
1TRONFLUV
  5
418e
  0
POLYLINE
  5
418f
  8
1COMM
 66
    1
 10
0.0
 20
0.0
 30
0.0
 70
     0
  0
VERTEX
  8
1COMM
  5
4190
 10
423576.420000
 20
6438181.910000
 30
0.000000
  0
VERTEX
  8
1COMM
  5
4191
 10
423576.300000
 20
6438184.290000
 30
0.000000
  0
VERTEX
  8
1COMM
  5
4192
 10
423433.730000
 20
6438204.660000
 30
0.000000
  0
VERTEX
  8
1COMM
  5
4193
 10
423353.210000
 20
6438215.240000
 30
0.000000
  0
VERTEX
  8
1COMM
  5
4194
 10
423275.400000
 20
6438226.300000
 30
0.000000
  0
VERTEX
  8
1COMM
  5
4195
 10
423215.900000
 20
6438233.650000
 30
0.000000
  0
VERTEX
  8
1COMM
  5
4196
 10
423171.790000
 20
6438239.780000
 30
0.000000
  0
SEQEND
  8
1COMM
  5
4197
  0
POLYLINE
  5
4198
  8
3EDF
 66
    1
 10
0.0
 20
0.0
 30
0.0
 70
     0
  0
VERTEX
  8
3EDF
  5
4199
 10
422802.030000
 20
6437987.780000
 30
0.000000
  0
VERTEX
  8
3EDF
  5
419a
 10
422802.900000
 20
6437655.200000
 30
0.000000
  0
SEQEND
  8
3EDF
  5
419b
  0
POLYLINE
  5
419c
  8
3SENTIER
 66
    1
 10
0.0
 20
0.0
 30
0.0
 70
     0
  0
VERTEX
  8
3SENTIER
  5
419d
 10
422878.370000
 20
6438275.170000
 30
0.000000
  0
VERTEX
  8
3SENTIER
  5
419e
 10
422876.430000
 20
6438273.000000
 30
0.000000
  0
VERTEX
  8
3SENTIER
  5
419f
 10
422953.450000
 20
6437951.350000
 30
0.000000
  0
SEQEND
  8
3SENTIER
  5
41a0
  0
INSERT
  5
41a1
  8
3FOSSEMI
  2
FOSSMI
  10
422951.940000
  20
6437674.600000
  30
0.000000
  50
6.900000
  0
INSERT
  5
41a2
  8
3FOSSEMI
  2
FOSSMI
  10
422939.320000
  20
6437672.810000
  30
0.000000
  50
187.500000
  0
POLYLINE
  5
41a3
  8
1COMM
 66
    1
 10
0.0
 20
0.0
 30
0.0
 70
     0
  0
VERTEX
  8
1COMM
  5
41a4
 10
422720.250000
 20
6437610.550000
 30
0.000000
  0
VERTEX
  8
1COMM
  5
41a5
 10
422718.050000
 20
6437610.440000
 30
0.000000
  0
SEQEND
  8
1COMM
  5
41a6
  0
INSERT
  5
41a7
  8
3FOSSEMI
  2
FOSSMI
  10
423177.330000
  20
6437570.050000
  30
0.000000
  50
90.900000
  0
INSERT
  5
41a8
  8
3FOSSEMI
  2
FOSSMI
  10
423177.110000
  20
6437573.570000
  30
0.000000
  50
93.100000
  0
POLYLINE
  5
41a9
  8
3SENTIER
 66
    1
 10
0.0
 20
0.0
 30
0.0
 70
     0
  0
VERTEX
  8
3SENTIER
  5
41aa
 10
423162.120000
 20
6437928.860000
 30
0.000000
  0
VERTEX
  8
3SENTIER
  5
41ab
 10
423171.630000
 20
6437704.120000
 30
0.000000
  0
SEQEND
  8
3SENTIER
  5
41ac
  0
POLYLINE
  5
41ad
  8
3SENTIER
 66
    1
 10
0.0
 20
0.0
 30
0.0
 70
     0
  0
VERTEX
  8
3SENTIER
  5
41ae
 10
423242.850000
 20
6437777.430000
 30
0.000000
  0
VERTEX
  8
3SENTIER
  5
41af
 10
423238.450000
 20
6437780.920000
 30
0.000000
  0
VERTEX
  8
3SENTIER
  5
41b0
 10
423236.390000
 20
6437782.360000
 30
0.000000
  0
VERTEX
  8
3SENTIER
  5
41b1
 10
423233.720000
 20
6437783.760000
 30
0.000000
  0
VERTEX
  8
3SENTIER
  5
41b2
 10
423231.120000
 20
6437783.840000
 30
0.000000
  0
VERTEX
  8
3SENTIER
  5
41b3
 10
423227.900000
 20
6437783.150000
 30
0.000000
  0
VERTEX
  8
3SENTIER
  5
41b4
 10
423222.960000
 20
6437781.050000
 30
0.000000
  0
VERTEX
  8
3SENTIER
  5
41b5
 10
423220.210000
 20
6437779.450000
 30
0.000000
  0
VERTEX
  8
3SENTIER
  5
41b6
 10
423217.850000
 20
6437777.430000
 30
0.000000
  0
VERTEX
  8
3SENTIER
  5
41b7
 10
423216.150000
 20
6437775.330000
 30
0.000000
  0
VERTEX
  8
3SENTIER
  5
41b8
 10
423214.840000
 20
6437772.130000
 30
0.000000
  0
VERTEX
  8
3SENTIER
  5
41b9
 10
423213.810000
 20
6437768.780000
 30
0.000000
  0
VERTEX
  8
3SENTIER
  5
41ba
 10
423213.530000
 20
6437765.970000
 30
0.000000
  0
VERTEX
  8
3SENTIER
  5
41bb
 10
423215.360000
 20
6437759.870000
 30
0.000000
  0
VERTEX
  8
3SENTIER
  5
41bc
 10
423216.660000
 20
6437756.760000
 30
0.000000
  0
VERTEX
  8
3SENTIER
  5
41bd
 10
423227.690000
 20
6437739.780000
 30
0.000000
  0
VERTEX
  8
3SENTIER
  5
41be
 10
423230.220000
 20
6437736.820000
 30
0.000000
  0
VERTEX
  8
3SENTIER
  5
41bf
 10
423241.420000
 20
6437733.480000
 30
0.000000
  0
VERTEX
  8
3SENTIER
  5
41c0
 10
423246.410000
 20
6437733.730000
 30
0.000000
  0
VERTEX
  8
3SENTIER
  5
41c1
 10
423250.020000
 20
6437734.620000
 30
0.000000
  0
VERTEX
  8
3SENTIER
  5
41c2
 10
423255.020000
 20
6437736.760000
 30
0.000000
  0
VERTEX
  8
3SENTIER
  5
41c3
 10
423264.060000
 20
6437740.790000
 30
0.000000
  0
VERTEX
  8
3SENTIER
  5
41c4
 10
423271.720000
 20
6437743.930000
 30
0.000000
  0
VERTEX
  8
3SENTIER
  5
41c5
 10
423274.940000
 20
6437746.190000
 30
0.000000
  0
VERTEX
  8
3SENTIER
  5
41c6
 10
423276.120000
 20
6437749.190000
 30
0.000000
  0
VERTEX
  8
3SENTIER
  5
41c7
 10
423277.230000
 20
6437752.430000
 30
0.000000
  0
VERTEX
  8
3SENTIER
  5
41c8
 10
423277.660000
 20
6437755.590000
 30
0.000000
  0
VERTEX
  8
3SENTIER
  5
41c9
 10
423276.560000
 20
6437758.080000
 30
0.000000
  0
VERTEX
  8
3SENTIER
  5
41ca
 10
423275.140000
 20
6437759.150000
 30
0.000000
  0
VERTEX
  8
3SENTIER
  5
41cb
 10
423273.420000
 20
6437759.730000
 30
0.000000
  0
VERTEX
  8
3SENTIER
  5
41cc
 10
423270.790000
 20
6437760.110000
 30
0.000000
  0
VERTEX
  8
3SENTIER
  5
41cd
 10
423266.310000
 20
6437760.250000
 30
0.000000
  0
VERTEX
  8
3SENTIER
  5
41ce
 10
423257.370000
 20
6437762.210000
 30
0.000000
  0
VERTEX
  8
3SENTIER
  5
41cf
 10
423254.910000
 20
6437763.310000
 30
0.000000
  0
VERTEX
  8
3SENTIER
  5
41d0
 10
423252.620000
 20
6437765.650000
 30
0.000000
  0
VERTEX
  8
3SENTIER
  5
41d1
 10
423249.350000
 20
6437769.100000
 30
0.000000
  0
VERTEX
  8
3SENTIER
  5
41d2
 10
423242.850000
 20
6437777.430000
 30
0.000000
  0
SEQEND
  8
3SENTIER
  5
41d3
  0
INSERT
  5
41d4
  8
3CALVAIRE
  2
DETATOPO
  10
423308.260000
  20
6437483.620000
  30
0.000000
  50
270.000000
  0
TEXT
  5
41d5
  8
3CALVAIRETEX
  10
423305.760000
  20
6437485.890000
  30
0.000000
  40
2.000000
   1
1.10
  50
0.000000
   7
STANDARD
  0
POLYLINE
  5
41d6
  8
3SENTIER
 66
    1
 10
0.0
 20
0.0
 30
0.0
 70
     0
  0
VERTEX
  8
3SENTIER
  5
41d7
 10
423568.770000
 20
6437598.390000
 30
0.000000
  0
VERTEX
  8
3SENTIER
  5
41d8
 10
423588.370000
 20
6437613.480000
 30
0.000000
  0
VERTEX
  8
3SENTIER
  5
41d9
 10
423590.560000
 20
6437618.200000
 30
0.000000
  0
VERTEX
  8
3SENTIER
  5
41da
 10
423591.810000
 20
6437622.060000
 30
0.000000
  0
VERTEX
  8
3SENTIER
  5
41db
 10
423591.880000
 20
6437625.620000
 30
0.000000
  0
VERTEX
  8
3SENTIER
  5
41dc
 10
423591.970000
 20
6437629.710000
 30
0.000000
  0
VERTEX
  8
3SENTIER
  5
41dd
 10
423590.510000
 20
6437643.830000
 30
0.000000
  0
VERTEX
  8
3SENTIER
  5
41de
 10
423589.700000
 20
6437648.050000
 30
0.000000
  0
VERTEX
  8
3SENTIER
  5
41df
 10
423588.110000
 20
6437653.460000
 30
0.000000
  0
VERTEX
  8
3SENTIER
  5
41e0
 10
423585.550000
 20
6437658.100000
 30
0.000000
  0
VERTEX
  8
3SENTIER
  5
41e1
 10
423584.140000
 20
6437659.990000
 30
0.000000
  0
VERTEX
  8
3SENTIER
  5
41e2
 10
423581.420000
 20
6437662.460000
 30
0.000000
  0
VERTEX
  8
3SENTIER
  5
41e3
 10
423578.080000
 20
6437664.300000
 30
0.000000
  0
VERTEX
  8
3SENTIER
  5
41e4
 10
423566.480000
 20
6437667.300000
 30
0.000000
  0
VERTEX
  8
3SENTIER
  5
41e5
 10
423563.770000
 20
6437667.750000
 30
0.000000
  0
VERTEX
  8
3SENTIER
  5
41e6
 10
423561.130000
 20
6437667.410000
 30
0.000000
  0
VERTEX
  8
3SENTIER
  5
41e7
 10
423558.020000
 20
6437666.470000
 30
0.000000
  0
VERTEX
  8
3SENTIER
  5
41e8
 10
423555.820000
 20
6437665.020000
 30
0.000000
  0
VERTEX
  8
3SENTIER
  5
41e9
 10
423549.810000
 20
6437658.300000
 30
0.000000
  0
VERTEX
  8
3SENTIER
  5
41ea
 10
423548.820000
 20
6437655.660000
 30
0.000000
  0
VERTEX
  8
3SENTIER
  5
41eb
 10
423548.490000
 20
6437653.020000
 30
0.000000
  0
VERTEX
  8
3SENTIER
  5
41ec
 10
423548.210000
 20
6437643.890000
 30
0.000000
  0
VERTEX
  8
3SENTIER
  5
41ed
 10
423547.170000
 20
6437640.270000
 30
0.000000
  0
VERTEX
  8
3SENTIER
  5
41ee
 10
423546.940000
 20
6437637.220000
 30
0.000000
  0
VERTEX
  8
3SENTIER
  5
41ef
 10
423546.710000
 20
6437622.230000
 30
0.000000
  0
VERTEX
  8
3SENTIER
  5
41f0
 10
423545.790000
 20
6437615.170000
 30
0.000000
  0
VERTEX
  8
3SENTIER
  5
41f1
 10
423545.910000
 20
6437611.360000
 30
0.000000
  0
VERTEX
  8
3SENTIER
  5
41f2
 10
423546.390000
 20
6437608.080000
 30
0.000000
  0
VERTEX
  8
3SENTIER
  5
41f3
 10
423547.920000
 20
6437604.210000
 30
0.000000
  0
VERTEX
  8
3SENTIER
  5
41f4
 10
423552.050000
 20
6437598.480000
 30
0.000000
  0
VERTEX
  8
3SENTIER
  5
41f5
 10
423554.330000
 20
6437596.530000
 30
0.000000
  0
VERTEX
  8
3SENTIER
  5
41f6
 10
423556.190000
 20
6437596.210000
 30
0.000000
  0
VERTEX
  8
3SENTIER
  5
41f7
 10
423558.180000
 20
6437596.490000
 30
0.000000
  0
VERTEX
  8
3SENTIER
  5
41f8
 10
423568.770000
 20
6437598.390000
 30
0.000000
  0
VERTEX
  8
3SENTIER
  5
41f9
 10
423569.560000
 20
6437551.820000
 30
0.000000
  0
VERTEX
  8
3SENTIER
  5
41fa
 10
423570.640000
 20
6437541.980000
 30
0.000000
  0
VERTEX
  8
3SENTIER
  5
41fb
 10
423572.690000
 20
6437526.740000
 30
0.000000
  0
VERTEX
  8
3SENTIER
  5
41fc
 10
423576.710000
 20
6437504.090000
 30
0.000000
  0
SEQEND
  8
3SENTIER
  5
41fd
  0
POLYLINE
  5
41fe
  8
3SENTIER
 66
    1
 10
0.0
 20
0.0
 30
0.0
 70
     0
  0
VERTEX
  8
3SENTIER
  5
41ff
 10
423616.580000
 20
6437660.740000
 30
0.000000
  0
VERTEX
  8
3SENTIER
  5
4200
 10
423619.060000
 20
6437658.880000
 30
0.000000
  0
VERTEX
  8
3SENTIER
  5
4201
 10
423622.550000
 20
6437656.630000
 30
0.000000
  0
VERTEX
  8
3SENTIER
  5
4202
 10
423626.310000
 20
6437655.460000
 30
0.000000
  0
VERTEX
  8
3SENTIER
  5
4203
 10
423637.130000
 20
6437655.420000
 30
0.000000
  0
VERTEX
  8
3SENTIER
  5
4204
 10
423645.090000
 20
6437658.410000
 30
0.000000
  0
VERTEX
  8
3SENTIER
  5
4205
 10
423649.620000
 20
6437659.890000
 30
0.000000
  0
VERTEX
  8
3SENTIER
  5
4206
 10
423654.320000
 20
6437667.640000
 30
0.000000
  0
VERTEX
  8
3SENTIER
  5
4207
 10
423655.460000
 20
6437671.070000
 30
0.000000
  0
VERTEX
  8
3SENTIER
  5
4208
 10
423656.000000
 20
6437674.230000
 30
0.000000
  0
VERTEX
  8
3SENTIER
  5
4209
 10
423655.740000
 20
6437677.930000
 30
0.000000
  0
VERTEX
  8
3SENTIER
  5
420a
 10
423654.500000
 20
6437684.560000
 30
0.000000
  0
VERTEX
  8
3SENTIER
  5
420b
 10
423653.220000
 20
6437687.070000
 30
0.000000
  0
VERTEX
  8
3SENTIER
  5
420c
 10
423651.440000
 20
6437689.160000
 30
0.000000
  0
VERTEX
  8
3SENTIER
  5
420d
 10
423647.910000
 20
6437691.830000
 30
0.000000
  0
VERTEX
  8
3SENTIER
  5
420e
 10
423645.440000
 20
6437693.530000
 30
0.000000
  0
VERTEX
  8
3SENTIER
  5
420f
 10
423641.720000
 20
6437694.290000
 30
0.000000
  0
VERTEX
  8
3SENTIER
  5
4210
 10
423633.800000
 20
6437694.460000
 30
0.000000
  0
VERTEX
  8
3SENTIER
  5
4211
 10
423631.360000
 20
6437694.880000
 30
0.000000
  0
VERTEX
  8
3SENTIER
  5
4212
 10
423625.640000
 20
6437697.410000
 30
0.000000
  0
VERTEX
  8
3SENTIER
  5
4213
 10
423623.140000
 20
6437697.020000
 30
0.000000
  0
VERTEX
  8
3SENTIER
  5
4214
 10
423621.150000
 20
6437695.470000
 30
0.000000
  0
VERTEX
  8
3SENTIER
  5
4215
 10
423619.660000
 20
6437693.760000
 30
0.000000
  0
VERTEX
  8
3SENTIER
  5
4216
 10
423617.810000
 20
6437690.870000
 30
0.000000
  0
VERTEX
  8
3SENTIER
  5
4217
 10
423614.990000
 20
6437688.710000
 30
0.000000
  0
VERTEX
  8
3SENTIER
  5
4218
 10
423613.760000
 20
6437687.860000
 30
0.000000
  0
VERTEX
  8
3SENTIER
  5
4219
 10
423613.350000
 20
6437686.790000
 30
0.000000
  0
VERTEX
  8
3SENTIER
  5
421a
 10
423612.460000
 20
6437673.640000
 30
0.000000
  0
VERTEX
  8
3SENTIER
  5
421b
 10
423613.040000
 20
6437667.770000
 30
0.000000
  0
VERTEX
  8
3SENTIER
  5
421c
 10
423614.380000
 20
6437663.960000
 30
0.000000
  0
VERTEX
  8
3SENTIER
  5
421d
 10
423616.580000
 20
6437660.740000
 30
0.000000
  0
VERTEX
  8
3SENTIER
  5
421e
 10
423598.860000
 20
6437634.030000
 30
0.000000
  0
VERTEX
  8
3SENTIER
  5
421f
 10
423596.110000
 20
6437625.060000
 30
0.000000
  0
VERTEX
  8
3SENTIER
  5
4220
 10
423593.600000
 20
6437618.170000
 30
0.000000
  0
VERTEX
  8
3SENTIER
  5
4221
 10
423591.750000
 20
6437614.330000
 30
0.000000
  0
VERTEX
  8
3SENTIER
  5
4222
 10
423588.800000
 20
6437609.730000
 30
0.000000
  0
VERTEX
  8
3SENTIER
  5
4223
 10
423568.980000
 20
6437585.840000
 30
0.000000
  0
SEQEND
  8
3SENTIER
  5
4224
  0
INSERT
  5
4225
  8
3FOSSEMI
  2
FOSSMI
  10
423658.340000
  20
6437513.740000
  30
0.000000
  50
6.900000
  0
INSERT
  5
4226
  8
3CALVAIRE
  2
DETATOPO
  10
423706.160000
  20
6437561.530000
  30
0.000000
  50
270.000000
  0
TEXT
  5
4227
  8
3CALVAIRETEX
  10
423703.930000
  20
6437558.100000
  30
0.000000
  40
2.000000
   1
1.20
  50
0.000000
   7
STANDARD
  0
POLYLINE
  5
4228
  8
3SENTIER
 66
    1
 10
0.0
 20
0.0
 30
0.0
 70
     0
  0
VERTEX
  8
3SENTIER
  5
4229
 10
423765.570000
 20
6437777.570000
 30
0.000000
  0
VERTEX
  8
3SENTIER
  5
422a
 10
423763.380000
 20
6437776.330000
 30
0.000000
  0
VERTEX
  8
3SENTIER
  5
422b
 10
423762.230000
 20
6437772.780000
 30
0.000000
  0
VERTEX
  8
3SENTIER
  5
422c
 10
423759.690000
 20
6437754.640000
 30
0.000000
  0
VERTEX
  8
3SENTIER
  5
422d
 10
423759.580000
 20
6437751.590000
 30
0.000000
  0
VERTEX
  8
3SENTIER
  5
422e
 10
423760.710000
 20
6437749.500000
 30
0.000000
  0
VERTEX
  8
3SENTIER
  5
422f
 10
423762.900000
 20
6437748.160000
 30
0.000000
  0
VERTEX
  8
3SENTIER
  5
4230
 10
423763.120000
 20
6437745.000000
 30
0.000000
  0
VERTEX
  8
3SENTIER
  5
4231
 10
423762.220000
 20
6437742.300000
 30
0.000000
  0
VERTEX
  8
3SENTIER
  5
4232
 10
423760.160000
 20
6437739.890000
 30
0.000000
  0
VERTEX
  8
3SENTIER
  5
4233
 10
423758.470000
 20
6437735.070000
 30
0.000000
  0
VERTEX
  8
3SENTIER
  5
4234
 10
423755.810000
 20
6437732.120000
 30
0.000000
  0
VERTEX
  8
3SENTIER
  5
4235
 10
423753.190000
 20
6437719.570000
 30
0.000000
  0
VERTEX
  8
3SENTIER
  5
4236
 10
423753.010000
 20
6437717.890000
 30
0.000000
  0
VERTEX
  8
3SENTIER
  5
4237
 10
423753.890000
 20
6437716.920000
 30
0.000000
  0
VERTEX
  8
3SENTIER
  5
4238
 10
423774.260000
 20
6437709.780000
 30
0.000000
  0
VERTEX
  8
3SENTIER
  5
4239
 10
423780.000000
 20
6437708.250000
 30
0.000000
  0
VERTEX
  8
3SENTIER
  5
423a
 10
423783.950000
 20
6437707.680000
 30
0.000000
  0
VERTEX
  8
3SENTIER
  5
423b
 10
423787.160000
 20
6437707.420000
 30
0.000000
  0
VERTEX
  8
3SENTIER
  5
423c
 10
423791.070000
 20
6437706.690000
 30
0.000000
  0
VERTEX
  8
3SENTIER
  5
423d
 10
423796.680000
 20
6437704.760000
 30
0.000000
  0
VERTEX
  8
3SENTIER
  5
423e
 10
423799.880000
 20
6437704.430000
 30
0.000000
  0
VERTEX
  8
3SENTIER
  5
423f
 10
423802.430000
 20
6437705.280000
 30
0.000000
  0
VERTEX
  8
3SENTIER
  5
4240
 10
423804.690000
 20
6437708.040000
 30
0.000000
  0
VERTEX
  8
3SENTIER
  5
4241
 10
423807.850000
 20
6437714.080000
 30
0.000000
  0
VERTEX
  8
3SENTIER
  5
4242
 10
423813.040000
 20
6437726.780000
 30
0.000000
  0
VERTEX
  8
3SENTIER
  5
4243
 10
423816.890000
 20
6437736.000000
 30
0.000000
  0
VERTEX
  8
3SENTIER
  5
4244
 10
423819.140000
 20
6437744.230000
 30
0.000000
  0
VERTEX
  8
3SENTIER
  5
4245
 10
423820.450000
 20
6437748.730000
 30
0.000000
  0
VERTEX
  8
3SENTIER
  5
4246
 10
423820.240000
 20
6437753.760000
 30
0.000000
  0
VERTEX
  8
3SENTIER
  5
4247
 10
423819.310000
 20
6437757.490000
 30
0.000000
  0
VERTEX
  8
3SENTIER
  5
4248
 10
423816.840000
 20
6437761.840000
 30
0.000000
  0
VERTEX
  8
3SENTIER
  5
4249
 10
423813.080000
 20
6437766.440000
 30
0.000000
  0
VERTEX
  8
3SENTIER
  5
424a
 10
423807.300000
 20
6437770.780000
 30
0.000000
  0
VERTEX
  8
3SENTIER
  5
424b
 10
423802.910000
 20
6437773.540000
 30
0.000000
  0
VERTEX
  8
3SENTIER
  5
424c
 10
423788.780000
 20
6437777.940000
 30
0.000000
  0
VERTEX
  8
3SENTIER
  5
424d
 10
423778.090000
 20
6437776.960000
 30
0.000000
  0
VERTEX
  8
3SENTIER
  5
424e
 10
423771.480000
 20
6437777.590000
 30
0.000000
  0
VERTEX
  8
3SENTIER
  5
424f
 10
423765.570000
 20
6437777.570000
 30
0.000000
  0
VERTEX
  8
3SENTIER
  5
4250
 10
423782.370000
 20
6437850.910000
 30
0.000000
  0
VERTEX
  8
3SENTIER
  5
4251
 10
423780.860000
 20
6437859.340000
 30
0.000000
  0
VERTEX
  8
3SENTIER
  5
4252
 10
423780.040000
 20
6437865.260000
 30
0.000000
  0
VERTEX
  8
3SENTIER
  5
4253
 10
423779.600000
 20
6437870.910000
 30
0.000000
  0
VERTEX
  8
3SENTIER
  5
4254
 10
423779.380000
 20
6437875.740000
 30
0.000000
  0
VERTEX
  8
3SENTIER
  5
4255
 10
423779.580000
 20
6437881.010000
 30
0.000000
  0
VERTEX
  8
3SENTIER
  5
4256
 10
423780.130000
 20
6437887.320000
 30
0.000000
  0
VERTEX
  8
3SENTIER
  5
4257
 10
423781.430000
 20
6437893.810000
 30
0.000000
  0
SEQEND
  8
3SENTIER
  5
4258
  0
POLYLINE
  5
4259
  8
3SENTIER
 66
    1
 10
0.0
 20
0.0
 30
0.0
 70
     0
  0
VERTEX
  8
3SENTIER
  5
425a
 10
423728.290000
 20
6437647.330000
 30
0.000000
  0
VERTEX
  8
3SENTIER
  5
425b
 10
423737.380000
 20
6437647.040000
 30
0.000000
  0
VERTEX
  8
3SENTIER
  5
425c
 10
423751.220000
 20
6437648.240000
 30
0.000000
  0
VERTEX
  8
3SENTIER
  5
425d
 10
423759.270000
 20
6437649.950000
 30
0.000000
  0
VERTEX
  8
3SENTIER
  5
425e
 10
423765.940000
 20
6437651.840000
 30
0.000000
  0
VERTEX
  8
3SENTIER
  5
425f
 10
423773.950000
 20
6437655.830000
 30
0.000000
  0
VERTEX
  8
3SENTIER
  5
4260
 10
423776.020000
 20
6437659.120000
 30
0.000000
  0
VERTEX
  8
3SENTIER
  5
4261
 10
423779.540000
 20
6437666.510000
 30
0.000000
  0
VERTEX
  8
3SENTIER
  5
4262
 10
423781.480000
 20
6437672.350000
 30
0.000000
  0
VERTEX
  8
3SENTIER
  5
4263
 10
423782.770000
 20
6437676.810000
 30
0.000000
  0
VERTEX
  8
3SENTIER
  5
4264
 10
423783.020000
 20
6437682.800000
 30
0.000000
  0
VERTEX
  8
3SENTIER
  5
4265
 10
423782.420000
 20
6437688.920000
 30
0.000000
  0
VERTEX
  8
3SENTIER
  5
4266
 10
423781.500000
 20
6437693.500000
 30
0.000000
  0
VERTEX
  8
3SENTIER
  5
4267
 10
423779.830000
 20
6437696.260000
 30
0.000000
  0
VERTEX
  8
3SENTIER
  5
4268
 10
423777.020000
 20
6437699.780000
 30
0.000000
  0
VERTEX
  8
3SENTIER
  5
4269
 10
423770.720000
 20
6437704.320000
 30
0.000000
  0
VERTEX
  8
3SENTIER
  5
426a
 10
423757.910000
 20
6437707.540000
 30
0.000000
  0
VERTEX
  8
3SENTIER
  5
426b
 10
423752.790000
 20
6437707.930000
 30
0.000000
  0
VERTEX
  8
3SENTIER
  5
426c
 10
423746.470000
 20
6437706.210000
 30
0.000000
  0
VERTEX
  8
3SENTIER
  5
426d
 10
423742.790000
 20
6437704.260000
 30
0.000000
  0
VERTEX
  8
3SENTIER
  5
426e
 10
423739.270000
 20
6437701.120000
 30
0.000000
  0
VERTEX
  8
3SENTIER
  5
426f
 10
423737.930000
 20
6437698.900000
 30
0.000000
  0
VERTEX
  8
3SENTIER
  5
4270
 10
423735.710000
 20
6437696.690000
 30
0.000000
  0
VERTEX
  8
3SENTIER
  5
4271
 10
423732.720000
 20
6437695.940000
 30
0.000000
  0
VERTEX
  8
3SENTIER
  5
4272
 10
423728.340000
 20
6437696.900000
 30
0.000000
  0
VERTEX
  8
3SENTIER
  5
4273
 10
423723.460000
 20
6437698.560000
 30
0.000000
  0
VERTEX
  8
3SENTIER
  5
4274
 10
423708.540000
 20
6437699.250000
 30
0.000000
  0
VERTEX
  8
3SENTIER
  5
4275
 10
423697.810000
 20
6437699.100000
 30
0.000000
  0
VERTEX
  8
3SENTIER
  5
4276
 10
423689.660000
 20
6437699.310000
 30
0.000000
  0
VERTEX
  8
3SENTIER
  5
4277
 10
423688.140000
 20
6437699.280000
 30
0.000000
  0
VERTEX
  8
3SENTIER
  5
4278
 10
423685.960000
 20
6437698.880000
 30
0.000000
  0
VERTEX
  8
3SENTIER
  5
4279
 10
423685.090000
 20
6437697.660000
 30
0.000000
  0
VERTEX
  8
3SENTIER
  5
427a
 10
423684.510000
 20
6437695.690000
 30
0.000000
  0
VERTEX
  8
3SENTIER
  5
427b
 10
423684.060000
 20
6437685.020000
 30
0.000000
  0
VERTEX
  8
3SENTIER
  5
427c
 10
423684.570000
 20
6437679.930000
 30
0.000000
  0
VERTEX
  8
3SENTIER
  5
427d
 10
423685.840000
 20
6437673.120000
 30
0.000000
  0
VERTEX
  8
3SENTIER
  5
427e
 10
423688.270000
 20
6437666.330000
 30
0.000000
  0
VERTEX
  8
3SENTIER
  5
427f
 10
423690.820000
 20
6437660.410000
 30
0.000000
  0
VERTEX
  8
3SENTIER
  5
4280
 10
423692.500000
 20
6437655.870000
 30
0.000000
  0
VERTEX
  8
3SENTIER
  5
4281
 10
423694.810000
 20
6437652.700000
 30
0.000000
  0
VERTEX
  8
3SENTIER
  5
4282
 10
423697.600000
 20
6437650.700000
 30
0.000000
  0
VERTEX
  8
3SENTIER
  5
4283
 10
423702.210000
 20
6437649.020000
 30
0.000000
  0
VERTEX
  8
3SENTIER
  5
4284
 10
423706.740000
 20
6437648.370000
 30
0.000000
  0
VERTEX
  8
3SENTIER
  5
4285
 10
423716.590000
 20
6437647.670000
 30
0.000000
  0
VERTEX
  8
3SENTIER
  5
4286
 10
423728.280000
 20
6437647.330000
 30
0.000000
  0
VERTEX
  8
3SENTIER
  5
4287
 10
423728.020000
 20
6437634.670000
 30
0.000000
  0
VERTEX
  8
3SENTIER
  5
4288
 10
423730.120000
 20
6437623.520000
 30
0.000000
  0
VERTEX
  8
3SENTIER
  5
4289
 10
423731.690000
 20
6437616.640000
 30
0.000000
  0
VERTEX
  8
3SENTIER
  5
428a
 10
423732.110000
 20
6437613.690000
 30
0.000000
  0
VERTEX
  8
3SENTIER
  5
428b
 10
423732.380000
 20
6437609.280000
 30
0.000000
  0
VERTEX
  8
3SENTIER
  5
428c
 10
423732.480000
 20
6437602.090000
 30
0.000000
  0
VERTEX
  8
3SENTIER
  5
428d
 10
423732.720000
 20
6437595.630000
 30
0.000000
  0
VERTEX
  8
3SENTIER
  5
428e
 10
423733.610000
 20
6437587.390000
 30
0.000000
  0
VERTEX
  8
3SENTIER
  5
428f
 10
423734.520000
 20
6437580.410000
 30
0.000000
  0
VERTEX
  8
3SENTIER
  5
4290
 10
423743.440000
 20
6437524.620000
 30
0.000000
  0
SEQEND
  8
3SENTIER
  5
4291
  0
POLYLINE
  5
4292
  8
3SENTIER
 66
    1
 10
0.0
 20
0.0
 30
0.0
 70
     0
  0
VERTEX
  8
3SENTIER
  5
4293
 10
423875.960000
 20
6437616.430000
 30
0.000000
  0
VERTEX
  8
3SENTIER
  5
4294
 10
423886.980000
 20
6437626.450000
 30
0.000000
  0
VERTEX
  8
3SENTIER
  5
4295
 10
423890.110000
 20
6437630.460000
 30
0.000000
  0
VERTEX
  8
3SENTIER
  5
4296
 10
423893.610000
 20
6437635.150000
 30
0.000000
  0
VERTEX
  8
3SENTIER
  5
4297
 10
423896.020000
 20
6437638.630000
 30
0.000000
  0
VERTEX
  8
3SENTIER
  5
4298
 10
423900.490000
 20
6437646.990000
 30
0.000000
  0
VERTEX
  8
3SENTIER
  5
4299
 10
423902.850000
 20
6437651.330000
 30
0.000000
  0
VERTEX
  8
3SENTIER
  5
429a
 10
423904.210000
 20
6437655.550000
 30
0.000000
  0
VERTEX
  8
3SENTIER
  5
429b
 10
423903.990000
 20
6437658.300000
 30
0.000000
  0
VERTEX
  8
3SENTIER
  5
429c
 10
423903.180000
 20
6437660.850000
 30
0.000000
  0
VERTEX
  8
3SENTIER
  5
429d
 10
423901.440000
 20
6437663.050000
 30
0.000000
  0
VERTEX
  8
3SENTIER
  5
429e
 10
423899.510000
 20
6437664.640000
 30
0.000000
  0
VERTEX
  8
3SENTIER
  5
429f
 10
423890.200000
 20
6437669.340000
 30
0.000000
  0
VERTEX
  8
3SENTIER
  5
42a0
 10
423876.850000
 20
6437671.440000
 30
0.000000
  0
VERTEX
  8
3SENTIER
  5
42a1
 10
423867.240000
 20
6437671.220000
 30
0.000000
  0
VERTEX
  8
3SENTIER
  5
42a2
 10
423865.600000
 20
6437670.670000
 30
0.000000
  0
VERTEX
  8
3SENTIER
  5
42a3
 10
423864.520000
 20
6437668.810000
 30
0.000000
  0
VERTEX
  8
3SENTIER
  5
42a4
 10
423863.280000
 20
6437666.370000
 30
0.000000
  0
VERTEX
  8
3SENTIER
  5
42a5
 10
423861.090000
 20
6437665.170000
 30
0.000000
  0
VERTEX
  8
3SENTIER
  5
42a6
 10
423858.640000
 20
6437665.180000
 30
0.000000
  0
VERTEX
  8
3SENTIER
  5
42a7
 10
423856.860000
 20
6437665.830000
 30
0.000000
  0
VERTEX
  8
3SENTIER
  5
42a8
 10
423855.600000
 20
6437667.760000
 30
0.000000
  0
VERTEX
  8
3SENTIER
  5
42a9
 10
423854.360000
 20
6437670.570000
 30
0.000000
  0
VERTEX
  8
3SENTIER
  5
42aa
 10
423853.050000
 20
6437671.040000
 30
0.000000
  0
VERTEX
  8
3SENTIER
  5
42ab
 10
423825.450000
 20
6437667.910000
 30
0.000000
  0
VERTEX
  8
3SENTIER
  5
42ac
 10
423822.610000
 20
6437667.570000
 30
0.000000
  0
VERTEX
  8
3SENTIER
  5
42ad
 10
423821.630000
 20
6437665.700000
 30
0.000000
  0
VERTEX
  8
3SENTIER
  5
42ae
 10
423821.350000
 20
6437662.610000
 30
0.000000
  0
VERTEX
  8
3SENTIER
  5
42af
 10
423822.470000
 20
6437652.120000
 30
0.000000
  0
VERTEX
  8
3SENTIER
  5
42b0
 10
423824.320000
 20
6437646.820000
 30
0.000000
  0
VERTEX
  8
3SENTIER
  5
42b1
 10
423828.030000
 20
6437640.520000
 30
0.000000
  0
VERTEX
  8
3SENTIER
  5
42b2
 10
423832.530000
 20
6437633.520000
 30
0.000000
  0
VERTEX
  8
3SENTIER
  5
42b3
 10
423837.140000
 20
6437629.060000
 30
0.000000
  0
VERTEX
  8
3SENTIER
  5
42b4
 10
423842.950000
 20
6437624.940000
 30
0.000000
  0
VERTEX
  8
3SENTIER
  5
42b5
 10
423846.890000
 20
6437622.530000
 30
0.000000
  0
VERTEX
  8
3SENTIER
  5
42b6
 10
423850.670000
 20
6437621.280000
 30
0.000000
  0
VERTEX
  8
3SENTIER
  5
42b7
 10
423857.080000
 20
6437620.310000
 30
0.000000
  0
VERTEX
  8
3SENTIER
  5
42b8
 10
423862.970000
 20
6437619.540000
 30
0.000000
  0
VERTEX
  8
3SENTIER
  5
42b9
 10
423875.680000
 20
6437618.780000
 30
0.000000
  0
VERTEX
  8
3SENTIER
  5
42ba
 10
423881.590000
 20
6437571.230000
 30
0.000000
  0
VERTEX
  8
3SENTIER
  5
42bb
 10
423885.620000
 20
6437542.230000
 30
0.000000
  0
SEQEND
  8
3SENTIER
  5
42bc
  0
POLYLINE
  5
42bd
  8
3SENTIER
 66
    1
 10
0.0
 20
0.0
 30
0.0
 70
     0
  0
VERTEX
  8
3SENTIER
  5
42be
 10
423785.390000
 20
6437570.880000
 30
0.000000
  0
VERTEX
  8
3SENTIER
  5
42bf
 10
423795.110000
 20
6437574.110000
 30
0.000000
  0
VERTEX
  8
3SENTIER
  5
42c0
 10
423798.430000
 20
6437574.680000
 30
0.000000
  0
VERTEX
  8
3SENTIER
  5
42c1
 10
423801.240000
 20
6437576.080000
 30
0.000000
  0
VERTEX
  8
3SENTIER
  5
42c2
 10
423803.800000
 20
6437578.350000
 30
0.000000
  0
VERTEX
  8
3SENTIER
  5
42c3
 10
423805.870000
 20
6437581.650000
 30
0.000000
  0
VERTEX
  8
3SENTIER
  5
42c4
 10
423806.750000
 20
6437584.480000
 30
0.000000
  0
VERTEX
  8
3SENTIER
  5
42c5
 10
423806.780000
 20
6437588.080000
 30
0.000000
  0
VERTEX
  8
3SENTIER
  5
42c6
 10
423806.430000
 20
6437594.390000
 30
0.000000
  0
VERTEX
  8
3SENTIER
  5
42c7
 10
423801.460000
 20
6437613.250000
 30
0.000000
  0
VERTEX
  8
3SENTIER
  5
42c8
 10
423798.800000
 20
6437618.000000
 30
0.000000
  0
VERTEX
  8
3SENTIER
  5
42c9
 10
423796.630000
 20
6437621.070000
 30
0.000000
  0
VERTEX
  8
3SENTIER
  5
42ca
 10
423794.500000
 20
6437622.810000
 30
0.000000
  0
VERTEX
  8
3SENTIER
  5
42cb
 10
423780.050000
 20
6437625.480000
 30
0.000000
  0
VERTEX
  8
3SENTIER
  5
42cc
 10
423765.340000
 20
6437621.940000
 30
0.000000
  0
VERTEX
  8
3SENTIER
  5
42cd
 10
423762.270000
 20
6437621.120000
 30
0.000000
  0
VERTEX
  8
3SENTIER
  5
42ce
 10
423760.230000
 20
6437619.200000
 30
0.000000
  0
VERTEX
  8
3SENTIER
  5
42cf
 10
423759.590000
 20
6437616.500000
 30
0.000000
  0
VERTEX
  8
3SENTIER
  5
42d0
 10
423760.280000
 20
6437614.110000
 30
0.000000
  0
VERTEX
  8
3SENTIER
  5
42d1
 10
423763.080000
 20
6437608.790000
 30
0.000000
  0
VERTEX
  8
3SENTIER
  5
42d2
 10
423762.400000
 20
6437606.870000
 30
0.000000
  0
VERTEX
  8
3SENTIER
  5
42d3
 10
423760.900000
 20
6437604.850000
 30
0.000000
  0
VERTEX
  8
3SENTIER
  5
42d4
 10
423758.970000
 20
6437603.900000
 30
0.000000
  0
VERTEX
  8
3SENTIER
  5
42d5
 10
423755.770000
 20
6437603.820000
 30
0.000000
  0
VERTEX
  8
3SENTIER
  5
42d6
 10
423753.630000
 20
6437604.560000
 30
0.000000
  0
VERTEX
  8
3SENTIER
  5
42d7
 10
423750.560000
 20
6437606.580000
 30
0.000000
  0
VERTEX
  8
3SENTIER
  5
42d8
 10
423741.850000
 20
6437603.880000
 30
0.000000
  0
VERTEX
  8
3SENTIER
  5
42d9
 10
423740.460000
 20
6437602.840000
 30
0.000000
  0
VERTEX
  8
3SENTIER
  5
42da
 10
423740.240000
 20
6437600.760000
 30
0.000000
  0
VERTEX
  8
3SENTIER
  5
42db
 10
423742.210000
 20
6437581.720000
 30
0.000000
  0
VERTEX
  8
3SENTIER
  5
42dc
 10
423743.810000
 20
6437572.920000
 30
0.000000
  0
VERTEX
  8
3SENTIER
  5
42dd
 10
423745.000000
 20
6437567.410000
 30
0.000000
  0
VERTEX
  8
3SENTIER
  5
42de
 10
423746.030000
 20
6437564.290000
 30
0.000000
  0
VERTEX
  8
3SENTIER
  5
42df
 10
423747.170000
 20
6437562.460000
 30
0.000000
  0
VERTEX
  8
3SENTIER
  5
42e0
 10
423748.560000
 20
6437561.890000
 30
0.000000
  0
VERTEX
  8
3SENTIER
  5
42e1
 10
423761.870000
 20
6437563.660000
 30
0.000000
  0
VERTEX
  8
3SENTIER
  5
42e2
 10
423774.880000
 20
6437567.120000
 30
0.000000
  0
VERTEX
  8
3SENTIER
  5
42e3
 10
423785.390000
 20
6437570.880000
 30
0.000000
  0
VERTEX
  8
3SENTIER
  5
42e4
 10
423792.190000
 20
6437557.300000
 30
0.000000
  0
VERTEX
  8
3SENTIER
  5
42e5
 10
423801.330000
 20
6437531.790000
 30
0.000000
  0
SEQEND
  8
3SENTIER
  5
42e6
  0
POLYLINE
  5
42e7
  8
3SENTIER
 66
    1
 10
0.0
 20
0.0
 30
0.0
 70
     0
  0
VERTEX
  8
3SENTIER
  5
42e8
 10
423696.300000
 20
6437560.020000
 30
0.000000
  0
VERTEX
  8
3SENTIER
  5
42e9
 10
423713.690000
 20
6437565.890000
 30
0.000000
  0
VERTEX
  8
3SENTIER
  5
42ea
 10
423719.550000
 20
6437575.450000
 30
0.000000
  0
VERTEX
  8
3SENTIER
  5
42eb
 10
423721.600000
 20
6437578.890000
 30
0.000000
  0
VERTEX
  8
3SENTIER
  5
42ec
 10
423722.840000
 20
6437582.150000
 30
0.000000
  0
VERTEX
  8
3SENTIER
  5
42ed
 10
423723.800000
 20
6437585.680000
 30
0.000000
  0
VERTEX
  8
3SENTIER
  5
42ee
 10
423724.080000
 20
6437588.350000
 30
0.000000
  0
VERTEX
  8
3SENTIER
  5
42ef
 10
423724.680000
 20
6437600.720000
 30
0.000000
  0
VERTEX
  8
3SENTIER
  5
42f0
 10
423725.110000
 20
6437604.550000
 30
0.000000
  0
VERTEX
  8
3SENTIER
  5
42f1
 10
423725.870000
 20
6437609.460000
 30
0.000000
  0
VERTEX
  8
3SENTIER
  5
42f2
 10
423725.830000
 20
6437611.040000
 30
0.000000
  0
VERTEX
  8
3SENTIER
  5
42f3
 10
423725.290000
 20
6437612.930000
 30
0.000000
  0
VERTEX
  8
3SENTIER
  5
42f4
 10
423723.420000
 20
6437619.200000
 30
0.000000
  0
VERTEX
  8
3SENTIER
  5
42f5
 10
423718.840000
 20
6437620.420000
 30
0.000000
  0
VERTEX
  8
3SENTIER
  5
42f6
 10
423715.750000
 20
6437621.200000
 30
0.000000
  0
VERTEX
  8
3SENTIER
  5
42f7
 10
423710.620000
 20
6437621.140000
 30
0.000000
  0
VERTEX
  8
3SENTIER
  5
42f8
 10
423698.190000
 20
6437617.530000
 30
0.000000
  0
VERTEX
  8
3SENTIER
  5
42f9
 10
423694.250000
 20
6437616.140000
 30
0.000000
  0
VERTEX
  8
3SENTIER
  5
42fa
 10
423691.280000
 20
6437613.620000
 30
0.000000
  0
VERTEX
  8
3SENTIER
  5
42fb
 10
423689.320000
 20
6437610.890000
 30
0.000000
  0
VERTEX
  8
3SENTIER
  5
42fc
 10
423686.970000
 20
6437608.170000
 30
0.000000
  0
VERTEX
  8
3SENTIER
  5
42fd
 10
423684.060000
 20
6437607.080000
 30
0.000000
  0
VERTEX
  8
3SENTIER
  5
42fe
 10
423681.060000
 20
6437607.860000
 30
0.000000
  0
VERTEX
  8
3SENTIER
  5
42ff
 10
423678.590000
 20
6437609.070000
 30
0.000000
  0
VERTEX
  8
3SENTIER
  5
4300
 10
423676.620000
 20
6437611.820000
 30
0.000000
  0
VERTEX
  8
3SENTIER
  5
4301
 10
423662.800000
 20
6437611.180000
 30
0.000000
  0
VERTEX
  8
3SENTIER
  5
4302
 10
423660.450000
 20
6437610.390000
 30
0.000000
  0
VERTEX
  8
3SENTIER
  5
4303
 10
423658.710000
 20
6437609.430000
 30
0.000000
  0
VERTEX
  8
3SENTIER
  5
4304
 10
423657.150000
 20
6437606.550000
 30
0.000000
  0
VERTEX
  8
3SENTIER
  5
4305
 10
423657.020000
 20
6437603.140000
 30
0.000000
  0
VERTEX
  8
3SENTIER
  5
4306
 10
423658.170000
 20
6437571.350000
 30
0.000000
  0
VERTEX
  8
3SENTIER
  5
4307
 10
423659.270000
 20
6437567.120000
 30
0.000000
  0
VERTEX
  8
3SENTIER
  5
4308
 10
423661.050000
 20
6437564.150000
 30
0.000000
  0
VERTEX
  8
3SENTIER
  5
4309
 10
423663.180000
 20
6437561.790000
 30
0.000000
  0
VERTEX
  8
3SENTIER
  5
430a
 10
423666.070000
 20
6437559.750000
 30
0.000000
  0
VERTEX
  8
3SENTIER
  5
430b
 10
423670.670000
 20
6437557.930000
 30
0.000000
  0
VERTEX
  8
3SENTIER
  5
430c
 10
423687.390000
 20
6437556.040000
 30
0.000000
  0
VERTEX
  8
3SENTIER
  5
430d
 10
423696.310000
 20
6437560.050000
 30
0.000000
  0
VERTEX
  8
3SENTIER
  5
430e
 10
423696.740000
 20
6437544.380000
 30
0.000000
  0
VERTEX
  8
3SENTIER
  5
430f
 10
423700.050000
 20
6437519.250000
 30
0.000000
  0
SEQEND
  8
3SENTIER
  5
4310
  0
POLYLINE
  5
4311
  8
3SENTIER
 66
    1
 10
0.0
 20
0.0
 30
0.0
 70
     0
  0
VERTEX
  8
3SENTIER
  5
4312
 10
423846.150000
 20
6437846.950000
 30
0.000000
  0
VERTEX
  8
3SENTIER
  5
4313
 10
423837.220000
 20
6437848.370000
 30
0.000000
  0
VERTEX
  8
3SENTIER
  5
4314
 10
423832.030000
 20
6437848.710000
 30
0.000000
  0
VERTEX
  8
3SENTIER
  5
4315
 10
423829.130000
 20
6437848.360000
 30
0.000000
  0
VERTEX
  8
3SENTIER
  5
4316
 10
423826.810000
 20
6437847.530000
 30
0.000000
  0
VERTEX
  8
3SENTIER
  5
4317
 10
423825.080000
 20
6437845.660000
 30
0.000000
  0
VERTEX
  8
3SENTIER
  5
4318
 10
423822.480000
 20
6437839.120000
 30
0.000000
  0
VERTEX
  8
3SENTIER
  5
4319
 10
423822.290000
 20
6437835.260000
 30
0.000000
  0
VERTEX
  8
3SENTIER
  5
431a
 10
423823.340000
 20
6437808.340000
 30
0.000000
  0
VERTEX
  8
3SENTIER
  5
431b
 10
423823.430000
 20
6437805.760000
 30
0.000000
  0
VERTEX
  8
3SENTIER
  5
431c
 10
423824.520000
 20
6437803.770000
 30
0.000000
  0
VERTEX
  8
3SENTIER
  5
431d
 10
423828.510000
 20
6437799.060000
 30
0.000000
  0
VERTEX
  8
3SENTIER
  5
431e
 10
423833.010000
 20
6437795.720000
 30
0.000000
  0
VERTEX
  8
3SENTIER
  5
431f
 10
423845.780000
 20
6437786.500000
 30
0.000000
  0
VERTEX
  8
3SENTIER
  5
4320
 10
423852.390000
 20
6437784.260000
 30
0.000000
  0
VERTEX
  8
3SENTIER
  5
4321
 10
423858.510000
 20
6437782.020000
 30
0.000000
  0
VERTEX
  8
3SENTIER
  5
4322
 10
423866.370000
 20
6437780.480000
 30
0.000000
  0
VERTEX
  8
3SENTIER
  5
4323
 10
423872.980000
 20
6437780.320000
 30
0.000000
  0
VERTEX
  8
3SENTIER
  5
4324
 10
423880.370000
 20
6437781.940000
 30
0.000000
  0
VERTEX
  8
3SENTIER
  5
4325
 10
423887.920000
 20
6437784.060000
 30
0.000000
  0
VERTEX
  8
3SENTIER
  5
4326
 10
423896.520000
 20
6437787.440000
 30
0.000000
  0
VERTEX
  8
3SENTIER
  5
4327
 10
423905.740000
 20
6437792.350000
 30
0.000000
  0
VERTEX
  8
3SENTIER
  5
4328
 10
423908.400000
 20
6437794.670000
 30
0.000000
  0
VERTEX
  8
3SENTIER
  5
4329
 10
423909.940000
 20
6437797.050000
 30
0.000000
  0
VERTEX
  8
3SENTIER
  5
432a
 10
423912.070000
 20
6437801.610000
 30
0.000000
  0
VERTEX
  8
3SENTIER
  5
432b
 10
423913.410000
 20
6437805.800000
 30
0.000000
  0
VERTEX
  8
3SENTIER
  5
432c
 10
423914.130000
 20
6437811.140000
 30
0.000000
  0
VERTEX
  8
3SENTIER
  5
432d
 10
423913.700000
 20
6437820.500000
 30
0.000000
  0
VERTEX
  8
3SENTIER
  5
432e
 10
423913.400000
 20
6437822.840000
 30
0.000000
  0
VERTEX
  8
3SENTIER
  5
432f
 10
423912.150000
 20
6437825.150000
 30
0.000000
  0
VERTEX
  8
3SENTIER
  5
4330
 10
423910.040000
 20
6437826.850000
 30
0.000000
  0
VERTEX
  8
3SENTIER
  5
4331
 10
423906.290000
 20
6437829.270000
 30
0.000000
  0
VERTEX
  8
3SENTIER
  5
4332
 10
423892.160000
 20
6437834.860000
 30
0.000000
  0
VERTEX
  8
3SENTIER
  5
4333
 10
423880.420000
 20
6437836.140000
 30
0.000000
  0
VERTEX
  8
3SENTIER
  5
4334
 10
423879.560000
 20
6437835.590000
 30
0.000000
  0
VERTEX
  8
3SENTIER
  5
4335
 10
423878.780000
 20
6437832.700000
 30
0.000000
  0
VERTEX
  8
3SENTIER
  5
4336
 10
423877.780000
 20
6437830.570000
 30
0.000000
  0
VERTEX
  8
3SENTIER
  5
4337
 10
423875.760000
 20
6437829.810000
 30
0.000000
  0
VERTEX
  8
3SENTIER
  5
4338
 10
423872.890000
 20
6437830.240000
 30
0.000000
  0
VERTEX
  8
3SENTIER
  5
4339
 10
423870.480000
 20
6437831.150000
 30
0.000000
  0
VERTEX
  8
3SENTIER
  5
433a
 10
423869.050000
 20
6437833.240000
 30
0.000000
  0
VERTEX
  8
3SENTIER
  5
433b
 10
423867.260000
 20
6437837.480000
 30
0.000000
  0
VERTEX
  8
3SENTIER
  5
433c
 10
423865.760000
 20
6437839.470000
 30
0.000000
  0
VERTEX
  8
3SENTIER
  5
433d
 10
423864.190000
 20
6437841.110000
 30
0.000000
  0
VERTEX
  8
3SENTIER
  5
433e
 10
423861.730000
 20
6437842.390000
 30
0.000000
  0
VERTEX
  8
3SENTIER
  5
433f
 10
423858.730000
 20
6437843.590000
 30
0.000000
  0
VERTEX
  8
3SENTIER
  5
4340
 10
423853.750000
 20
6437845.060000
 30
0.000000
  0
VERTEX
  8
3SENTIER
  5
4341
 10
423846.150000
 20
6437846.950000
 30
0.000000
  0
VERTEX
  8
3SENTIER
  5
4342
 10
423826.510000
 20
6437882.660000
 30
0.000000
  0
VERTEX
  8
3SENTIER
  5
4343
 10
423826.720000
 20
6437885.370000
 30
0.000000
  0
SEQEND
  8
3SENTIER
  5
4344
  0
POLYLINE
  5
4345
  8
3SENTIER
 66
    1
 10
0.0
 20
0.0
 30
0.0
 70
     0
  0
VERTEX
  8
3SENTIER
  5
4346
 10
423984.300000
 20
6437826.350000
 30
0.000000
  0
VERTEX
  8
3SENTIER
  5
4347
 10
423983.910000
 20
6437826.460000
 30
0.000000
  0
VERTEX
  8
3SENTIER
  5
4348
 10
423982.720000
 20
6437823.890000
 30
0.000000
  0
VERTEX
  8
3SENTIER
  5
4349
 10
423980.770000
 20
6437822.590000
 30
0.000000
  0
VERTEX
  8
3SENTIER
  5
434a
 10
423977.880000
 20
6437822.390000
 30
0.000000
  0
VERTEX
  8
3SENTIER
  5
434b
 10
423973.260000
 20
6437823.540000
 30
0.000000
  0
VERTEX
  8
3SENTIER
  5
434c
 10
423971.950000
 20
6437824.870000
 30
0.000000
  0
VERTEX
  8
3SENTIER
  5
434d
 10
423971.560000
 20
6437827.130000
 30
0.000000
  0
VERTEX
  8
3SENTIER
  5
434e
 10
423928.470000
 20
6437829.010000
 30
0.000000
  0
VERTEX
  8
3SENTIER
  5
434f
 10
423926.020000
 20
6437827.820000
 30
0.000000
  0
VERTEX
  8
3SENTIER
  5
4350
 10
423925.240000
 20
6437826.460000
 30
0.000000
  0
VERTEX
  8
3SENTIER
  5
4351
 10
423924.410000
 20
6437824.790000
 30
0.000000
  0
VERTEX
  8
3SENTIER
  5
4352
 10
423923.920000
 20
6437821.220000
 30
0.000000
  0
VERTEX
  8
3SENTIER
  5
4353
 10
423922.510000
 20
6437799.840000
 30
0.000000
  0
VERTEX
  8
3SENTIER
  5
4354
 10
423922.770000
 20
6437794.890000
 30
0.000000
  0
VERTEX
  8
3SENTIER
  5
4355
 10
423924.180000
 20
6437790.060000
 30
0.000000
  0
VERTEX
  8
3SENTIER
  5
4356
 10
423926.630000
 20
6437786.640000
 30
0.000000
  0
VERTEX
  8
3SENTIER
  5
4357
 10
423930.150000
 20
6437782.640000
 30
0.000000
  0
VERTEX
  8
3SENTIER
  5
4358
 10
423937.020000
 20
6437777.240000
 30
0.000000
  0
VERTEX
  8
3SENTIER
  5
4359
 10
423940.060000
 20
6437775.590000
 30
0.000000
  0
VERTEX
  8
3SENTIER
  5
435a
 10
423943.200000
 20
6437774.540000
 30
0.000000
  0
VERTEX
  8
3SENTIER
  5
435b
 10
423946.910000
 20
6437773.850000
 30
0.000000
  0
VERTEX
  8
3SENTIER
  5
435c
 10
423959.610000
 20
6437772.220000
 30
0.000000
  0
VERTEX
  8
3SENTIER
  5
435d
 10
423971.790000
 20
6437770.600000
 30
0.000000
  0
VERTEX
  8
3SENTIER
  5
435e
 10
423980.480000
 20
6437768.780000
 30
0.000000
  0
VERTEX
  8
3SENTIER
  5
435f
 10
423997.060000
 20
6437765.970000
 30
0.000000
  0
VERTEX
  8
3SENTIER
  5
4360
 10
424011.030000
 20
6437764.290000
 30
0.000000
  0
VERTEX
  8
3SENTIER
  5
4361
 10
424013.530000
 20
6437764.380000
 30
0.000000
  0
VERTEX
  8
3SENTIER
  5
4362
 10
424015.810000
 20
6437764.920000
 30
0.000000
  0
VERTEX
  8
3SENTIER
  5
4363
 10
424018.370000
 20
6437766.280000
 30
0.000000
  0
VERTEX
  8
3SENTIER
  5
4364
 10
424020.160000
 20
6437768.240000
 30
0.000000
  0
VERTEX
  8
3SENTIER
  5
4365
 10
424021.600000
 20
6437770.420000
 30
0.000000
  0
VERTEX
  8
3SENTIER
  5
4366
 10
424022.450000
 20
6437772.800000
 30
0.000000
  0
VERTEX
  8
3SENTIER
  5
4367
 10
424023.740000
 20
6437776.400000
 30
0.000000
  0
VERTEX
  8
3SENTIER
  5
4368
 10
424023.660000
 20
6437779.000000
 30
0.000000
  0
VERTEX
  8
3SENTIER
  5
4369
 10
424023.690000
 20
6437787.330000
 30
0.000000
  0
VERTEX
  8
3SENTIER
  5
436a
 10
424025.720000
 20
6437804.240000
 30
0.000000
  0
VERTEX
  8
3SENTIER
  5
436b
 10
424026.290000
 20
6437812.730000
 30
0.000000
  0
VERTEX
  8
3SENTIER
  5
436c
 10
424001.950000
 20
6437820.920000
 30
0.000000
  0
VERTEX
  8
3SENTIER
  5
436d
 10
423984.310000
 20
6437826.360000
 30
0.000000
  0
VERTEX
  8
3SENTIER
  5
436e
 10
423992.990000
 20
6437854.430000
 30
0.000000
  0
SEQEND
  8
3SENTIER
  5
436f
  0
POLYLINE
  5
4370
  8
3SENTIER
 66
    1
 10
0.0
 20
0.0
 30
0.0
 70
     0
  0
VERTEX
  8
3SENTIER
  5
4371
 10
423906.370000
 20
6437753.860000
 30
0.000000
  0
VERTEX
  8
3SENTIER
  5
4372
 10
423890.870000
 20
6437755.610000
 30
0.000000
  0
VERTEX
  8
3SENTIER
  5
4373
 10
423883.890000
 20
6437753.130000
 30
0.000000
  0
VERTEX
  8
3SENTIER
  5
4374
 10
423882.290000
 20
6437752.280000
 30
0.000000
  0
VERTEX
  8
3SENTIER
  5
4375
 10
423881.940000
 20
6437750.590000
 30
0.000000
  0
VERTEX
  8
3SENTIER
  5
4376
 10
423884.990000
 20
6437738.890000
 30
0.000000
  0
VERTEX
  8
3SENTIER
  5
4377
 10
423888.750000
 20
6437726.860000
 30
0.000000
  0
VERTEX
  8
3SENTIER
  5
4378
 10
423892.900000
 20
6437713.200000
 30
0.000000
  0
VERTEX
  8
3SENTIER
  5
4379
 10
423893.640000
 20
6437709.160000
 30
0.000000
  0
VERTEX
  8
3SENTIER
  5
437a
 10
423893.560000
 20
6437706.320000
 30
0.000000
  0
VERTEX
  8
3SENTIER
  5
437b
 10
423895.320000
 20
6437703.970000
 30
0.000000
  0
VERTEX
  8
3SENTIER
  5
437c
 10
423897.180000
 20
6437702.630000
 30
0.000000
  0
VERTEX
  8
3SENTIER
  5
437d
 10
423900.090000
 20
6437702.570000
 30
0.000000
  0
VERTEX
  8
3SENTIER
  5
437e
 10
423915.940000
 20
6437702.530000
 30
0.000000
  0
VERTEX
  8
3SENTIER
  5
437f
 10
423924.600000
 20
6437702.960000
 30
0.000000
  0
VERTEX
  8
3SENTIER
  5
4380
 10
423934.510000
 20
6437704.520000
 30
0.000000
  0
VERTEX
  8
3SENTIER
  5
4381
 10
423946.030000
 20
6437707.250000
 30
0.000000
  0
VERTEX
  8
3SENTIER
  5
4382
 10
423948.910000
 20
6437708.860000
 30
0.000000
  0
VERTEX
  8
3SENTIER
  5
4383
 10
423953.120000
 20
6437714.460000
 30
0.000000
  0
VERTEX
  8
3SENTIER
  5
4384
 10
423954.200000
 20
6437717.000000
 30
0.000000
  0
VERTEX
  8
3SENTIER
  5
4385
 10
423954.080000
 20
6437719.480000
 30
0.000000
  0
VERTEX
  8
3SENTIER
  5
4386
 10
423952.990000
 20
6437722.710000
 30
0.000000
  0
VERTEX
  8
3SENTIER
  5
4387
 10
423950.980000
 20
6437726.040000
 30
0.000000
  0
VERTEX
  8
3SENTIER
  5
4388
 10
423944.040000
 20
6437735.540000
 30
0.000000
  0
VERTEX
  8
3SENTIER
  5
4389
 10
423924.670000
 20
6437746.940000
 30
0.000000
  0
VERTEX
  8
3SENTIER
  5
438a
 10
423924.160000
 20
6437746.560000
 30
0.000000
  0
VERTEX
  8
3SENTIER
  5
438b
 10
423923.620000
 20
6437746.230000
 30
0.000000
  0
VERTEX
  8
3SENTIER
  5
438c
 10
423923.050000
 20
6437745.950000
 30
0.000000
  0
VERTEX
  8
3SENTIER
  5
438d
 10
423922.460000
 20
6437745.750000
 30
0.000000
  0
VERTEX
  8
3SENTIER
  5
438e
 10
423921.840000
 20
6437745.620000
 30
0.000000
  0
VERTEX
  8
3SENTIER
  5
438f
 10
423921.210000
 20
6437745.570000
 30
0.000000
  0
VERTEX
  8
3SENTIER
  5
4390
 10
423920.580000
 20
6437745.590000
 30
0.000000
  0
VERTEX
  8
3SENTIER
  5
4391
 10
423919.950000
 20
6437745.680000
 30
0.000000
  0
VERTEX
  8
3SENTIER
  5
4392
 10
423919.340000
 20
6437745.850000
 30
0.000000
  0
VERTEX
  8
3SENTIER
  5
4393
 10
423918.750000
 20
6437746.090000
 30
0.000000
  0
VERTEX
  8
3SENTIER
  5
4394
 10
423918.210000
 20
6437746.410000
 30
0.000000
  0
VERTEX
  8
3SENTIER
  5
4395
 10
423917.690000
 20
6437746.770000
 30
0.000000
  0
VERTEX
  8
3SENTIER
  5
4396
 10
423917.220000
 20
6437747.210000
 30
0.000000
  0
VERTEX
  8
3SENTIER
  5
4397
 10
423916.820000
 20
6437747.680000
 30
0.000000
  0
VERTEX
  8
3SENTIER
  5
4398
 10
423916.460000
 20
6437748.200000
 30
0.000000
  0
VERTEX
  8
3SENTIER
  5
4399
 10
423916.180000
 20
6437748.770000
 30
0.000000
  0
VERTEX
  8
3SENTIER
  5
439a
 10
423915.960000
 20
6437749.370000
 30
0.000000
  0
VERTEX
  8
3SENTIER
  5
439b
 10
423915.830000
 20
6437749.980000
 30
0.000000
  0
VERTEX
  8
3SENTIER
  5
439c
 10
423915.750000
 20
6437750.610000
 30
0.000000
  0
VERTEX
  8
3SENTIER
  5
439d
 10
423915.760000
 20
6437751.240000
 30
0.000000
  0
VERTEX
  8
3SENTIER
  5
439e
 10
423906.370000
 20
6437753.860000
 30
0.000000
  0
SEQEND
  8
3SENTIER
  5
439f
  0
INSERT
  5
43a0
  8
3FOSSEMI
  2
FOSSMI
  10
423631.860000
  20
6437509.920000
  30
0.000000
  50
188.200000
  0
POLYLINE
  5
43a1
  8
3SENTIER
 66
    1
 10
0.0
 20
0.0
 30
0.0
 70
     0
  0
VERTEX
  8
3SENTIER
  5
43a2
 10
424069.480000
 20
6437694.060000
 30
0.000000
  0
VERTEX
  8
3SENTIER
  5
43a3
 10
424068.390000
 20
6437697.670000
 30
0.000000
  0
VERTEX
  8
3SENTIER
  5
43a4
 10
424063.090000
 20
6437714.000000
 30
0.000000
  0
VERTEX
  8
3SENTIER
  5
43a5
 10
424060.760000
 20
6437723.470000
 30
0.000000
  0
VERTEX
  8
3SENTIER
  5
43a6
 10
424057.880000
 20
6437723.190000
 30
0.000000
  0
VERTEX
  8
3SENTIER
  5
43a7
 10
424055.340000
 20
6437734.800000
 30
0.000000
  0
VERTEX
  8
3SENTIER
  5
43a8
 10
424053.100000
 20
6437741.990000
 30
0.000000
  0
VERTEX
  8
3SENTIER
  5
43a9
 10
424052.210000
 20
6437744.420000
 30
0.000000
  0
VERTEX
  8
3SENTIER
  5
43aa
 10
424050.690000
 20
6437747.660000
 30
0.000000
  0
VERTEX
  8
3SENTIER
  5
43ab
 10
424049.160000
 20
6437749.290000
 30
0.000000
  0
VERTEX
  8
3SENTIER
  5
43ac
 10
424047.070000
 20
6437750.850000
 30
0.000000
  0
VERTEX
  8
3SENTIER
  5
43ad
 10
424044.850000
 20
6437751.520000
 30
0.000000
  0
VERTEX
  8
3SENTIER
  5
43ae
 10
424029.790000
 20
6437745.940000
 30
0.000000
  0
VERTEX
  8
3SENTIER
  5
43af
 10
424012.490000
 20
6437739.580000
 30
0.000000
  0
VERTEX
  8
3SENTIER
  5
43b0
 10
424011.110000
 20
6437735.530000
 30
0.000000
  0
VERTEX
  8
3SENTIER
  5
43b1
 10
424009.750000
 20
6437731.030000
 30
0.000000
  0
VERTEX
  8
3SENTIER
  5
43b2
 10
424009.000000
 20
6437727.520000
 30
0.000000
  0
VERTEX
  8
3SENTIER
  5
43b3
 10
424009.230000
 20
6437720.040000
 30
0.000000
  0
VERTEX
  8
3SENTIER
  5
43b4
 10
424009.540000
 20
6437713.530000
 30
0.000000
  0
VERTEX
  8
3SENTIER
  5
43b5
 10
424010.770000
 20
6437707.670000
 30
0.000000
  0
VERTEX
  8
3SENTIER
  5
43b6
 10
424012.380000
 20
6437701.150000
 30
0.000000
  0
VERTEX
  8
3SENTIER
  5
43b7
 10
424014.720000
 20
6437694.200000
 30
0.000000
  0
VERTEX
  8
3SENTIER
  5
43b8
 10
424017.890000
 20
6437686.050000
 30
0.000000
  0
VERTEX
  8
3SENTIER
  5
43b9
 10
424021.000000
 20
6437679.680000
 30
0.000000
  0
VERTEX
  8
3SENTIER
  5
43ba
 10
424023.690000
 20
6437674.060000
 30
0.000000
  0
VERTEX
  8
3SENTIER
  5
43bb
 10
424026.060000
 20
6437672.160000
 30
0.000000
  0
VERTEX
  8
3SENTIER
  5
43bc
 10
424028.600000
 20
6437672.430000
 30
0.000000
  0
VERTEX
  8
3SENTIER
  5
43bd
 10
424032.530000
 20
6437673.320000
 30
0.000000
  0
VERTEX
  8
3SENTIER
  5
43be
 10
424046.600000
 20
6437676.670000
 30
0.000000
  0
VERTEX
  8
3SENTIER
  5
43bf
 10
424058.170000
 20
6437680.160000
 30
0.000000
  0
VERTEX
  8
3SENTIER
  5
43c0
 10
424071.370000
 20
6437683.680000
 30
0.000000
  0
VERTEX
  8
3SENTIER
  5
43c1
 10
424069.870000
 20
6437688.610000
 30
0.000000
  0
VERTEX
  8
3SENTIER
  5
43c2
 10
424069.480000
 20
6437694.070000
 30
0.000000
  0
VERTEX
  8
3SENTIER
  5
43c3
 10
424094.730000
 20
6437696.440000
 30
0.000000
  0
SEQEND
  8
3SENTIER
  5
43c4
  0
POLYLINE
  5
43c5
  8
3SENTIER
 66
    1
 10
0.0
 20
0.0
 30
0.0
 70
     0
  0
VERTEX
  8
3SENTIER
  5
43c6
 10
423986.020000
 20
6437565.820000
 30
0.000000
  0
VERTEX
  8
3SENTIER
  5
43c7
 10
423997.480000
 20
6437569.030000
 30
0.000000
  0
VERTEX
  8
3SENTIER
  5
43c8
 10
423999.430000
 20
6437570.490000
 30
0.000000
  0
VERTEX
  8
3SENTIER
  5
43c9
 10
424000.910000
 20
6437572.200000
 30
0.000000
  0
VERTEX
  8
3SENTIER
  5
43ca
 10
424001.390000
 20
6437575.010000
 30
0.000000
  0
VERTEX
  8
3SENTIER
  5
43cb
 10
424001.980000
 20
6437582.060000
 30
0.000000
  0
VERTEX
  8
3SENTIER
  5
43cc
 10
424001.430000
 20
6437590.970000
 30
0.000000
  0
VERTEX
  8
3SENTIER
  5
43cd
 10
423999.860000
 20
6437596.050000
 30
0.000000
  0
VERTEX
  8
3SENTIER
  5
43ce
 10
423998.030000
 20
6437598.510000
 30
0.000000
  0
VERTEX
  8
3SENTIER
  5
43cf
 10
423996.540000
 20
6437600.510000
 30
0.000000
  0
VERTEX
  8
3SENTIER
  5
43d0
 10
423994.170000
 20
6437602.670000
 30
0.000000
  0
VERTEX
  8
3SENTIER
  5
43d1
 10
423990.970000
 20
6437604.480000
 30
0.000000
  0
VERTEX
  8
3SENTIER
  5
43d2
 10
423987.490000
 20
6437605.890000
 30
0.000000
  0
VERTEX
  8
3SENTIER
  5
43d3
 10
423981.400000
 20
6437607.710000
 30
0.000000
  0
VERTEX
  8
3SENTIER
  5
43d4
 10
423969.110000
 20
6437609.350000
 30
0.000000
  0
VERTEX
  8
3SENTIER
  5
43d5
 10
423959.280000
 20
6437608.770000
 30
0.000000
  0
VERTEX
  8
3SENTIER
  5
43d6
 10
423955.040000
 20
6437606.660000
 30
0.000000
  0
VERTEX
  8
3SENTIER
  5
43d7
 10
423952.490000
 20
6437605.200000
 30
0.000000
  0
VERTEX
  8
3SENTIER
  5
43d8
 10
423948.490000
 20
6437600.720000
 30
0.000000
  0
VERTEX
  8
3SENTIER
  5
43d9
 10
423946.220000
 20
6437597.530000
 30
0.000000
  0
VERTEX
  8
3SENTIER
  5
43da
 10
423944.460000
 20
6437592.410000
 30
0.000000
  0
VERTEX
  8
3SENTIER
  5
43db
 10
423944.060000
 20
6437588.040000
 30
0.000000
  0
VERTEX
  8
3SENTIER
  5
43dc
 10
423944.380000
 20
6437582.910000
 30
0.000000
  0
VERTEX
  8
3SENTIER
  5
43dd
 10
423946.810000
 20
6437565.560000
 30
0.000000
  0
VERTEX
  8
3SENTIER
  5
43de
 10
423947.970000
 20
6437563.150000
 30
0.000000
  0
VERTEX
  8
3SENTIER
  5
43df
 10
423950.040000
 20
6437561.300000
 30
0.000000
  0
VERTEX
  8
3SENTIER
  5
43e0
 10
423969.630000
 20
6437563.380000
 30
0.000000
  0
VERTEX
  8
3SENTIER
  5
43e1
 10
423973.720000
 20
6437566.490000
 30
0.000000
  0
VERTEX
  8
3SENTIER
  5
43e2
 10
423976.380000
 20
6437568.940000
 30
0.000000
  0
VERTEX
  8
3SENTIER
  5
43e3
 10
423977.800000
 20
6437569.300000
 30
0.000000
  0
VERTEX
  8
3SENTIER
  5
43e4
 10
423979.850000
 20
6437568.780000
 30
0.000000
  0
VERTEX
  8
3SENTIER
  5
43e5
 10
423982.200000
 20
6437566.150000
 30
0.000000
  0
VERTEX
  8
3SENTIER
  5
43e6
 10
423984.080000
 20
6437565.280000
 30
0.000000
  0
VERTEX
  8
3SENTIER
  5
43e7
 10
423986.020000
 20
6437565.820000
 30
0.000000
  0
VERTEX
  8
3SENTIER
  5
43e8
 10
423987.470000
 20
6437554.830000
 30
0.000000
  0
SEQEND
  8
3SENTIER
  5
43e9
  0
POLYLINE
  5
43ea
  8
3SENTIER
 66
    1
 10
0.0
 20
0.0
 30
0.0
 70
     0
  0
VERTEX
  8
3SENTIER
  5
43eb
 10
422805.260000
 20
6437839.060000
 30
0.000000
  0
VERTEX
  8
3SENTIER
  5
43ec
 10
422800.120000
 20
6437843.000000
 30
0.000000
  0
SEQEND
  8
3SENTIER
  5
43ed
  0
POLYLINE
  5
43ee
  8
3SENTIER
 66
    1
 10
0.0
 20
0.0
 30
0.0
 70
     0
  0
VERTEX
  8
3SENTIER
  5
43ef
 10
422805.360000
 20
6437842.870000
 30
0.000000
  0
VERTEX
  8
3SENTIER
  5
43f0
 10
422800.130000
 20
6437839.040000
 30
0.000000
  0
SEQEND
  8
3SENTIER
  5
43f1
  0
INSERT
  5
43f2
  8
3CALVAIRE
  2
DETATOPO
  10
423019.930000
  20
6437755.370000
  30
0.000000
  50
270.000000
  0
TEXT
  5
43f3
  8
3CALVAIRETEX
  10
423017.080000
  20
6437758.050000
  30
0.000000
  40
2.000000
   1
1.10
  50
0.000000
   7
STANDARD
  0
INSERT
  5
43f4
  8
3CALVAIRE
  2
DETATOPO
  10
423047.670000
  20
6437981.800000
  30
0.000000
  50
270.000000
  0
TEXT
  5
43f5
  8
3CALVAIRETEX
  10
423045.620000
  20
6437983.740000
  30
0.000000
  40
2.000000
   1
1.30
  50
0.000000
   7
STANDARD
  0
INSERT
  5
43f6
  8
3CALVAIRE
  2
DETATOPO
  10
423420.820000
  20
6437881.180000
  30
0.000000
  50
270.000000
  0
TEXT
  5
43f7
  8
3CALVAIRETEX
  10
423418.570000
  20
6437883.210000
  30
0.000000
  40
2.000000
   1
1.25
  50
0.000000
   7
STANDARD
  0
POLYLINE
  5
43f8
  8
3SENTIER
 66
    1
 10
0.0
 20
0.0
 30
0.0
 70
     0
  0
VERTEX
  8
3SENTIER
  5
43f9
 10
423430.780000
 20
6438160.940000
 30
0.000000
  0
VERTEX
  8
3SENTIER
  5
43fa
 10
423421.640000
 20
6438162.640000
 30
0.000000
  0
VERTEX
  8
3SENTIER
  5
43fb
 10
423420.430000
 20
6438159.380000
 30
0.000000
  0
VERTEX
  8
3SENTIER
  5
43fc
 10
423418.070000
 20
6438157.050000
 30
0.000000
  0
VERTEX
  8
3SENTIER
  5
43fd
 10
423414.660000
 20
6438155.930000
 30
0.000000
  0
VERTEX
  8
3SENTIER
  5
43fe
 10
423408.210000
 20
6438155.210000
 30
0.000000
  0
VERTEX
  8
3SENTIER
  5
43ff
 10
423405.250000
 20
6438155.800000
 30
0.000000
  0
VERTEX
  8
3SENTIER
  5
4400
 10
423402.530000
 20
6438157.600000
 30
0.000000
  0
VERTEX
  8
3SENTIER
  5
4401
 10
423401.020000
 20
6438159.640000
 30
0.000000
  0
VERTEX
  8
3SENTIER
  5
4402
 10
423394.000000
 20
6438159.460000
 30
0.000000
  0
VERTEX
  8
3SENTIER
  5
4403
 10
423391.190000
 20
6438158.260000
 30
0.000000
  0
VERTEX
  8
3SENTIER
  5
4404
 10
423383.670000
 20
6438152.580000
 30
0.000000
  0
VERTEX
  8
3SENTIER
  5
4405
 10
423382.450000
 20
6438150.660000
 30
0.000000
  0
VERTEX
  8
3SENTIER
  5
4406
 10
423381.240000
 20
6438147.920000
 30
0.000000
  0
VERTEX
  8
3SENTIER
  5
4407
 10
423380.720000
 20
6438144.770000
 30
0.000000
  0
VERTEX
  8
3SENTIER
  5
4408
 10
423380.370000
 20
6438141.880000
 30
0.000000
  0
VERTEX
  8
3SENTIER
  5
4409
 10
423380.350000
 20
6438138.480000
 30
0.000000
  0
VERTEX
  8
3SENTIER
  5
440a
 10
423380.670000
 20
6438134.610000
 30
0.000000
  0
VERTEX
  8
3SENTIER
  5
440b
 10
423381.310000
 20
6438131.670000
 30
0.000000
  0
VERTEX
  8
3SENTIER
  5
440c
 10
423382.750000
 20
6438127.530000
 30
0.000000
  0
VERTEX
  8
3SENTIER
  5
440d
 10
423384.860000
 20
6438123.030000
 30
0.000000
  0
VERTEX
  8
3SENTIER
  5
440e
 10
423392.210000
 20
6438120.840000
 30
0.000000
  0
VERTEX
  8
3SENTIER
  5
440f
 10
423396.760000
 20
6438119.880000
 30
0.000000
  0
VERTEX
  8
3SENTIER
  5
4410
 10
423416.930000
 20
6438116.810000
 30
0.000000
  0
VERTEX
  8
3SENTIER
  5
4411
 10
423427.790000
 20
6438115.990000
 30
0.000000
  0
VERTEX
  8
3SENTIER
  5
4412
 10
423431.670000
 20
6438116.290000
 30
0.000000
  0
VERTEX
  8
3SENTIER
  5
4413
 10
423435.200000
 20
6438117.610000
 30
0.000000
  0
VERTEX
  8
3SENTIER
  5
4414
 10
423437.860000
 20
6438120.490000
 30
0.000000
  0
VERTEX
  8
3SENTIER
  5
4415
 10
423443.540000
 20
6438131.530000
 30
0.000000
  0
VERTEX
  8
3SENTIER
  5
4416
 10
423445.820000
 20
6438136.640000
 30
0.000000
  0
VERTEX
  8
3SENTIER
  5
4417
 10
423447.090000
 20
6438141.650000
 30
0.000000
  0
VERTEX
  8
3SENTIER
  5
4418
 10
423447.620000
 20
6438145.410000
 30
0.000000
  0
VERTEX
  8
3SENTIER
  5
4419
 10
423447.710000
 20
6438149.030000
 30
0.000000
  0
VERTEX
  8
3SENTIER
  5
441a
 10
423447.100000
 20
6438154.580000
 30
0.000000
  0
VERTEX
  8
3SENTIER
  5
441b
 10
423445.990000
 20
6438156.510000
 30
0.000000
  0
VERTEX
  8
3SENTIER
  5
441c
 10
423443.870000
 20
6438157.750000
 30
0.000000
  0
VERTEX
  8
3SENTIER
  5
441d
 10
423441.070000
 20
6438158.610000
 30
0.000000
  0
VERTEX
  8
3SENTIER
  5
441e
 10
423437.210000
 20
6438159.650000
 30
0.000000
  0
VERTEX
  8
3SENTIER
  5
441f
 10
423430.780000
 20
6438160.940000
 30
0.000000
  0
VERTEX
  8
3SENTIER
  5
4420
 10
423439.430000
 20
6438200.510000
 30
0.000000
  0
SEQEND
  8
3SENTIER
  5
4421
  0
POLYLINE
  5
4422
  8
3SENTIER
 66
    1
 10
0.0
 20
0.0
 30
0.0
 70
     0
  0
VERTEX
  8
3SENTIER
  5
4423
 10
423468.390000
 20
6437980.120000
 30
0.000000
  0
VERTEX
  8
3SENTIER
  5
4424
 10
423483.990000
 20
6437985.120000
 30
0.000000
  0
VERTEX
  8
3SENTIER
  5
4425
 10
423488.230000
 20
6437986.460000
 30
0.000000
  0
VERTEX
  8
3SENTIER
  5
4426
 10
423490.220000
 20
6437987.700000
 30
0.000000
  0
VERTEX
  8
3SENTIER
  5
4427
 10
423492.160000
 20
6437989.460000
 30
0.000000
  0
VERTEX
  8
3SENTIER
  5
4428
 10
423493.960000
 20
6437992.090000
 30
0.000000
  0
VERTEX
  8
3SENTIER
  5
4429
 10
423501.280000
 20
6438010.240000
 30
0.000000
  0
VERTEX
  8
3SENTIER
  5
442a
 10
423502.190000
 20
6438014.040000
 30
0.000000
  0
VERTEX
  8
3SENTIER
  5
442b
 10
423501.690000
 20
6438016.850000
 30
0.000000
  0
VERTEX
  8
3SENTIER
  5
442c
 10
423500.550000
 20
6438019.200000
 30
0.000000
  0
VERTEX
  8
3SENTIER
  5
442d
 10
423498.680000
 20
6438020.080000
 30
0.000000
  0
VERTEX
  8
3SENTIER
  5
442e
 10
423486.030000
 20
6438021.760000
 30
0.000000
  0
VERTEX
  8
3SENTIER
  5
442f
 10
423482.020000
 20
6438021.840000
 30
0.000000
  0
VERTEX
  8
3SENTIER
  5
4430
 10
423472.290000
 20
6438021.000000
 30
0.000000
  0
VERTEX
  8
3SENTIER
  5
4431
 10
423465.730000
 20
6438020.190000
 30
0.000000
  0
VERTEX
  8
3SENTIER
  5
4432
 10
423461.100000
 20
6438020.090000
 30
0.000000
  0
VERTEX
  8
3SENTIER
  5
4433
 10
423457.950000
 20
6438020.620000
 30
0.000000
  0
VERTEX
  8
3SENTIER
  5
4434
 10
423453.640000
 20
6438021.780000
 30
0.000000
  0
VERTEX
  8
3SENTIER
  5
4435
 10
423445.820000
 20
6438028.150000
 30
0.000000
  0
VERTEX
  8
3SENTIER
  5
4436
 10
423444.290000
 20
6438028.920000
 30
0.000000
  0
VERTEX
  8
3SENTIER
  5
4437
 10
423442.410000
 20
6438029.200000
 30
0.000000
  0
VERTEX
  8
3SENTIER
  5
4438
 10
423440.320000
 20
6438029.120000
 30
0.000000
  0
VERTEX
  8
3SENTIER
  5
4439
 10
423438.860000
 20
6438028.350000
 30
0.000000
  0
VERTEX
  8
3SENTIER
  5
443a
 10
423437.000000
 20
6438026.610000
 30
0.000000
  0
VERTEX
  8
3SENTIER
  5
443b
 10
423426.860000
 20
6438010.420000
 30
0.000000
  0
VERTEX
  8
3SENTIER
  5
443c
 10
423425.140000
 20
6438006.210000
 30
0.000000
  0
VERTEX
  8
3SENTIER
  5
443d
 10
423424.140000
 20
6438001.690000
 30
0.000000
  0
VERTEX
  8
3SENTIER
  5
443e
 10
423424.050000
 20
6437998.130000
 30
0.000000
  0
VERTEX
  8
3SENTIER
  5
443f
 10
423424.840000
 20
6437994.620000
 30
0.000000
  0
VERTEX
  8
3SENTIER
  5
4440
 10
423426.540000
 20
6437991.310000
 30
0.000000
  0
VERTEX
  8
3SENTIER
  5
4441
 10
423435.760000
 20
6437982.320000
 30
0.000000
  0
VERTEX
  8
3SENTIER
  5
4442
 10
423438.340000
 20
6437980.480000
 30
0.000000
  0
VERTEX
  8
3SENTIER
  5
4443
 10
423441.390000
 20
6437979.330000
 30
0.000000
  0
VERTEX
  8
3SENTIER
  5
4444
 10
423445.180000
 20
6437978.270000
 30
0.000000
  0
VERTEX
  8
3SENTIER
  5
4445
 10
423453.690000
 20
6437978.660000
 30
0.000000
  0
VERTEX
  8
3SENTIER
  5
4446
 10
423457.960000
 20
6437978.820000
 30
0.000000
  0
VERTEX
  8
3SENTIER
  5
4447
 10
423462.410000
 20
6437978.630000
 30
0.000000
  0
VERTEX
  8
3SENTIER
  5
4448
 10
423468.390000
 20
6437980.120000
 30
0.000000
  0
VERTEX
  8
3SENTIER
  5
4449
 10
423478.110000
 20
6437921.140000
 30
0.000000
  0
VERTEX
  8
3SENTIER
  5
444a
 10
423478.640000
 20
6437917.750000
 30
0.000000
  0
VERTEX
  8
3SENTIER
  5
444b
 10
423478.450000
 20
6437914.140000
 30
0.000000
  0
VERTEX
  8
3SENTIER
  5
444c
 10
423477.340000
 20
6437909.000000
 30
0.000000
  0
SEQEND
  8
3SENTIER
  5
444d
  0
POLYLINE
  5
444e
  8
3SENTIER
 66
    1
 10
0.0
 20
0.0
 30
0.0
 70
     0
  0
VERTEX
  8
3SENTIER
  5
444f
 10
423608.140000
 20
6437810.390000
 30
0.000000
  0
VERTEX
  8
3SENTIER
  5
4450
 10
423606.550000
 20
6437810.050000
 30
0.000000
  0
VERTEX
  8
3SENTIER
  5
4451
 10
423604.520000
 20
6437809.040000
 30
0.000000
  0
VERTEX
  8
3SENTIER
  5
4452
 10
423605.060000
 20
6437795.160000
 30
0.000000
  0
VERTEX
  8
3SENTIER
  5
4453
 10
423606.050000
 20
6437790.480000
 30
0.000000
  0
VERTEX
  8
3SENTIER
  5
4454
 10
423606.910000
 20
6437787.270000
 30
0.000000
  0
VERTEX
  8
3SENTIER
  5
4455
 10
423608.830000
 20
6437783.420000
 30
0.000000
  0
VERTEX
  8
3SENTIER
  5
4456
 10
423611.980000
 20
6437777.810000
 30
0.000000
  0
VERTEX
  8
3SENTIER
  5
4457
 10
423618.020000
 20
6437769.570000
 30
0.000000
  0
VERTEX
  8
3SENTIER
  5
4458
 10
423621.340000
 20
6437767.600000
 30
0.000000
  0
VERTEX
  8
3SENTIER
  5
4459
 10
423630.130000
 20
6437764.650000
 30
0.000000
  0
VERTEX
  8
3SENTIER
  5
445a
 10
423635.400000
 20
6437763.320000
 30
0.000000
  0
VERTEX
  8
3SENTIER
  5
445b
 10
423641.540000
 20
6437762.250000
 30
0.000000
  0
VERTEX
  8
3SENTIER
  5
445c
 10
423645.160000
 20
6437761.760000
 30
0.000000
  0
VERTEX
  8
3SENTIER
  5
445d
 10
423650.180000
 20
6437762.130000
 30
0.000000
  0
VERTEX
  8
3SENTIER
  5
445e
 10
423662.430000
 20
6437766.150000
 30
0.000000
  0
VERTEX
  8
3SENTIER
  5
445f
 10
423672.580000
 20
6437771.090000
 30
0.000000
  0
VERTEX
  8
3SENTIER
  5
4460
 10
423675.860000
 20
6437773.210000
 30
0.000000
  0
VERTEX
  8
3SENTIER
  5
4461
 10
423677.970000
 20
6437775.470000
 30
0.000000
  0
VERTEX
  8
3SENTIER
  5
4462
 10
423680.490000
 20
6437781.850000
 30
0.000000
  0
VERTEX
  8
3SENTIER
  5
4463
 10
423682.870000
 20
6437789.160000
 30
0.000000
  0
VERTEX
  8
3SENTIER
  5
4464
 10
423684.230000
 20
6437795.160000
 30
0.000000
  0
VERTEX
  8
3SENTIER
  5
4465
 10
423685.540000
 20
6437800.570000
 30
0.000000
  0
VERTEX
  8
3SENTIER
  5
4466
 10
423685.830000
 20
6437804.530000
 30
0.000000
  0
VERTEX
  8
3SENTIER
  5
4467
 10
423685.400000
 20
6437807.300000
 30
0.000000
  0
VERTEX
  8
3SENTIER
  5
4468
 10
423684.750000
 20
6437808.970000
 30
0.000000
  0
VERTEX
  8
3SENTIER
  5
4469
 10
423683.900000
 20
6437809.890000
 30
0.000000
  0
VERTEX
  8
3SENTIER
  5
446a
 10
423681.720000
 20
6437809.860000
 30
0.000000
  0
VERTEX
  8
3SENTIER
  5
446b
 10
423673.990000
 20
6437809.830000
 30
0.000000
  0
VERTEX
  8
3SENTIER
  5
446c
 10
423666.460000
 20
6437810.140000
 30
0.000000
  0
VERTEX
  8
3SENTIER
  5
446d
 10
423656.230000
 20
6437809.530000
 30
0.000000
  0
VERTEX
  8
3SENTIER
  5
446e
 10
423651.100000
 20
6437808.650000
 30
0.000000
  0
VERTEX
  8
3SENTIER
  5
446f
 10
423649.950000
 20
6437805.650000
 30
0.000000
  0
VERTEX
  8
3SENTIER
  5
4470
 10
423647.600000
 20
6437804.250000
 30
0.000000
  0
VERTEX
  8
3SENTIER
  5
4471
 10
423645.090000
 20
6437803.810000
 30
0.000000
  0
VERTEX
  8
3SENTIER
  5
4472
 10
423642.160000
 20
6437804.140000
 30
0.000000
  0
VERTEX
  8
3SENTIER
  5
4473
 10
423639.690000
 20
6437806.000000
 30
0.000000
  0
VERTEX
  8
3SENTIER
  5
4474
 10
423637.770000
 20
6437808.560000
 30
0.000000
  0
VERTEX
  8
3SENTIER
  5
4475
 10
423635.970000
 20
6437810.590000
 30
0.000000
  0
VERTEX
  8
3SENTIER
  5
4476
 10
423608.140000
 20
6437810.390000
 30
0.000000
  0
SEQEND
  8
3SENTIER
  5
4477
  0
POLYLINE
  5
4478
  8
3SENTIER
 66
    1
 10
0.0
 20
0.0
 30
0.0
 70
     0
  0
VERTEX
  8
3SENTIER
  5
4479
 10
423388.430000
 20
6437748.120000
 30
0.000000
  0
VERTEX
  8
3SENTIER
  5
447a
 10
423379.170000
 20
6437751.200000
 30
0.000000
  0
SEQEND
  8
3SENTIER
  5
447b
  0
POLYLINE
  5
447c
  8
3SENTIER
 66
    1
 10
0.0
 20
0.0
 30
0.0
 70
     0
  0
VERTEX
  8
3SENTIER
  5
447d
 10
423381.560000
 20
6437745.430000
 30
0.000000
  0
VERTEX
  8
3SENTIER
  5
447e
 10
423386.150000
 20
6437753.840000
 30
0.000000
  0
SEQEND
  8
3SENTIER
  5
447f
  0
POLYLINE
  5
4480
  8
3SENTIER
 66
    1
 10
0.0
 20
0.0
 30
0.0
 70
     0
  0
VERTEX
  8
3SENTIER
  5
4481
 10
423379.170000
 20
6437751.200000
 30
0.000000
  0
VERTEX
  8
3SENTIER
  5
4482
 10
423381.560000
 20
6437745.430000
 30
0.000000
  0
VERTEX
  8
3SENTIER
  5
4483
 10
423388.430000
 20
6437748.120000
 30
0.000000
  0
VERTEX
  8
3SENTIER
  5
4484
 10
423386.150000
 20
6437753.840000
 30
0.000000
  0
VERTEX
  8
3SENTIER
  5
4485
 10
423379.170000
 20
6437751.200000
 30
0.000000
  0
SEQEND
  8
3SENTIER
  5
4486
  0
INSERT
  5
4487
  8
3CALVAIRE
  2
DETATOPO
  10
423788.750000
  20
6437782.420000
  30
0.000000
  50
270.000000
  0
TEXT
  5
4488
  8
3CALVAIRETEX
  10
423786.890000
  20
6437784.220000
  30
0.000000
  40
2.000000
   1
1.05
  50
0.000000
   7
STANDARD
  0
POLYLINE
  5
4489
  8
3SENTIER
 66
    1
 10
0.0
 20
0.0
 30
0.0
 70
     0
  0
VERTEX
  8
3SENTIER
  5
448a
 10
423745.570000
 20
6437851.670000
 30
0.000000
  0
VERTEX
  8
3SENTIER
  5
448b
 10
423741.860000
 20
6437846.510000
 30
0.000000
  0
VERTEX
  8
3SENTIER
  5
448c
 10
423738.740000
 20
6437846.230000
 30
0.000000
  0
VERTEX
  8
3SENTIER
  5
448d
 10
423734.910000
 20
6437847.590000
 30
0.000000
  0
VERTEX
  8
3SENTIER
  5
448e
 10
423733.700000
 20
6437850.100000
 30
0.000000
  0
VERTEX
  8
3SENTIER
  5
448f
 10
423731.200000
 20
6437854.380000
 30
0.000000
  0
VERTEX
  8
3SENTIER
  5
4490
 10
423729.580000
 20
6437855.010000
 30
0.000000
  0
VERTEX
  8
3SENTIER
  5
4491
 10
423716.840000
 20
6437852.680000
 30
0.000000
  0
VERTEX
  8
3SENTIER
  5
4492
 10
423701.930000
 20
6437848.890000
 30
0.000000
  0
VERTEX
  8
3SENTIER
  5
4493
 10
423695.610000
 20
6437836.070000
 30
0.000000
  0
VERTEX
  8
3SENTIER
  5
4494
 10
423695.480000
 20
6437832.820000
 30
0.000000
  0
VERTEX
  8
3SENTIER
  5
4495
 10
423696.470000
 20
6437828.130000
 30
0.000000
  0
VERTEX
  8
3SENTIER
  5
4496
 10
423698.500000
 20
6437823.200000
 30
0.000000
  0
VERTEX
  8
3SENTIER
  5
4497
 10
423701.560000
 20
6437817.620000
 30
0.000000
  0
VERTEX
  8
3SENTIER
  5
4498
 10
423703.730000
 20
6437815.460000
 30
0.000000
  0
VERTEX
  8
3SENTIER
  5
4499
 10
423707.550000
 20
6437811.370000
 30
0.000000
  0
VERTEX
  8
3SENTIER
  5
449a
 10
423712.100000
 20
6437808.290000
 30
0.000000
  0
VERTEX
  8
3SENTIER
  5
449b
 10
423718.780000
 20
6437804.870000
 30
0.000000
  0
VERTEX
  8
3SENTIER
  5
449c
 10
423725.470000
 20
6437802.110000
 30
0.000000
  0
VERTEX
  8
3SENTIER
  5
449d
 10
423731.280000
 20
6437802.020000
 30
0.000000
  0
VERTEX
  8
3SENTIER
  5
449e
 10
423738.140000
 20
6437802.560000
 30
0.000000
  0
VERTEX
  8
3SENTIER
  5
449f
 10
423748.230000
 20
6437806.140000
 30
0.000000
  0
VERTEX
  8
3SENTIER
  5
44a0
 10
423754.790000
 20
6437807.400000
 30
0.000000
  0
VERTEX
  8
3SENTIER
  5
44a1
 10
423760.110000
 20
6437814.530000
 30
0.000000
  0
VERTEX
  8
3SENTIER
  5
44a2
 10
423765.140000
 20
6437821.150000
 30
0.000000
  0
VERTEX
  8
3SENTIER
  5
44a3
 10
423768.530000
 20
6437826.100000
 30
0.000000
  0
VERTEX
  8
3SENTIER
  5
44a4
 10
423770.500000
 20
6437829.800000
 30
0.000000
  0
VERTEX
  8
3SENTIER
  5
44a5
 10
423772.420000
 20
6437833.900000
 30
0.000000
  0
VERTEX
  8
3SENTIER
  5
44a6
 10
423774.410000
 20
6437839.690000
 30
0.000000
  0
VERTEX
  8
3SENTIER
  5
44a7
 10
423775.500000
 20
6437844.040000
 30
0.000000
  0
VERTEX
  8
3SENTIER
  5
44a8
 10
423775.920000
 20
6437845.790000
 30
0.000000
  0
VERTEX
  8
3SENTIER
  5
44a9
 10
423776.140000
 20
6437848.620000
 30
0.000000
  0
VERTEX
  8
3SENTIER
  5
44aa
 10
423776.060000
 20
6437850.600000
 30
0.000000
  0
VERTEX
  8
3SENTIER
  5
44ab
 10
423775.210000
 20
6437851.820000
 30
0.000000
  0
VERTEX
  8
3SENTIER
  5
44ac
 10
423773.330000
 20
6437853.260000
 30
0.000000
  0
VERTEX
  8
3SENTIER
  5
44ad
 10
423771.110000
 20
6437854.250000
 30
0.000000
  0
VERTEX
  8
3SENTIER
  5
44ae
 10
423767.110000
 20
6437855.300000
 30
0.000000
  0
VERTEX
  8
3SENTIER
  5
44af
 10
423761.930000
 20
6437855.810000
 30
0.000000
  0
VERTEX
  8
3SENTIER
  5
44b0
 10
423755.630000
 20
6437855.750000
 30
0.000000
  0
VERTEX
  8
3SENTIER
  5
44b1
 10
423750.780000
 20
6437855.140000
 30
0.000000
  0
VERTEX
  8
3SENTIER
  5
44b2
 10
423748.190000
 20
6437853.980000
 30
0.000000
  0
VERTEX
  8
3SENTIER
  5
44b3
 10
423745.570000
 20
6437851.680000
 30
0.000000
  0
VERTEX
  8
3SENTIER
  5
44b4
 10
423753.600000
 20
6437898.980000
 30
0.000000
  0
SEQEND
  8
3SENTIER
  5
44b5
  0
INSERT
  5
44b6
  8
3FOSSEMI
  2
FOSSMI
  10
422943.640000
  20
6438270.330000
  30
0.000000
  50
173.700000
  0
POLYLINE
  5
44b7
  8
1COMM
 66
    1
 10
0.0
 20
0.0
 30
0.0
 70
     0
  0
VERTEX
  8
1COMM
  5
44b8
 10
422859.220000
 20
6438294.980000
 30
0.000000
  0
VERTEX
  8
1COMM
  5
44b9
 10
422864.740000
 20
6438277.800000
 30
0.000000
  0
SEQEND
  8
1COMM
  5
44ba
  0
INSERT
  5
44bb
  8
3FOSSEMI
  2
FOSSMI
  10
423249.490000
  20
6438229.510000
  30
0.000000
  50
354.300000
  0
INSERT
  5
44bc
  8
3FOSSEMI
  2
FOSSMI
  10
423112.910000
  20
6438247.900000
  30
0.000000
  50
172.700000
  0
POLYLINE
  5
44bd
  8
1COMM
 66
    1
 10
0.0
 20
0.0
 30
0.0
 70
     0
  0
VERTEX
  8
1COMM
  5
44be
 10
423171.790000
 20
6438239.780000
 30
0.000000
  0
VERTEX
  8
1COMM
  5
44bf
 10
423141.330000
 20
6438244.000000
 30
0.000000
  0
VERTEX
  8
1COMM
  5
44c0
 10
423126.230000
 20
6438246.080000
 30
0.000000
  0
SEQEND
  8
1COMM
  5
44c1
  0
INSERT
  5
44c2
  8
3CALVAIRE
  2
DETATOPO
  10
423533.550000
  20
6438126.650000
  30
0.000000
  50
270.000000
  0
TEXT
  5
44c3
  8
3CALVAIRETEX
  10
423531.410000
  20
6438128.910000
  30
0.000000
  40
2.000000
   1
1.30
  50
0.000000
   7
STANDARD
  0
POLYLINE
  5
44c4
  8
1COMM
 66
    1
 10
0.0
 20
0.0
 30
0.0
 70
     0
  0
VERTEX
  8
1COMM
  5
44c5
 10
423601.250000
 20
6438181.920000
 30
0.000000
  0
VERTEX
  8
1COMM
  5
44c6
 10
423576.300000
 20
6438184.290000
 30
0.000000
  0
SEQEND
  8
1COMM
  5
44c7
  0
POLYLINE
  5
44c8
  8
1PARCELLE
 66
    1
 10
0.0
 20
0.0
 30
0.0
 70
     1
1001
SUPF
1000
000482528
1001
INDP
1000
01
1001
IDU
1000
003000AA0002
  0
VERTEX
  8
1PARCELLE
  5
44c9
 10
423632.220000
 20
6437921.580000
 30
0.000000
  0
VERTEX
  8
1PARCELLE
  5
44ca
 10
424068.880000
 20
6437840.300000
 30
0.000000
  0
VERTEX
  8
1PARCELLE
  5
44cb
 10
424117.620000
 20
6437570.840000
 30
0.000000
  0
VERTEX
  8
1PARCELLE
  5
44cc
 10
424090.160000
 20
6437566.630000
 30
0.000000
  0
VERTEX
  8
1PARCELLE
  5
44cd
 10
423927.930000
 20
6437546.800000
 30
0.000000
  0
VERTEX
  8
1PARCELLE
  5
44ce
 10
423824.760000
 20
6437534.010000
 30
0.000000
  0
VERTEX
  8
1PARCELLE
  5
44cf
 10
423798.380000
 20
6437530.770000
 30
0.000000
  0
VERTEX
  8
1PARCELLE
  5
44d0
 10
423699.800000
 20
6437518.810000
 30
0.000000
  0
VERTEX
  8
1PARCELLE
  5
44d1
 10
423614.750000
 20
6437507.690000
 30
0.000000
  0
VERTEX
  8
1PARCELLE
  5
44d2
 10
423590.260000
 20
6437504.630000
 30
0.000000
  0
VERTEX
  8
1PARCELLE
  5
44d3
 10
423556.780000
 20
6437500.660000
 30
0.000000
  0
VERTEX
  8
1PARCELLE
  5
44d4
 10
423476.200000
 20
6437491.010000
 30
0.000000
  0
VERTEX
  8
1PARCELLE
  5
44d5
 10
423348.330000
 20
6437475.580000
 30
0.000000
  0
VERTEX
  8
1PARCELLE
  5
44d6
 10
423252.780000
 20
6437463.940000
 30
0.000000
  0
VERTEX
  8
1PARCELLE
  5
44d7
 10
423198.830000
 20
6437457.530000
 30
0.000000
  0
VERTEX
  8
1PARCELLE
  5
44d8
 10
423182.150000
 20
6437455.610000
 30
0.000000
  0
VERTEX
  8
1PARCELLE
  5
44d9
 10
423180.040000
 20
6437508.260000
 30
0.000000
  0
VERTEX
  8
1PARCELLE
  5
44da
 10
423175.460000
 20
6437610.200000
 30
0.000000
  0
VERTEX
  8
1PARCELLE
  5
44db
 10
423171.680000
 20
6437703.890000
 30
0.000000
  0
VERTEX
  8
1PARCELLE
  5
44dc
 10
423111.060000
 20
6437695.960000
 30
0.000000
  0
VERTEX
  8
1PARCELLE
  5
44dd
 10
422999.320000
 20
6437680.730000
 30
0.000000
  0
VERTEX
  8
1PARCELLE
  5
44de
 10
422981.640000
 20
6437678.300000
 30
0.000000
  0
VERTEX
  8
1PARCELLE
  5
44df
 10
422970.540000
 20
6437676.850000
 30
0.000000
  0
VERTEX
  8
1PARCELLE
  5
44e0
 10
422886.400000
 20
6437665.970000
 30
0.000000
  0
VERTEX
  8
1PARCELLE
  5
44e1
 10
422746.880000
 20
6437647.990000
 30
0.000000
  0
VERTEX
  8
1PARCELLE
  5
44e2
 10
422732.430000
 20
6437627.520000
 30
0.000000
  0
VERTEX
  8
1PARCELLE
  5
44e3
 10
422720.250000
 20
6437610.550000
 30
0.000000
  0
VERTEX
  8
1PARCELLE
  5
44e4
 10
422725.560000
 20
6437995.050000
 30
0.000000
  0
VERTEX
  8
1PARCELLE
  5
44e5
 10
422725.860000
 20
6438002.240000
 30
0.000000
  0
VERTEX
  8
1PARCELLE
  5
44e6
 10
422725.920000
 20
6438002.630000
 30
0.000000
  0
VERTEX
  8
1PARCELLE
  5
44e7
 10
422725.970000
 20
6438003.000000
 30
0.000000
  0
VERTEX
  8
1PARCELLE
  5
44e8
 10
422726.030000
 20
6438003.380000
 30
0.000000
  0
VERTEX
  8
1PARCELLE
  5
44e9
 10
422726.130000
 20
6438003.750000
 30
0.000000
  0
VERTEX
  8
1PARCELLE
  5
44ea
 10
422726.240000
 20
6438004.110000
 30
0.000000
  0
VERTEX
  8
1PARCELLE
  5
44eb
 10
422726.370000
 20
6438004.460000
 30
0.000000
  0
VERTEX
  8
1PARCELLE
  5
44ec
 10
422726.530000
 20
6438004.810000
 30
0.000000
  0
VERTEX
  8
1PARCELLE
  5
44ed
 10
422726.690000
 20
6438005.150000
 30
0.000000
  0
VERTEX
  8
1PARCELLE
  5
44ee
 10
422726.880000
 20
6438005.490000
 30
0.000000
  0
VERTEX
  8
1PARCELLE
  5
44ef
 10
422727.080000
 20
6438005.810000
 30
0.000000
  0
VERTEX
  8
1PARCELLE
  5
44f0
 10
422727.310000
 20
6438006.130000
 30
0.000000
  0
VERTEX
  8
1PARCELLE
  5
44f1
 10
422727.540000
 20
6438006.420000
 30
0.000000
  0
VERTEX
  8
1PARCELLE
  5
44f2
 10
422727.790000
 20
6438006.710000
 30
0.000000
  0
VERTEX
  8
1PARCELLE
  5
44f3
 10
422728.060000
 20
6438006.980000
 30
0.000000
  0
VERTEX
  8
1PARCELLE
  5
44f4
 10
422728.350000
 20
6438007.240000
 30
0.000000
  0
VERTEX
  8
1PARCELLE
  5
44f5
 10
422728.640000
 20
6438007.480000
 30
0.000000
  0
VERTEX
  8
1PARCELLE
  5
44f6
 10
422728.950000
 20
6438007.710000
 30
0.000000
  0
VERTEX
  8
1PARCELLE
  5
44f7
 10
422729.260000
 20
6438007.920000
 30
0.000000
  0
VERTEX
  8
1PARCELLE
  5
44f8
 10
422729.590000
 20
6438008.110000
 30
0.000000
  0
VERTEX
  8
1PARCELLE
  5
44f9
 10
422729.940000
 20
6438008.280000
 30
0.000000
  0
VERTEX
  8
1PARCELLE
  5
44fa
 10
422733.290000
 20
6438007.590000
 30
0.000000
  0
VERTEX
  8
1PARCELLE
  5
44fb
 10
422939.260000
 20
6437948.230000
 30
0.000000
  0
VERTEX
  8
1PARCELLE
  5
44fc
 10
422942.960000
 20
6437947.310000
 30
0.000000
  0
VERTEX
  8
1PARCELLE
  5
44fd
 10
422945.550000
 20
6437946.570000
 30
0.000000
  0
VERTEX
  8
1PARCELLE
  5
44fe
 10
422948.750000
 20
6437946.030000
 30
0.000000
  0
VERTEX
  8
1PARCELLE
  5
44ff
 10
422978.050000
 20
6437943.540000
 30
0.000000
  0
VERTEX
  8
1PARCELLE
  5
4500
 10
423070.550000
 20
6437934.740000
 30
0.000000
  0
VERTEX
  8
1PARCELLE
  5
4501
 10
423082.160000
 20
6437933.910000
 30
0.000000
  0
VERTEX
  8
1PARCELLE
  5
4502
 10
423175.090000
 20
6437928.040000
 30
0.000000
  0
VERTEX
  8
1PARCELLE
  5
4503
 10
423467.710000
 20
6437904.810000
 30
0.000000
  0
VERTEX
  8
1PARCELLE
  5
4504
 10
423474.730000
 20
6437905.220000
 30
0.000000
  0
VERTEX
  8
1PARCELLE
  5
4505
 10
423512.230000
 20
6437908.360000
 30
0.000000
  0
VERTEX
  8
1PARCELLE
  5
4506
 10
423546.100000
 20
6437911.420000
 30
0.000000
  0
VERTEX
  8
1PARCELLE
  5
4507
 10
423562.450000
 20
6437913.260000
 30
0.000000
  0
VERTEX
  8
1PARCELLE
  5
4508
 10
423629.270000
 20
6437921.340000
 30
0.000000
  0
VERTEX
  8
1PARCELLE
  5
4509
 10
423632.220000
 20
6437921.580000
 30
0.000000
  0
SEQEND
  8
1PARCELLE
  5
450a
  0
TEXT
  5
450b
  8
3PARCELLETEX
  10
423442.470000
  20
6437732.740000
  30
0.000000
  40
2.000000
   1
2
  50
0.000000
   7
STANDARD
  0
POLYLINE
  5
450c
  8
1PARCELLE
 66
    1
 10
0.0
 20
0.0
 30
0.0
 70
     1
1001
SUPF
1000
000207362
1001
INDP
1000
01
1001
IDU
1000
003000AA0001
  0
VERTEX
  8
1PARCELLE
  5
450d
 10
423576.420000
 20
6438181.910000
 30
0.000000
  0
VERTEX
  8
1PARCELLE
  5
450e
 10
423279.890000
 20
6438222.140000
 30
0.000000
  0
VERTEX
  8
1PARCELLE
  5
450f
 10
423218.520000
 20
6438230.290000
 30
0.000000
  0
VERTEX
  8
1PARCELLE
  5
4510
 10
422968.730000
 20
6438265.110000
 30
0.000000
  0
VERTEX
  8
1PARCELLE
  5
4511
 10
422871.520000
 20
6438275.940000
 30
0.000000
  0
VERTEX
  8
1PARCELLE
  5
4512
 10
422873.710000
 20
6438264.180000
 30
0.000000
  0
VERTEX
  8
1PARCELLE
  5
4513
 10
422875.170000
 20
6438257.100000
 30
0.000000
  0
VERTEX
  8
1PARCELLE
  5
4514
 10
422947.720000
 20
6437956.510000
 30
0.000000
  0
VERTEX
  8
1PARCELLE
  5
4515
 10
422948.000000
 20
6437954.270000
 30
0.000000
  0
VERTEX
  8
1PARCELLE
  5
4516
 10
422947.830000
 20
6437952.190000
 30
0.000000
  0
VERTEX
  8
1PARCELLE
  5
4517
 10
422960.480000
 20
6437950.300000
 30
0.000000
  0
VERTEX
  8
1PARCELLE
  5
4518
 10
422991.210000
 20
6437947.190000
 30
0.000000
  0
VERTEX
  8
1PARCELLE
  5
4519
 10
423076.670000
 20
6437938.640000
 30
0.000000
  0
VERTEX
  8
1PARCELLE
  5
451a
 10
423103.380000
 20
6437936.800000
 30
0.000000
  0
VERTEX
  8
1PARCELLE
  5
451b
 10
423166.740000
 20
6437933.150000
 30
0.000000
  0
VERTEX
  8
1PARCELLE
  5
451c
 10
423176.450000
 20
6437932.550000
 30
0.000000
  0
VERTEX
  8
1PARCELLE
  5
451d
 10
423192.980000
 20
6437931.440000
 30
0.000000
  0
VERTEX
  8
1PARCELLE
  5
451e
 10
423208.920000
 20
6437930.050000
 30
0.000000
  0
VERTEX
  8
1PARCELLE
  5
451f
 10
423271.460000
 20
6437925.150000
 30
0.000000
  0
VERTEX
  8
1PARCELLE
  5
4520
 10
423323.550000
 20
6437920.730000
 30
0.000000
  0
VERTEX
  8
1PARCELLE
  5
4521
 10
423371.500000
 20
6437917.030000
 30
0.000000
  0
VERTEX
  8
1PARCELLE
  5
4522
 10
423428.250000
 20
6437911.830000
 30
0.000000
  0
VERTEX
  8
1PARCELLE
  5
4523
 10
423438.110000
 20
6437911.010000
 30
0.000000
  0
VERTEX
  8
1PARCELLE
  5
4524
 10
423461.240000
 20
6437909.500000
 30
0.000000
  0
VERTEX
  8
1PARCELLE
  5
4525
 10
423466.150000
 20
6437909.150000
 30
0.000000
  0
VERTEX
  8
1PARCELLE
  5
4526
 10
423469.810000
 20
6437909.020000
 30
0.000000
  0
VERTEX
  8
1PARCELLE
  5
4527
 10
423473.540000
 20
6437908.900000
 30
0.000000
  0
VERTEX
  8
1PARCELLE
  5
4528
 10
423477.340000
 20
6437909.000000
 30
0.000000
  0
VERTEX
  8
1PARCELLE
  5
4529
 10
423480.350000
 20
6437909.200000
 30
0.000000
  0
VERTEX
  8
1PARCELLE
  5
452a
 10
423622.730000
 20
6437924.300000
 30
0.000000
  0
VERTEX
  8
1PARCELLE
  5
452b
 10
423623.190000
 20
6437924.330000
 30
0.000000
  0
VERTEX
  8
1PARCELLE
  5
452c
 10
423623.640000
 20
6437924.400000
 30
0.000000
  0
VERTEX
  8
1PARCELLE
  5
452d
 10
423624.080000
 20
6437924.500000
 30
0.000000
  0
VERTEX
  8
1PARCELLE
  5
452e
 10
423624.510000
 20
6437924.650000
 30
0.000000
  0
VERTEX
  8
1PARCELLE
  5
452f
 10
423624.940000
 20
6437924.830000
 30
0.000000
  0
VERTEX
  8
1PARCELLE
  5
4530
 10
423625.340000
 20
6437925.040000
 30
0.000000
  0
VERTEX
  8
1PARCELLE
  5
4531
 10
423625.720000
 20
6437925.290000
 30
0.000000
  0
VERTEX
  8
1PARCELLE
  5
4532
 10
423626.080000
 20
6437925.570000
 30
0.000000
  0
VERTEX
  8
1PARCELLE
  5
4533
 10
423626.410000
 20
6437925.870000
 30
0.000000
  0
VERTEX
  8
1PARCELLE
  5
4534
 10
423626.720000
 20
6437926.210000
 30
0.000000
  0
VERTEX
  8
1PARCELLE
  5
4535
 10
423626.990000
 20
6437926.580000
 30
0.000000
  0
VERTEX
  8
1PARCELLE
  5
4536
 10
423627.230000
 20
6437926.970000
 30
0.000000
  0
VERTEX
  8
1PARCELLE
  5
4537
 10
423627.440000
 20
6437927.370000
 30
0.000000
  0
VERTEX
  8
1PARCELLE
  5
4538
 10
423627.610000
 20
6437927.800000
 30
0.000000
  0
VERTEX
  8
1PARCELLE
  5
4539
 10
423627.750000
 20
6437928.230000
 30
0.000000
  0
VERTEX
  8
1PARCELLE
  5
453a
 10
423627.840000
 20
6437928.680000
 30
0.000000
  0
VERTEX
  8
1PARCELLE
  5
453b
 10
423627.890000
 20
6437929.140000
 30
0.000000
  0
VERTEX
  8
1PARCELLE
  5
453c
 10
423627.910000
 20
6437929.590000
 30
0.000000
  0
VERTEX
  8
1PARCELLE
  5
453d
 10
423627.890000
 20
6437930.050000
 30
0.000000
  0
VERTEX
  8
1PARCELLE
  5
453e
 10
423627.810000
 20
6437930.510000
 30
0.000000
  0
VERTEX
  8
1PARCELLE
  5
453f
 10
423602.600000
 20
6438114.620000
 30
0.000000
  0
VERTEX
  8
1PARCELLE
  5
4540
 10
423601.160000
 20
6438127.140000
 30
0.000000
  0
VERTEX
  8
1PARCELLE
  5
4541
 10
423585.810000
 20
6438124.990000
 30
0.000000
  0
VERTEX
  8
1PARCELLE
  5
4542
 10
423584.390000
 20
6438124.990000
 30
0.000000
  0
VERTEX
  8
1PARCELLE
  5
4543
 10
423582.340000
 20
6438124.970000
 30
0.000000
  0
VERTEX
  8
1PARCELLE
  5
4544
 10
423581.720000
 20
6438125.200000
 30
0.000000
  0
VERTEX
  8
1PARCELLE
  5
4545
 10
423581.460000
 20
6438125.330000
 30
0.000000
  0
VERTEX
  8
1PARCELLE
  5
4546
 10
423581.210000
 20
6438125.480000
 30
0.000000
  0
VERTEX
  8
1PARCELLE
  5
4547
 10
423580.970000
 20
6438125.640000
 30
0.000000
  0
VERTEX
  8
1PARCELLE
  5
4548
 10
423580.740000
 20
6438125.810000
 30
0.000000
  0
VERTEX
  8
1PARCELLE
  5
4549
 10
423580.520000
 20
6438126.000000
 30
0.000000
  0
VERTEX
  8
1PARCELLE
  5
454a
 10
423580.310000
 20
6438126.200000
 30
0.000000
  0
VERTEX
  8
1PARCELLE
  5
454b
 10
423580.100000
 20
6438126.400000
 30
0.000000
  0
VERTEX
  8
1PARCELLE
  5
454c
 10
423579.910000
 20
6438126.620000
 30
0.000000
  0
VERTEX
  8
1PARCELLE
  5
454d
 10
423579.720000
 20
6438126.840000
 30
0.000000
  0
VERTEX
  8
1PARCELLE
  5
454e
 10
423579.560000
 20
6438127.070000
 30
0.000000
  0
VERTEX
  8
1PARCELLE
  5
454f
 10
423579.400000
 20
6438127.330000
 30
0.000000
  0
VERTEX
  8
1PARCELLE
  5
4550
 10
423579.250000
 20
6438127.580000
 30
0.000000
  0
VERTEX
  8
1PARCELLE
  5
4551
 10
423579.120000
 20
6438127.830000
 30
0.000000
  0
VERTEX
  8
1PARCELLE
  5
4552
 10
423579.000000
 20
6438128.100000
 30
0.000000
  0
VERTEX
  8
1PARCELLE
  5
4553
 10
423578.900000
 20
6438128.360000
 30
0.000000
  0
VERTEX
  8
1PARCELLE
  5
4554
 10
423578.820000
 20
6438128.640000
 30
0.000000
  0
VERTEX
  8
1PARCELLE
  5
4555
 10
423578.740000
 20
6438128.920000
 30
0.000000
  0
VERTEX
  8
1PARCELLE
  5
4556
 10
423578.670000
 20
6438129.200000
 30
0.000000
  0
VERTEX
  8
1PARCELLE
  5
4557
 10
423578.730000
 20
6438136.470000
 30
0.000000
  0
VERTEX
  8
1PARCELLE
  5
4558
 10
423577.190000
 20
6438176.820000
 30
0.000000
  0
VERTEX
  8
1PARCELLE
  5
4559
 10
423576.420000
 20
6438181.910000
 30
0.000000
  0
SEQEND
  8
1PARCELLE
  5
455a
  0
TEXT
  5
455b
  8
3PARCELLETEX
  10
423251.770000
  20
6438084.540000
  30
0.000000
  40
2.000000
   1
1
  50
0.000000
   7
STANDARD
  0
ENDSEC
  0
EOF
